<mxfile host="app.diagrams.net" modified="2023-07-08T19:43:35.931Z" agent="Mozilla/5.0 (Windows NT 10.0; Win64; x64) AppleWebKit/537.36 (KHTML, like Gecko) Chrome/114.0.0.0 Safari/537.36" etag="8WQfUkiWi_S_G0T6EAvz" version="21.6.1" type="github">
  <diagram name="PÃ¡gina-1" id="68-ri3t_62zrD-WDxQXu">
    <mxGraphModel dx="2229" dy="1621" grid="1" gridSize="10" guides="0" tooltips="1" connect="1" arrows="1" fold="1" page="1" pageScale="1" pageWidth="827" pageHeight="1169" math="0" shadow="0">
      <root>
        <mxCell id="0" />
        <mxCell id="1" parent="0" />
        <mxCell id="NHjjjnDl3UXlkUb6KNAD-32" value="" style="rounded=1;whiteSpace=wrap;html=1;strokeWidth=3;strokeColor=#9673a6;" parent="1" vertex="1">
          <mxGeometry x="-80" y="70" width="40" height="490" as="geometry" />
        </mxCell>
        <mxCell id="8xFIW8AcWVv0tGsdDjNo-16" value="" style="rounded=1;whiteSpace=wrap;html=1;strokeColor=#b85450;strokeWidth=3;" parent="1" vertex="1">
          <mxGeometry x="440" y="70" width="160" height="490" as="geometry" />
        </mxCell>
        <mxCell id="t8-O5Rs3jxAdFhY2lbRl-10" value="weight pointer controller&lt;br&gt;&lt;br&gt;&lt;br&gt;" style="rounded=0;whiteSpace=wrap;html=1;fillColor=#d5e8d4;strokeColor=#82b366;" parent="1" vertex="1">
          <mxGeometry x="200" y="80" width="160" height="120" as="geometry" />
        </mxCell>
        <mxCell id="t8-O5Rs3jxAdFhY2lbRl-9" value="previous y pointer controller&lt;br&gt;&lt;br&gt;&lt;br&gt;" style="rounded=0;whiteSpace=wrap;html=1;fillColor=#d5e8d4;strokeColor=#82b366;" parent="1" vertex="1">
          <mxGeometry x="200" y="240" width="160" height="120" as="geometry" />
        </mxCell>
        <mxCell id="t8-O5Rs3jxAdFhY2lbRl-7" value="y pointer controller&lt;br&gt;&lt;br&gt;&lt;br&gt;" style="rounded=0;whiteSpace=wrap;html=1;fillColor=#d5e8d4;strokeColor=#82b366;" parent="1" vertex="1">
          <mxGeometry x="200" y="400" width="160" height="120" as="geometry" />
        </mxCell>
        <mxCell id="cXM49ELqJlq6IrReiL05-63" value="" style="rounded=0;whiteSpace=wrap;html=1;fillColor=#dae8fc;strokeColor=#6c8ebf;" parent="1" vertex="1">
          <mxGeometry x="680" y="200.37" width="360" height="159.63" as="geometry" />
        </mxCell>
        <mxCell id="cXM49ELqJlq6IrReiL05-6" style="edgeStyle=orthogonalEdgeStyle;rounded=0;orthogonalLoop=1;jettySize=auto;html=1;" parent="1" source="cXM49ELqJlq6IrReiL05-1" target="cXM49ELqJlq6IrReiL05-2" edge="1">
          <mxGeometry relative="1" as="geometry" />
        </mxCell>
        <mxCell id="cXM49ELqJlq6IrReiL05-1" value="botons" style="rounded=0;whiteSpace=wrap;html=1;" parent="1" vertex="1">
          <mxGeometry x="200" y="-360" width="120" height="40" as="geometry" />
        </mxCell>
        <mxCell id="cXM49ELqJlq6IrReiL05-22" style="edgeStyle=orthogonalEdgeStyle;rounded=0;orthogonalLoop=1;jettySize=auto;html=1;entryX=0;entryY=0.5;entryDx=0;entryDy=0;" parent="1" source="cXM49ELqJlq6IrReiL05-2" target="cXM49ELqJlq6IrReiL05-4" edge="1">
          <mxGeometry relative="1" as="geometry" />
        </mxCell>
        <mxCell id="cXM49ELqJlq6IrReiL05-2" value="AXI 4 lite" style="rounded=0;whiteSpace=wrap;html=1;rotation=-90;" parent="1" vertex="1">
          <mxGeometry x="240" y="-360" width="280" height="40" as="geometry" />
        </mxCell>
        <mxCell id="cXM49ELqJlq6IrReiL05-4" value="micro" style="rounded=0;whiteSpace=wrap;html=1;" parent="1" vertex="1">
          <mxGeometry x="440" y="-380" width="120" height="80" as="geometry" />
        </mxCell>
        <mxCell id="cXM49ELqJlq6IrReiL05-10" value="decoder" style="rounded=0;whiteSpace=wrap;html=1;" parent="1" vertex="1">
          <mxGeometry x="800" y="-280" width="120" height="40" as="geometry" />
        </mxCell>
        <mxCell id="cXM49ELqJlq6IrReiL05-11" value="neural network" style="rounded=0;whiteSpace=wrap;html=1;" parent="1" vertex="1">
          <mxGeometry x="800" y="-440" width="120" height="80" as="geometry" />
        </mxCell>
        <mxCell id="cXM49ELqJlq6IrReiL05-14" value="AXI 4 lite" style="rounded=0;whiteSpace=wrap;html=1;rotation=-90;" parent="1" vertex="1">
          <mxGeometry x="520" y="-360" width="280" height="40" as="geometry" />
        </mxCell>
        <mxCell id="cXM49ELqJlq6IrReiL05-15" value="adress bus (3)" style="shape=flexArrow;endArrow=classic;html=1;rounded=0;" parent="1" edge="1">
          <mxGeometry width="50" height="50" relative="1" as="geometry">
            <mxPoint x="680" y="-260" as="sourcePoint" />
            <mxPoint x="800" y="-260" as="targetPoint" />
          </mxGeometry>
        </mxCell>
        <mxCell id="cXM49ELqJlq6IrReiL05-16" value="input (32)" style="shape=flexArrow;endArrow=classic;html=1;rounded=0;" parent="1" edge="1">
          <mxGeometry width="50" height="50" relative="1" as="geometry">
            <mxPoint x="680" y="-380" as="sourcePoint" />
            <mxPoint x="800" y="-380" as="targetPoint" />
          </mxGeometry>
        </mxCell>
        <mxCell id="cXM49ELqJlq6IrReiL05-17" value="address (7)" style="shape=flexArrow;endArrow=classic;html=1;rounded=0;exitX=0.5;exitY=0;exitDx=0;exitDy=0;" parent="1" edge="1">
          <mxGeometry width="50" height="50" relative="1" as="geometry">
            <mxPoint x="860" y="-280" as="sourcePoint" />
            <mxPoint x="860" y="-360" as="targetPoint" />
          </mxGeometry>
        </mxCell>
        <mxCell id="cXM49ELqJlq6IrReiL05-19" value="answer (32)" style="shape=flexArrow;endArrow=none;html=1;rounded=0;startArrow=block;endFill=0;" parent="1" edge="1">
          <mxGeometry width="50" height="50" relative="1" as="geometry">
            <mxPoint x="680" y="-420" as="sourcePoint" />
            <mxPoint x="800" y="-420" as="targetPoint" />
          </mxGeometry>
        </mxCell>
        <mxCell id="cXM49ELqJlq6IrReiL05-23" value="" style="endArrow=classic;html=1;rounded=0;" parent="1" edge="1">
          <mxGeometry width="50" height="50" relative="1" as="geometry">
            <mxPoint x="560" y="-360" as="sourcePoint" />
            <mxPoint x="640" y="-360" as="targetPoint" />
          </mxGeometry>
        </mxCell>
        <mxCell id="cXM49ELqJlq6IrReiL05-24" value="" style="endArrow=none;html=1;rounded=0;startArrow=classic;startFill=1;endFill=0;" parent="1" edge="1">
          <mxGeometry width="50" height="50" relative="1" as="geometry">
            <mxPoint x="560" y="-320" as="sourcePoint" />
            <mxPoint x="640" y="-320" as="targetPoint" />
          </mxGeometry>
        </mxCell>
        <mxCell id="cXM49ELqJlq6IrReiL05-25" value="" style="verticalLabelPosition=bottom;html=1;verticalAlign=top;align=center;strokeColor=none;fillColor=#00BEF2;shape=mxgraph.azure.code_file;pointerEvents=1;" parent="1" vertex="1">
          <mxGeometry x="550" y="-440" width="30" height="30" as="geometry" />
        </mxCell>
        <mxCell id="cXM49ELqJlq6IrReiL05-50" style="rounded=0;orthogonalLoop=1;jettySize=auto;html=1;" parent="1" source="cXM49ELqJlq6IrReiL05-42" target="cXM49ELqJlq6IrReiL05-48" edge="1">
          <mxGeometry relative="1" as="geometry" />
        </mxCell>
        <mxCell id="cXM49ELqJlq6IrReiL05-42" value="*" style="ellipse;whiteSpace=wrap;html=1;aspect=fixed;" parent="1" vertex="1">
          <mxGeometry x="720" y="260.37" width="40" height="40" as="geometry" />
        </mxCell>
        <mxCell id="cXM49ELqJlq6IrReiL05-43" value="getWeight" style="endArrow=classic;html=1;rounded=0;exitX=1;exitY=0.5;exitDx=0;exitDy=0;" parent="1" source="z2SttC8pkeUnPTJP8_GX-2" target="cXM49ELqJlq6IrReiL05-42" edge="1">
          <mxGeometry width="50" height="50" relative="1" as="geometry">
            <mxPoint x="555" y="100.37" as="sourcePoint" />
            <mxPoint x="640" y="270.37" as="targetPoint" />
          </mxGeometry>
        </mxCell>
        <mxCell id="cXM49ELqJlq6IrReiL05-54" style="edgeStyle=orthogonalEdgeStyle;rounded=0;orthogonalLoop=1;jettySize=auto;html=1;" parent="1" source="cXM49ELqJlq6IrReiL05-48" target="cXM49ELqJlq6IrReiL05-115" edge="1">
          <mxGeometry relative="1" as="geometry" />
        </mxCell>
        <mxCell id="cXM49ELqJlq6IrReiL05-62" value="acumulator w*y" style="edgeStyle=orthogonalEdgeStyle;rounded=0;orthogonalLoop=1;jettySize=auto;html=1;entryX=0.5;entryY=0;entryDx=0;entryDy=0;" parent="1" source="cXM49ELqJlq6IrReiL05-115" target="cXM49ELqJlq6IrReiL05-48" edge="1">
          <mxGeometry relative="1" as="geometry">
            <mxPoint x="760" y="190.37" as="targetPoint" />
            <Array as="points">
              <mxPoint x="900" y="220.37" />
              <mxPoint x="820" y="220.37" />
            </Array>
          </mxGeometry>
        </mxCell>
        <mxCell id="cXM49ELqJlq6IrReiL05-48" value="+" style="ellipse;whiteSpace=wrap;html=1;aspect=fixed;" parent="1" vertex="1">
          <mxGeometry x="800" y="260.37" width="40" height="40" as="geometry" />
        </mxCell>
        <mxCell id="cXM49ELqJlq6IrReiL05-53" value="ReLu" style="ellipse;whiteSpace=wrap;html=1;aspect=fixed;" parent="1" vertex="1">
          <mxGeometry x="960" y="260.37" width="40" height="40" as="geometry" />
        </mxCell>
        <mxCell id="cXM49ELqJlq6IrReiL05-55" value="y" style="endArrow=classic;html=1;rounded=0;edgeStyle=elbowEdgeStyle;" parent="1" source="cXM49ELqJlq6IrReiL05-53" target="ueNnbmR6eegOaz5hOX_r-89" edge="1">
          <mxGeometry width="50" height="50" relative="1" as="geometry">
            <mxPoint x="900" y="360" as="sourcePoint" />
            <mxPoint x="340.0000000000002" y="660" as="targetPoint" />
            <Array as="points">
              <mxPoint x="980" y="440" />
              <mxPoint x="560" y="450" />
              <mxPoint x="900" y="680" />
            </Array>
          </mxGeometry>
        </mxCell>
        <mxCell id="cXM49ELqJlq6IrReiL05-139" style="edgeStyle=orthogonalEdgeStyle;rounded=0;orthogonalLoop=1;jettySize=auto;html=1;entryX=0.463;entryY=0.036;entryDx=0;entryDy=0;entryPerimeter=0;" parent="1" source="cXM49ELqJlq6IrReiL05-61" target="cXM49ELqJlq6IrReiL05-110" edge="1">
          <mxGeometry relative="1" as="geometry" />
        </mxCell>
        <mxCell id="cXM49ELqJlq6IrReiL05-61" value="&lt;h1&gt;C program&lt;/h1&gt;&lt;div&gt;&lt;span style=&quot;background-color: initial;&quot;&gt;int main(){&lt;/span&gt;&lt;/div&gt;&lt;div&gt;&lt;span style=&quot;background-color: initial;&quot;&gt;&lt;span style=&quot;white-space: pre;&quot;&gt;&#x9;&lt;/span&gt;for( i in ...){&lt;br&gt;&lt;/span&gt;&lt;/div&gt;&lt;div&gt;&lt;span style=&quot;white-space: pre;&quot;&gt;&#x9;&lt;/span&gt;&lt;span style=&quot;white-space: pre;&quot;&gt;&#x9;&lt;/span&gt;data[i]=data;&lt;/div&gt;&lt;div&gt;&lt;span style=&quot;white-space: pre;&quot;&gt;&#x9;&lt;/span&gt;&lt;span style=&quot;white-space: pre;&quot;&gt;&#x9;&lt;/span&gt;w[i]=w;&lt;br&gt;&lt;/div&gt;&lt;div&gt;&lt;span style=&quot;background-color: initial;&quot;&gt;&lt;span style=&quot;white-space: pre;&quot;&gt;&#x9;&lt;/span&gt;}&lt;/span&gt;&lt;/div&gt;&lt;div&gt;&lt;div style=&quot;border-color: var(--border-color);&quot;&gt;&lt;br&gt;&lt;/div&gt;&lt;/div&gt;&lt;div&gt;&lt;span style=&quot;background-color: initial;&quot;&gt;}&lt;/span&gt;&lt;/div&gt;&lt;div&gt;&lt;br&gt;&lt;/div&gt;" style="text;html=1;strokeColor=#666666;fillColor=#f5f5f5;spacing=5;spacingTop=-20;whiteSpace=wrap;overflow=hidden;rounded=0;fontColor=#333333;" parent="1" vertex="1">
          <mxGeometry y="920" width="200" height="140" as="geometry" />
        </mxCell>
        <mxCell id="cXM49ELqJlq6IrReiL05-91" value="input L" style="text;html=1;strokeColor=none;fillColor=none;align=center;verticalAlign=middle;whiteSpace=wrap;rounded=0;" parent="1" vertex="1">
          <mxGeometry x="410" y="860" width="60" height="30" as="geometry" />
        </mxCell>
        <mxCell id="cXM49ELqJlq6IrReiL05-92" value="3 - L&lt;span style=&quot;font-size: 10px;&quot;&gt;&lt;sup&gt;(1) &lt;/sup&gt;- 3&lt;/span&gt;" style="text;html=1;strokeColor=none;fillColor=none;align=center;verticalAlign=middle;whiteSpace=wrap;rounded=0;" parent="1" vertex="1">
          <mxGeometry x="535" y="830" width="60" height="30" as="geometry" />
        </mxCell>
        <mxCell id="cXM49ELqJlq6IrReiL05-93" value="3 - L&lt;sup&gt;(2) &lt;/sup&gt;- 2" style="text;html=1;strokeColor=none;fillColor=none;align=center;verticalAlign=middle;whiteSpace=wrap;rounded=0;" parent="1" vertex="1">
          <mxGeometry x="691" y="830" width="60" height="30" as="geometry" />
        </mxCell>
        <mxCell id="cXM49ELqJlq6IrReiL05-110" value="register" style="rounded=0;whiteSpace=wrap;html=1;rotation=-90;fillColor=#fff2cc;strokeColor=#d6b656;" parent="1" vertex="1">
          <mxGeometry x="220" y="980" width="240" height="40" as="geometry" />
        </mxCell>
        <mxCell id="cXM49ELqJlq6IrReiL05-111" value="" style="shape=flexArrow;endArrow=classic;html=1;rounded=0;fillColor=#f8cecc;strokeColor=#b85450;exitX=0.604;exitY=-0.017;exitDx=0;exitDy=0;exitPerimeter=0;" parent="1" source="VyrQGjFrnwsROVNn3HrQ-78" edge="1">
          <mxGeometry width="50" height="50" relative="1" as="geometry">
            <mxPoint x="660" y="830" as="sourcePoint" />
            <mxPoint x="529" y="803" as="targetPoint" />
          </mxGeometry>
        </mxCell>
        <mxCell id="cXM49ELqJlq6IrReiL05-114" value="Micro&lt;span style=&quot;white-space: pre;&quot;&gt;&#x9;&lt;span style=&quot;white-space: pre;&quot;&gt;&#x9;&lt;/span&gt;&lt;span style=&quot;white-space: pre;&quot;&gt;&#x9;&lt;/span&gt;&lt;/span&gt;FPGA" style="text;html=1;strokeColor=none;fillColor=none;align=center;verticalAlign=middle;whiteSpace=wrap;rounded=0;" parent="1" vertex="1">
          <mxGeometry x="230" y="810" width="60" height="30" as="geometry" />
        </mxCell>
        <mxCell id="cXM49ELqJlq6IrReiL05-116" value="z" style="edgeStyle=orthogonalEdgeStyle;rounded=0;orthogonalLoop=1;jettySize=auto;html=1;" parent="1" source="cXM49ELqJlq6IrReiL05-115" target="cXM49ELqJlq6IrReiL05-53" edge="1">
          <mxGeometry relative="1" as="geometry" />
        </mxCell>
        <mxCell id="cXM49ELqJlq6IrReiL05-115" value="memory" style="rounded=0;whiteSpace=wrap;html=1;rotation=-90;fillColor=#fff2cc;strokeColor=#d6b656;" parent="1" vertex="1">
          <mxGeometry x="860" y="260.37" width="80" height="40" as="geometry" />
        </mxCell>
        <mxCell id="cXM49ELqJlq6IrReiL05-136" value="y&lt;sup&gt;(i)&lt;/sup&gt;&lt;sub&gt;j&lt;/sub&gt; = f(z&lt;sup style=&quot;border-color: var(--border-color);&quot;&gt;(i)&lt;/sup&gt;&lt;span style=&quot;border-color: var(--border-color);&quot;&gt;&lt;sub&gt;j&lt;/sub&gt;&lt;/span&gt;)" style="text;html=1;strokeColor=none;fillColor=none;align=center;verticalAlign=middle;whiteSpace=wrap;rounded=0;" parent="1" vertex="1">
          <mxGeometry x="715" y="1235" width="130" height="60" as="geometry" />
        </mxCell>
        <mxCell id="cXM49ELqJlq6IrReiL05-142" value="z&lt;sup&gt;(i)&lt;/sup&gt; = sum(y&lt;sup&gt;(i-1)&lt;/sup&gt;*w&lt;sup&gt;(i)&lt;/sup&gt;)" style="text;html=1;strokeColor=none;fillColor=none;align=center;verticalAlign=middle;whiteSpace=wrap;rounded=0;" parent="1" vertex="1">
          <mxGeometry x="560" y="1250" width="150" height="30" as="geometry" />
        </mxCell>
        <mxCell id="cXM49ELqJlq6IrReiL05-147" value="2 - L&lt;sup&gt;(3) &lt;/sup&gt;-1" style="text;html=1;strokeColor=none;fillColor=none;align=center;verticalAlign=middle;whiteSpace=wrap;rounded=0;" parent="1" vertex="1">
          <mxGeometry x="850" y="830" width="60" height="30" as="geometry" />
        </mxCell>
        <mxCell id="cXM49ELqJlq6IrReiL05-150" value="AXI 4 lite" style="rounded=0;whiteSpace=wrap;html=1;rotation=-90;fillColor=#f5f5f5;strokeColor=#666666;fontColor=#333333;" parent="1" vertex="1">
          <mxGeometry x="95" y="955" width="310" height="20" as="geometry" />
        </mxCell>
        <mxCell id="cXM49ELqJlq6IrReiL05-152" value="t" style="endArrow=classic;html=1;rounded=0;" parent="1" edge="1">
          <mxGeometry width="50" height="50" relative="1" as="geometry">
            <mxPoint x="480" y="1640" as="sourcePoint" />
            <mxPoint x="760" y="1640" as="targetPoint" />
          </mxGeometry>
        </mxCell>
        <mxCell id="cXM49ELqJlq6IrReiL05-154" value="y&lt;sup style=&quot;border-color: var(--border-color);&quot;&gt;(1)&lt;/sup&gt;&lt;sub style=&quot;border-color: var(--border-color);&quot;&gt;1&lt;/sub&gt;" style="ellipse;whiteSpace=wrap;html=1;aspect=fixed;fillColor=#dae8fc;strokeColor=#6c8ebf;" parent="1" vertex="1">
          <mxGeometry x="440" y="1280" width="40" height="40" as="geometry" />
        </mxCell>
        <mxCell id="cXM49ELqJlq6IrReiL05-155" value="y&lt;sup style=&quot;border-color: var(--border-color);&quot;&gt;(1)&lt;/sup&gt;&lt;span style=&quot;border-color: var(--border-color);&quot;&gt;&lt;sub&gt;2&lt;/sub&gt;&lt;/span&gt;" style="ellipse;whiteSpace=wrap;html=1;aspect=fixed;fillColor=#dae8fc;strokeColor=#6c8ebf;" parent="1" vertex="1">
          <mxGeometry x="440" y="1340" width="40" height="40" as="geometry" />
        </mxCell>
        <mxCell id="cXM49ELqJlq6IrReiL05-156" value="y&lt;sup style=&quot;border-color: var(--border-color);&quot;&gt;(1)&lt;/sup&gt;&lt;sub style=&quot;border-color: var(--border-color);&quot;&gt;3&lt;/sub&gt;" style="ellipse;whiteSpace=wrap;html=1;aspect=fixed;fillColor=#dae8fc;strokeColor=#6c8ebf;" parent="1" vertex="1">
          <mxGeometry x="440" y="1400" width="40" height="40" as="geometry" />
        </mxCell>
        <mxCell id="cXM49ELqJlq6IrReiL05-157" value="y&lt;sup style=&quot;border-color: var(--border-color);&quot;&gt;(2)&lt;/sup&gt;&lt;sub style=&quot;border-color: var(--border-color);&quot;&gt;1&lt;/sub&gt;" style="ellipse;whiteSpace=wrap;html=1;aspect=fixed;fillColor=#dae8fc;strokeColor=#6c8ebf;" parent="1" vertex="1">
          <mxGeometry x="440" y="1460" width="40" height="40" as="geometry" />
        </mxCell>
        <mxCell id="cXM49ELqJlq6IrReiL05-158" value="y&lt;sup style=&quot;border-color: var(--border-color);&quot;&gt;(1)&lt;/sup&gt;&lt;sub style=&quot;border-color: var(--border-color);&quot;&gt;2&lt;/sub&gt;" style="ellipse;whiteSpace=wrap;html=1;aspect=fixed;fillColor=#dae8fc;strokeColor=#6c8ebf;" parent="1" vertex="1">
          <mxGeometry x="440" y="1520" width="40" height="40" as="geometry" />
        </mxCell>
        <mxCell id="cXM49ELqJlq6IrReiL05-159" value="y&lt;sup style=&quot;border-color: var(--border-color);&quot;&gt;(3)&lt;/sup&gt;&lt;sub style=&quot;border-color: var(--border-color);&quot;&gt;1&lt;/sub&gt;" style="ellipse;whiteSpace=wrap;html=1;aspect=fixed;fillColor=#dae8fc;strokeColor=#6c8ebf;" parent="1" vertex="1">
          <mxGeometry x="440" y="1580" width="40" height="40" as="geometry" />
        </mxCell>
        <mxCell id="cXM49ELqJlq6IrReiL05-160" value="" style="endArrow=none;html=1;rounded=0;" parent="1" edge="1">
          <mxGeometry width="50" height="50" relative="1" as="geometry">
            <mxPoint x="480" y="1640" as="sourcePoint" />
            <mxPoint x="480" y="1250" as="targetPoint" />
          </mxGeometry>
        </mxCell>
        <mxCell id="cXM49ELqJlq6IrReiL05-161" value="" style="rounded=0;whiteSpace=wrap;html=1;fillColor=#dae8fc;strokeColor=#6c8ebf;" parent="1" vertex="1">
          <mxGeometry x="480" y="1290" width="80" height="20" as="geometry" />
        </mxCell>
        <mxCell id="cXM49ELqJlq6IrReiL05-171" style="edgeStyle=orthogonalEdgeStyle;rounded=0;orthogonalLoop=1;jettySize=auto;html=1;curved=1;entryX=0;entryY=0.5;entryDx=0;entryDy=0;exitX=1;exitY=0.5;exitDx=0;exitDy=0;" parent="1" source="cXM49ELqJlq6IrReiL05-162" target="cXM49ELqJlq6IrReiL05-164" edge="1">
          <mxGeometry relative="1" as="geometry">
            <Array as="points">
              <mxPoint x="601" y="1360" />
              <mxPoint x="601" y="1444" />
              <mxPoint x="532" y="1444" />
              <mxPoint x="532" y="1480" />
            </Array>
          </mxGeometry>
        </mxCell>
        <mxCell id="cXM49ELqJlq6IrReiL05-162" value="" style="rounded=0;whiteSpace=wrap;html=1;fillColor=#dae8fc;strokeColor=#6c8ebf;" parent="1" vertex="1">
          <mxGeometry x="480" y="1350" width="80" height="20" as="geometry" />
        </mxCell>
        <mxCell id="cXM49ELqJlq6IrReiL05-172" style="edgeStyle=orthogonalEdgeStyle;rounded=0;orthogonalLoop=1;jettySize=auto;html=1;entryX=0;entryY=0.5;entryDx=0;entryDy=0;curved=1;exitX=1;exitY=0.5;exitDx=0;exitDy=0;" parent="1" source="cXM49ELqJlq6IrReiL05-163" target="cXM49ELqJlq6IrReiL05-164" edge="1">
          <mxGeometry relative="1" as="geometry">
            <Array as="points">
              <mxPoint x="580" y="1420" />
              <mxPoint x="580" y="1440" />
              <mxPoint x="521" y="1440" />
              <mxPoint x="521" y="1480" />
            </Array>
          </mxGeometry>
        </mxCell>
        <mxCell id="cXM49ELqJlq6IrReiL05-163" value="" style="rounded=0;whiteSpace=wrap;html=1;fillColor=#dae8fc;strokeColor=#6c8ebf;" parent="1" vertex="1">
          <mxGeometry x="480" y="1410" width="80" height="20" as="geometry" />
        </mxCell>
        <mxCell id="cXM49ELqJlq6IrReiL05-173" style="edgeStyle=orthogonalEdgeStyle;rounded=0;orthogonalLoop=1;jettySize=auto;html=1;curved=1;exitX=1;exitY=0.5;exitDx=0;exitDy=0;" parent="1" source="cXM49ELqJlq6IrReiL05-164" target="cXM49ELqJlq6IrReiL05-166" edge="1">
          <mxGeometry relative="1" as="geometry">
            <Array as="points">
              <mxPoint x="678" y="1480" />
              <mxPoint x="678" y="1567" />
              <mxPoint x="625" y="1567" />
              <mxPoint x="625" y="1600" />
            </Array>
            <mxPoint x="631" y="1611" as="targetPoint" />
          </mxGeometry>
        </mxCell>
        <mxCell id="cXM49ELqJlq6IrReiL05-164" value="" style="rounded=0;whiteSpace=wrap;html=1;fillColor=#dae8fc;strokeColor=#6c8ebf;" parent="1" vertex="1">
          <mxGeometry x="560" y="1470" width="80" height="20" as="geometry" />
        </mxCell>
        <mxCell id="cXM49ELqJlq6IrReiL05-174" style="edgeStyle=orthogonalEdgeStyle;rounded=0;orthogonalLoop=1;jettySize=auto;html=1;curved=1;exitX=1;exitY=0.5;exitDx=0;exitDy=0;" parent="1" source="cXM49ELqJlq6IrReiL05-165" target="cXM49ELqJlq6IrReiL05-166" edge="1">
          <mxGeometry relative="1" as="geometry">
            <mxPoint x="615" y="1617" as="targetPoint" />
            <Array as="points">
              <mxPoint x="660" y="1540" />
              <mxPoint x="660" y="1557" />
              <mxPoint x="620" y="1557" />
              <mxPoint x="620" y="1595" />
            </Array>
          </mxGeometry>
        </mxCell>
        <mxCell id="cXM49ELqJlq6IrReiL05-165" value="" style="rounded=0;whiteSpace=wrap;html=1;fillColor=#dae8fc;strokeColor=#6c8ebf;" parent="1" vertex="1">
          <mxGeometry x="560" y="1530" width="80" height="20" as="geometry" />
        </mxCell>
        <mxCell id="cXM49ELqJlq6IrReiL05-166" value="" style="rounded=0;whiteSpace=wrap;html=1;fillColor=#dae8fc;strokeColor=#6c8ebf;" parent="1" vertex="1">
          <mxGeometry x="640" y="1590" width="80" height="20" as="geometry" />
        </mxCell>
        <mxCell id="cXM49ELqJlq6IrReiL05-167" value="layer 1" style="endArrow=classic;startArrow=classic;html=1;rounded=0;" parent="1" edge="1">
          <mxGeometry width="50" height="50" relative="1" as="geometry">
            <mxPoint x="420" y="1450" as="sourcePoint" />
            <mxPoint x="420" y="1260" as="targetPoint" />
          </mxGeometry>
        </mxCell>
        <mxCell id="cXM49ELqJlq6IrReiL05-168" value="layer 2" style="endArrow=classic;startArrow=classic;html=1;rounded=0;" parent="1" edge="1">
          <mxGeometry width="50" height="50" relative="1" as="geometry">
            <mxPoint x="420" y="1570" as="sourcePoint" />
            <mxPoint x="420" y="1450" as="targetPoint" />
          </mxGeometry>
        </mxCell>
        <mxCell id="cXM49ELqJlq6IrReiL05-169" value="layer 3" style="endArrow=classic;startArrow=classic;html=1;rounded=0;" parent="1" edge="1">
          <mxGeometry width="50" height="50" relative="1" as="geometry">
            <mxPoint x="420" y="1640" as="sourcePoint" />
            <mxPoint x="420" y="1570" as="targetPoint" />
          </mxGeometry>
        </mxCell>
        <mxCell id="cXM49ELqJlq6IrReiL05-170" value="" style="curved=1;endArrow=classic;html=1;rounded=0;exitX=1;exitY=0.5;exitDx=0;exitDy=0;entryX=0;entryY=0.5;entryDx=0;entryDy=0;" parent="1" source="cXM49ELqJlq6IrReiL05-161" target="cXM49ELqJlq6IrReiL05-164" edge="1">
          <mxGeometry width="50" height="50" relative="1" as="geometry">
            <mxPoint x="610" y="1480" as="sourcePoint" />
            <mxPoint x="660" y="1430" as="targetPoint" />
            <Array as="points">
              <mxPoint x="628" y="1346" />
              <mxPoint x="623" y="1431" />
              <mxPoint x="536" y="1463" />
            </Array>
          </mxGeometry>
        </mxCell>
        <mxCell id="VyrQGjFrnwsROVNn3HrQ-6" value="f" style="ellipse;whiteSpace=wrap;html=1;aspect=fixed;fillColor=#dae8fc;strokeColor=#6c8ebf;" parent="1" vertex="1">
          <mxGeometry x="540" y="900" width="40" height="40" as="geometry" />
        </mxCell>
        <mxCell id="VyrQGjFrnwsROVNn3HrQ-10" style="rounded=0;orthogonalLoop=1;jettySize=auto;html=1;endArrow=none;endFill=0;" parent="1" source="VyrQGjFrnwsROVNn3HrQ-7" target="VyrQGjFrnwsROVNn3HrQ-6" edge="1">
          <mxGeometry relative="1" as="geometry">
            <mxPoint x="520" y="907.5" as="targetPoint" />
            <mxPoint x="510" y="932.4999999999998" as="sourcePoint" />
          </mxGeometry>
        </mxCell>
        <mxCell id="VyrQGjFrnwsROVNn3HrQ-7" value="&lt;span style=&quot;color: rgb(0, 0, 0); font-family: Helvetica; font-size: 12px; font-style: normal; font-variant-ligatures: normal; font-variant-caps: normal; font-weight: 400; letter-spacing: normal; orphans: 2; text-align: center; text-indent: 0px; text-transform: none; widows: 2; word-spacing: 0px; -webkit-text-stroke-width: 0px; background-color: rgb(251, 251, 251); text-decoration-thickness: initial; text-decoration-style: initial; text-decoration-color: initial; float: none; display: inline !important;&quot;&gt;z&lt;/span&gt;&lt;sup style=&quot;border-color: var(--border-color); color: rgb(0, 0, 0); font-family: Helvetica; font-style: normal; font-variant-ligatures: normal; font-variant-caps: normal; font-weight: 400; letter-spacing: normal; orphans: 2; text-align: center; text-indent: 0px; text-transform: none; widows: 2; word-spacing: 0px; -webkit-text-stroke-width: 0px; background-color: rgb(251, 251, 251); text-decoration-thickness: initial; text-decoration-style: initial; text-decoration-color: initial;&quot;&gt;(1)&lt;/sup&gt;&lt;sub style=&quot;border-color: var(--border-color); color: rgb(0, 0, 0); font-family: Helvetica; font-style: normal; font-variant-ligatures: normal; font-variant-caps: normal; font-weight: 400; letter-spacing: normal; orphans: 2; text-align: center; text-indent: 0px; text-transform: none; widows: 2; word-spacing: 0px; -webkit-text-stroke-width: 0px; background-color: rgb(251, 251, 251); text-decoration-thickness: initial; text-decoration-style: initial; text-decoration-color: initial;&quot;&gt;1&lt;br&gt;&lt;br&gt;&lt;/sub&gt;" style="ellipse;whiteSpace=wrap;html=1;aspect=fixed;" parent="1" vertex="1">
          <mxGeometry x="520" y="915" width="10" height="10" as="geometry" />
        </mxCell>
        <mxCell id="VyrQGjFrnwsROVNn3HrQ-33" style="rounded=0;orthogonalLoop=1;jettySize=auto;html=1;endArrow=none;endFill=0;" parent="1" source="VyrQGjFrnwsROVNn3HrQ-9" target="VyrQGjFrnwsROVNn3HrQ-24" edge="1">
          <mxGeometry relative="1" as="geometry" />
        </mxCell>
        <mxCell id="VyrQGjFrnwsROVNn3HrQ-34" style="rounded=0;orthogonalLoop=1;jettySize=auto;html=1;endArrow=none;endFill=0;" parent="1" source="VyrQGjFrnwsROVNn3HrQ-9" target="VyrQGjFrnwsROVNn3HrQ-29" edge="1">
          <mxGeometry relative="1" as="geometry" />
        </mxCell>
        <mxCell id="VyrQGjFrnwsROVNn3HrQ-9" value="&lt;span style=&quot;color: rgb(0, 0, 0); font-family: Helvetica; font-size: 12px; font-style: normal; font-variant-ligatures: normal; font-variant-caps: normal; font-weight: 400; letter-spacing: normal; orphans: 2; text-align: center; text-indent: 0px; text-transform: none; widows: 2; word-spacing: 0px; -webkit-text-stroke-width: 0px; background-color: rgb(251, 251, 251); text-decoration-thickness: initial; text-decoration-style: initial; text-decoration-color: initial; float: none; display: inline !important;&quot;&gt;y&lt;/span&gt;&lt;sup style=&quot;border-color: var(--border-color); color: rgb(0, 0, 0); font-family: Helvetica; font-style: normal; font-variant-ligatures: normal; font-variant-caps: normal; font-weight: 400; letter-spacing: normal; orphans: 2; text-align: center; text-indent: 0px; text-transform: none; widows: 2; word-spacing: 0px; -webkit-text-stroke-width: 0px; background-color: rgb(251, 251, 251); text-decoration-thickness: initial; text-decoration-style: initial; text-decoration-color: initial;&quot;&gt;(1)&lt;/sup&gt;&lt;sub style=&quot;border-color: var(--border-color); color: rgb(0, 0, 0); font-family: Helvetica; font-style: normal; font-variant-ligatures: normal; font-variant-caps: normal; font-weight: 400; letter-spacing: normal; orphans: 2; text-align: center; text-indent: 0px; text-transform: none; widows: 2; word-spacing: 0px; -webkit-text-stroke-width: 0px; background-color: rgb(251, 251, 251); text-decoration-thickness: initial; text-decoration-style: initial; text-decoration-color: initial;&quot;&gt;1&lt;/sub&gt;&lt;br&gt;&lt;br&gt;" style="ellipse;whiteSpace=wrap;html=1;aspect=fixed;" parent="1" vertex="1">
          <mxGeometry x="590" y="915" width="10" height="10" as="geometry" />
        </mxCell>
        <mxCell id="VyrQGjFrnwsROVNn3HrQ-11" value="" style="endArrow=none;html=1;rounded=0;" parent="1" source="VyrQGjFrnwsROVNn3HrQ-6" target="VyrQGjFrnwsROVNn3HrQ-9" edge="1">
          <mxGeometry width="50" height="50" relative="1" as="geometry">
            <mxPoint x="500" y="950" as="sourcePoint" />
            <mxPoint x="550" y="900" as="targetPoint" />
          </mxGeometry>
        </mxCell>
        <mxCell id="VyrQGjFrnwsROVNn3HrQ-12" value="f" style="ellipse;whiteSpace=wrap;html=1;aspect=fixed;fillColor=#dae8fc;strokeColor=#6c8ebf;" parent="1" vertex="1">
          <mxGeometry x="540" y="980" width="40" height="40" as="geometry" />
        </mxCell>
        <mxCell id="VyrQGjFrnwsROVNn3HrQ-13" style="rounded=0;orthogonalLoop=1;jettySize=auto;html=1;endArrow=none;endFill=0;" parent="1" source="VyrQGjFrnwsROVNn3HrQ-14" target="VyrQGjFrnwsROVNn3HrQ-12" edge="1">
          <mxGeometry relative="1" as="geometry">
            <mxPoint x="520" y="987.5" as="targetPoint" />
            <mxPoint x="510" y="1012.4999999999998" as="sourcePoint" />
          </mxGeometry>
        </mxCell>
        <mxCell id="VyrQGjFrnwsROVNn3HrQ-14" value="&lt;span style=&quot;color: rgb(0, 0, 0); font-family: Helvetica; font-size: 12px; font-style: normal; font-variant-ligatures: normal; font-variant-caps: normal; font-weight: 400; letter-spacing: normal; orphans: 2; text-align: center; text-indent: 0px; text-transform: none; widows: 2; word-spacing: 0px; -webkit-text-stroke-width: 0px; background-color: rgb(251, 251, 251); text-decoration-thickness: initial; text-decoration-style: initial; text-decoration-color: initial; float: none; display: inline !important;&quot;&gt;z&lt;/span&gt;&lt;sup style=&quot;border-color: var(--border-color); color: rgb(0, 0, 0); font-family: Helvetica; font-style: normal; font-variant-ligatures: normal; font-variant-caps: normal; font-weight: 400; letter-spacing: normal; orphans: 2; text-align: center; text-indent: 0px; text-transform: none; widows: 2; word-spacing: 0px; -webkit-text-stroke-width: 0px; background-color: rgb(251, 251, 251); text-decoration-thickness: initial; text-decoration-style: initial; text-decoration-color: initial;&quot;&gt;(1)&lt;/sup&gt;&lt;sub style=&quot;border-color: var(--border-color); color: rgb(0, 0, 0); font-family: Helvetica; font-style: normal; font-variant-ligatures: normal; font-variant-caps: normal; font-weight: 400; letter-spacing: normal; orphans: 2; text-align: center; text-indent: 0px; text-transform: none; widows: 2; word-spacing: 0px; -webkit-text-stroke-width: 0px; background-color: rgb(251, 251, 251); text-decoration-thickness: initial; text-decoration-style: initial; text-decoration-color: initial;&quot;&gt;2&lt;br&gt;&lt;/sub&gt;&lt;br&gt;" style="ellipse;whiteSpace=wrap;html=1;aspect=fixed;" parent="1" vertex="1">
          <mxGeometry x="520" y="995" width="10" height="10" as="geometry" />
        </mxCell>
        <mxCell id="VyrQGjFrnwsROVNn3HrQ-35" style="rounded=0;orthogonalLoop=1;jettySize=auto;html=1;endArrow=none;endFill=0;" parent="1" source="VyrQGjFrnwsROVNn3HrQ-15" target="VyrQGjFrnwsROVNn3HrQ-24" edge="1">
          <mxGeometry relative="1" as="geometry" />
        </mxCell>
        <mxCell id="VyrQGjFrnwsROVNn3HrQ-36" style="rounded=0;orthogonalLoop=1;jettySize=auto;html=1;endArrow=none;endFill=0;" parent="1" source="VyrQGjFrnwsROVNn3HrQ-15" target="VyrQGjFrnwsROVNn3HrQ-29" edge="1">
          <mxGeometry relative="1" as="geometry" />
        </mxCell>
        <mxCell id="VyrQGjFrnwsROVNn3HrQ-15" value="&lt;span style=&quot;color: rgb(0, 0, 0); font-family: Helvetica; font-size: 12px; font-style: normal; font-variant-ligatures: normal; font-variant-caps: normal; font-weight: 400; letter-spacing: normal; orphans: 2; text-align: center; text-indent: 0px; text-transform: none; widows: 2; word-spacing: 0px; -webkit-text-stroke-width: 0px; background-color: rgb(251, 251, 251); text-decoration-thickness: initial; text-decoration-style: initial; text-decoration-color: initial; float: none; display: inline !important;&quot;&gt;y&lt;/span&gt;&lt;sup style=&quot;border-color: var(--border-color); color: rgb(0, 0, 0); font-family: Helvetica; font-style: normal; font-variant-ligatures: normal; font-variant-caps: normal; font-weight: 400; letter-spacing: normal; orphans: 2; text-align: center; text-indent: 0px; text-transform: none; widows: 2; word-spacing: 0px; -webkit-text-stroke-width: 0px; background-color: rgb(251, 251, 251); text-decoration-thickness: initial; text-decoration-style: initial; text-decoration-color: initial;&quot;&gt;(1)&lt;/sup&gt;&lt;sub style=&quot;border-color: var(--border-color); color: rgb(0, 0, 0); font-family: Helvetica; font-style: normal; font-variant-ligatures: normal; font-variant-caps: normal; font-weight: 400; letter-spacing: normal; orphans: 2; text-align: center; text-indent: 0px; text-transform: none; widows: 2; word-spacing: 0px; -webkit-text-stroke-width: 0px; background-color: rgb(251, 251, 251); text-decoration-thickness: initial; text-decoration-style: initial; text-decoration-color: initial;&quot;&gt;2&lt;/sub&gt;&lt;br&gt;&lt;br&gt;" style="ellipse;whiteSpace=wrap;html=1;aspect=fixed;" parent="1" vertex="1">
          <mxGeometry x="590" y="995" width="10" height="10" as="geometry" />
        </mxCell>
        <mxCell id="VyrQGjFrnwsROVNn3HrQ-16" value="" style="endArrow=none;html=1;rounded=0;" parent="1" source="VyrQGjFrnwsROVNn3HrQ-12" target="VyrQGjFrnwsROVNn3HrQ-15" edge="1">
          <mxGeometry width="50" height="50" relative="1" as="geometry">
            <mxPoint x="500" y="1030" as="sourcePoint" />
            <mxPoint x="550" y="980" as="targetPoint" />
          </mxGeometry>
        </mxCell>
        <mxCell id="VyrQGjFrnwsROVNn3HrQ-17" value="f" style="ellipse;whiteSpace=wrap;html=1;aspect=fixed;fillColor=#dae8fc;strokeColor=#6c8ebf;" parent="1" vertex="1">
          <mxGeometry x="540" y="1060" width="40" height="40" as="geometry" />
        </mxCell>
        <mxCell id="VyrQGjFrnwsROVNn3HrQ-18" style="rounded=0;orthogonalLoop=1;jettySize=auto;html=1;endArrow=none;endFill=0;" parent="1" source="VyrQGjFrnwsROVNn3HrQ-19" target="VyrQGjFrnwsROVNn3HrQ-17" edge="1">
          <mxGeometry relative="1" as="geometry">
            <mxPoint x="520" y="1067.5" as="targetPoint" />
            <mxPoint x="510" y="1092.4999999999998" as="sourcePoint" />
          </mxGeometry>
        </mxCell>
        <mxCell id="VyrQGjFrnwsROVNn3HrQ-19" value="&lt;span style=&quot;color: rgb(0, 0, 0); font-family: Helvetica; font-size: 12px; font-style: normal; font-variant-ligatures: normal; font-variant-caps: normal; font-weight: 400; letter-spacing: normal; orphans: 2; text-align: center; text-indent: 0px; text-transform: none; widows: 2; word-spacing: 0px; -webkit-text-stroke-width: 0px; background-color: rgb(251, 251, 251); text-decoration-thickness: initial; text-decoration-style: initial; text-decoration-color: initial; float: none; display: inline !important;&quot;&gt;z&lt;/span&gt;&lt;sup style=&quot;border-color: var(--border-color); color: rgb(0, 0, 0); font-family: Helvetica; font-style: normal; font-variant-ligatures: normal; font-variant-caps: normal; font-weight: 400; letter-spacing: normal; orphans: 2; text-align: center; text-indent: 0px; text-transform: none; widows: 2; word-spacing: 0px; -webkit-text-stroke-width: 0px; background-color: rgb(251, 251, 251); text-decoration-thickness: initial; text-decoration-style: initial; text-decoration-color: initial;&quot;&gt;(1)&lt;/sup&gt;&lt;span style=&quot;border-color: var(--border-color); color: rgb(0, 0, 0); font-family: Helvetica; font-style: normal; font-variant-ligatures: normal; font-variant-caps: normal; font-weight: 400; letter-spacing: normal; orphans: 2; text-align: center; text-indent: 0px; text-transform: none; widows: 2; word-spacing: 0px; -webkit-text-stroke-width: 0px; background-color: rgb(251, 251, 251); text-decoration-thickness: initial; text-decoration-style: initial; text-decoration-color: initial;&quot;&gt;&lt;sub&gt;3&lt;/sub&gt;&lt;/span&gt;&lt;br&gt;&lt;br&gt;" style="ellipse;whiteSpace=wrap;html=1;aspect=fixed;" parent="1" vertex="1">
          <mxGeometry x="520" y="1075" width="10" height="10" as="geometry" />
        </mxCell>
        <mxCell id="VyrQGjFrnwsROVNn3HrQ-37" style="rounded=0;orthogonalLoop=1;jettySize=auto;html=1;endArrow=none;endFill=0;" parent="1" source="VyrQGjFrnwsROVNn3HrQ-20" target="VyrQGjFrnwsROVNn3HrQ-29" edge="1">
          <mxGeometry relative="1" as="geometry" />
        </mxCell>
        <mxCell id="VyrQGjFrnwsROVNn3HrQ-71" style="rounded=0;orthogonalLoop=1;jettySize=auto;html=1;endArrow=none;endFill=0;" parent="1" source="VyrQGjFrnwsROVNn3HrQ-20" target="VyrQGjFrnwsROVNn3HrQ-24" edge="1">
          <mxGeometry relative="1" as="geometry" />
        </mxCell>
        <mxCell id="VyrQGjFrnwsROVNn3HrQ-20" value="&lt;span style=&quot;color: rgb(0, 0, 0); font-family: Helvetica; font-size: 12px; font-style: normal; font-variant-ligatures: normal; font-variant-caps: normal; font-weight: 400; letter-spacing: normal; orphans: 2; text-align: center; text-indent: 0px; text-transform: none; widows: 2; word-spacing: 0px; -webkit-text-stroke-width: 0px; background-color: rgb(251, 251, 251); text-decoration-thickness: initial; text-decoration-style: initial; text-decoration-color: initial; float: none; display: inline !important;&quot;&gt;y&lt;/span&gt;&lt;sup style=&quot;border-color: var(--border-color); color: rgb(0, 0, 0); font-family: Helvetica; font-style: normal; font-variant-ligatures: normal; font-variant-caps: normal; font-weight: 400; letter-spacing: normal; orphans: 2; text-align: center; text-indent: 0px; text-transform: none; widows: 2; word-spacing: 0px; -webkit-text-stroke-width: 0px; background-color: rgb(251, 251, 251); text-decoration-thickness: initial; text-decoration-style: initial; text-decoration-color: initial;&quot;&gt;(1)&lt;/sup&gt;&lt;span style=&quot;border-color: var(--border-color); color: rgb(0, 0, 0); font-family: Helvetica; font-style: normal; font-variant-ligatures: normal; font-variant-caps: normal; font-weight: 400; letter-spacing: normal; orphans: 2; text-align: center; text-indent: 0px; text-transform: none; widows: 2; word-spacing: 0px; -webkit-text-stroke-width: 0px; background-color: rgb(251, 251, 251); text-decoration-thickness: initial; text-decoration-style: initial; text-decoration-color: initial;&quot;&gt;&lt;sub&gt;3&lt;/sub&gt;&lt;/span&gt;&lt;br&gt;&lt;br&gt;" style="ellipse;whiteSpace=wrap;html=1;aspect=fixed;" parent="1" vertex="1">
          <mxGeometry x="590" y="1075" width="10" height="10" as="geometry" />
        </mxCell>
        <mxCell id="VyrQGjFrnwsROVNn3HrQ-21" value="" style="endArrow=none;html=1;rounded=0;" parent="1" source="VyrQGjFrnwsROVNn3HrQ-17" target="VyrQGjFrnwsROVNn3HrQ-20" edge="1">
          <mxGeometry width="50" height="50" relative="1" as="geometry">
            <mxPoint x="500" y="1110" as="sourcePoint" />
            <mxPoint x="550" y="1060" as="targetPoint" />
          </mxGeometry>
        </mxCell>
        <mxCell id="VyrQGjFrnwsROVNn3HrQ-22" value="f" style="ellipse;whiteSpace=wrap;html=1;aspect=fixed;fillColor=#dae8fc;strokeColor=#6c8ebf;" parent="1" vertex="1">
          <mxGeometry x="700" y="940" width="40" height="40" as="geometry" />
        </mxCell>
        <mxCell id="VyrQGjFrnwsROVNn3HrQ-23" style="rounded=0;orthogonalLoop=1;jettySize=auto;html=1;endArrow=none;endFill=0;" parent="1" source="VyrQGjFrnwsROVNn3HrQ-24" target="VyrQGjFrnwsROVNn3HrQ-22" edge="1">
          <mxGeometry relative="1" as="geometry">
            <mxPoint x="680" y="947.5" as="targetPoint" />
            <mxPoint x="670" y="972.4999999999998" as="sourcePoint" />
          </mxGeometry>
        </mxCell>
        <mxCell id="VyrQGjFrnwsROVNn3HrQ-24" value="&lt;span style=&quot;color: rgb(0, 0, 0); font-family: Helvetica; font-size: 12px; font-style: normal; font-variant-ligatures: normal; font-variant-caps: normal; font-weight: 400; letter-spacing: normal; orphans: 2; text-align: center; text-indent: 0px; text-transform: none; widows: 2; word-spacing: 0px; -webkit-text-stroke-width: 0px; background-color: rgb(251, 251, 251); text-decoration-thickness: initial; text-decoration-style: initial; text-decoration-color: initial; float: none; display: inline !important;&quot;&gt;z&lt;/span&gt;&lt;sup style=&quot;border-color: var(--border-color); color: rgb(0, 0, 0); font-family: Helvetica; font-style: normal; font-variant-ligatures: normal; font-variant-caps: normal; font-weight: 400; letter-spacing: normal; orphans: 2; text-align: center; text-indent: 0px; text-transform: none; widows: 2; word-spacing: 0px; -webkit-text-stroke-width: 0px; background-color: rgb(251, 251, 251); text-decoration-thickness: initial; text-decoration-style: initial; text-decoration-color: initial;&quot;&gt;(2)&lt;/sup&gt;&lt;sub style=&quot;border-color: var(--border-color); color: rgb(0, 0, 0); font-family: Helvetica; font-style: normal; font-variant-ligatures: normal; font-variant-caps: normal; font-weight: 400; letter-spacing: normal; orphans: 2; text-align: center; text-indent: 0px; text-transform: none; widows: 2; word-spacing: 0px; -webkit-text-stroke-width: 0px; background-color: rgb(251, 251, 251); text-decoration-thickness: initial; text-decoration-style: initial; text-decoration-color: initial;&quot;&gt;1&lt;/sub&gt;&lt;br&gt;&lt;br&gt;" style="ellipse;whiteSpace=wrap;html=1;aspect=fixed;" parent="1" vertex="1">
          <mxGeometry x="680" y="955" width="10" height="10" as="geometry" />
        </mxCell>
        <mxCell id="VyrQGjFrnwsROVNn3HrQ-44" style="rounded=0;orthogonalLoop=1;jettySize=auto;html=1;endArrow=none;endFill=0;" parent="1" source="VyrQGjFrnwsROVNn3HrQ-25" target="VyrQGjFrnwsROVNn3HrQ-41" edge="1">
          <mxGeometry relative="1" as="geometry" />
        </mxCell>
        <mxCell id="VyrQGjFrnwsROVNn3HrQ-25" value="&lt;span style=&quot;color: rgb(0, 0, 0); font-family: Helvetica; font-size: 12px; font-style: normal; font-variant-ligatures: normal; font-variant-caps: normal; font-weight: 400; letter-spacing: normal; orphans: 2; text-align: center; text-indent: 0px; text-transform: none; widows: 2; word-spacing: 0px; -webkit-text-stroke-width: 0px; background-color: rgb(251, 251, 251); text-decoration-thickness: initial; text-decoration-style: initial; text-decoration-color: initial; float: none; display: inline !important;&quot;&gt;y&lt;/span&gt;&lt;sup style=&quot;border-color: var(--border-color); color: rgb(0, 0, 0); font-family: Helvetica; font-style: normal; font-variant-ligatures: normal; font-variant-caps: normal; font-weight: 400; letter-spacing: normal; orphans: 2; text-align: center; text-indent: 0px; text-transform: none; widows: 2; word-spacing: 0px; -webkit-text-stroke-width: 0px; background-color: rgb(251, 251, 251); text-decoration-thickness: initial; text-decoration-style: initial; text-decoration-color: initial;&quot;&gt;(2)&lt;/sup&gt;&lt;sub style=&quot;border-color: var(--border-color); color: rgb(0, 0, 0); font-family: Helvetica; font-style: normal; font-variant-ligatures: normal; font-variant-caps: normal; font-weight: 400; letter-spacing: normal; orphans: 2; text-align: center; text-indent: 0px; text-transform: none; widows: 2; word-spacing: 0px; -webkit-text-stroke-width: 0px; background-color: rgb(251, 251, 251); text-decoration-thickness: initial; text-decoration-style: initial; text-decoration-color: initial;&quot;&gt;1&lt;/sub&gt;&lt;br&gt;&lt;br&gt;" style="ellipse;whiteSpace=wrap;html=1;aspect=fixed;" parent="1" vertex="1">
          <mxGeometry x="750" y="955" width="10" height="10" as="geometry" />
        </mxCell>
        <mxCell id="VyrQGjFrnwsROVNn3HrQ-26" value="" style="endArrow=none;html=1;rounded=0;" parent="1" source="VyrQGjFrnwsROVNn3HrQ-22" target="VyrQGjFrnwsROVNn3HrQ-25" edge="1">
          <mxGeometry width="50" height="50" relative="1" as="geometry">
            <mxPoint x="660" y="990" as="sourcePoint" />
            <mxPoint x="710" y="940" as="targetPoint" />
          </mxGeometry>
        </mxCell>
        <mxCell id="VyrQGjFrnwsROVNn3HrQ-27" value="f" style="ellipse;whiteSpace=wrap;html=1;aspect=fixed;fillColor=#dae8fc;strokeColor=#6c8ebf;" parent="1" vertex="1">
          <mxGeometry x="700" y="1020" width="40" height="40" as="geometry" />
        </mxCell>
        <mxCell id="VyrQGjFrnwsROVNn3HrQ-28" style="rounded=0;orthogonalLoop=1;jettySize=auto;html=1;endArrow=none;endFill=0;" parent="1" source="VyrQGjFrnwsROVNn3HrQ-29" target="VyrQGjFrnwsROVNn3HrQ-27" edge="1">
          <mxGeometry relative="1" as="geometry">
            <mxPoint x="680" y="1027.5" as="targetPoint" />
            <mxPoint x="670" y="1052.4999999999998" as="sourcePoint" />
          </mxGeometry>
        </mxCell>
        <mxCell id="VyrQGjFrnwsROVNn3HrQ-29" value="&lt;span style=&quot;color: rgb(0, 0, 0); font-family: Helvetica; font-size: 12px; font-style: normal; font-variant-ligatures: normal; font-variant-caps: normal; font-weight: 400; letter-spacing: normal; orphans: 2; text-align: center; text-indent: 0px; text-transform: none; widows: 2; word-spacing: 0px; -webkit-text-stroke-width: 0px; background-color: rgb(251, 251, 251); text-decoration-thickness: initial; text-decoration-style: initial; text-decoration-color: initial; float: none; display: inline !important;&quot;&gt;z&lt;/span&gt;&lt;sup style=&quot;border-color: var(--border-color); color: rgb(0, 0, 0); font-family: Helvetica; font-style: normal; font-variant-ligatures: normal; font-variant-caps: normal; font-weight: 400; letter-spacing: normal; orphans: 2; text-align: center; text-indent: 0px; text-transform: none; widows: 2; word-spacing: 0px; -webkit-text-stroke-width: 0px; background-color: rgb(251, 251, 251); text-decoration-thickness: initial; text-decoration-style: initial; text-decoration-color: initial;&quot;&gt;(2)&lt;/sup&gt;&lt;span style=&quot;border-color: var(--border-color); color: rgb(0, 0, 0); font-family: Helvetica; font-style: normal; font-variant-ligatures: normal; font-variant-caps: normal; font-weight: 400; letter-spacing: normal; orphans: 2; text-align: center; text-indent: 0px; text-transform: none; widows: 2; word-spacing: 0px; -webkit-text-stroke-width: 0px; background-color: rgb(251, 251, 251); text-decoration-thickness: initial; text-decoration-style: initial; text-decoration-color: initial;&quot;&gt;&lt;sub&gt;2&lt;/sub&gt;&lt;/span&gt;&lt;br&gt;&lt;br&gt;" style="ellipse;whiteSpace=wrap;html=1;aspect=fixed;" parent="1" vertex="1">
          <mxGeometry x="680" y="1035" width="10" height="10" as="geometry" />
        </mxCell>
        <mxCell id="VyrQGjFrnwsROVNn3HrQ-45" style="rounded=0;orthogonalLoop=1;jettySize=auto;html=1;endArrow=none;endFill=0;" parent="1" source="VyrQGjFrnwsROVNn3HrQ-30" target="VyrQGjFrnwsROVNn3HrQ-41" edge="1">
          <mxGeometry relative="1" as="geometry" />
        </mxCell>
        <mxCell id="VyrQGjFrnwsROVNn3HrQ-30" value="&lt;span style=&quot;color: rgb(0, 0, 0); font-family: Helvetica; font-size: 12px; font-style: normal; font-variant-ligatures: normal; font-variant-caps: normal; font-weight: 400; letter-spacing: normal; orphans: 2; text-align: center; text-indent: 0px; text-transform: none; widows: 2; word-spacing: 0px; -webkit-text-stroke-width: 0px; background-color: rgb(251, 251, 251); text-decoration-thickness: initial; text-decoration-style: initial; text-decoration-color: initial; float: none; display: inline !important;&quot;&gt;y&lt;/span&gt;&lt;sup style=&quot;border-color: var(--border-color); color: rgb(0, 0, 0); font-family: Helvetica; font-style: normal; font-variant-ligatures: normal; font-variant-caps: normal; font-weight: 400; letter-spacing: normal; orphans: 2; text-align: center; text-indent: 0px; text-transform: none; widows: 2; word-spacing: 0px; -webkit-text-stroke-width: 0px; background-color: rgb(251, 251, 251); text-decoration-thickness: initial; text-decoration-style: initial; text-decoration-color: initial;&quot;&gt;(2)&lt;/sup&gt;&lt;span style=&quot;border-color: var(--border-color); color: rgb(0, 0, 0); font-family: Helvetica; font-style: normal; font-variant-ligatures: normal; font-variant-caps: normal; font-weight: 400; letter-spacing: normal; orphans: 2; text-align: center; text-indent: 0px; text-transform: none; widows: 2; word-spacing: 0px; -webkit-text-stroke-width: 0px; background-color: rgb(251, 251, 251); text-decoration-thickness: initial; text-decoration-style: initial; text-decoration-color: initial;&quot;&gt;&lt;sub&gt;2&lt;br&gt;&lt;/sub&gt;&lt;/span&gt;&lt;br&gt;" style="ellipse;whiteSpace=wrap;html=1;aspect=fixed;" parent="1" vertex="1">
          <mxGeometry x="750" y="1035" width="10" height="10" as="geometry" />
        </mxCell>
        <mxCell id="VyrQGjFrnwsROVNn3HrQ-31" value="" style="endArrow=none;html=1;rounded=0;" parent="1" source="VyrQGjFrnwsROVNn3HrQ-27" target="VyrQGjFrnwsROVNn3HrQ-30" edge="1">
          <mxGeometry width="50" height="50" relative="1" as="geometry">
            <mxPoint x="660" y="1070" as="sourcePoint" />
            <mxPoint x="710" y="1020" as="targetPoint" />
          </mxGeometry>
        </mxCell>
        <mxCell id="VyrQGjFrnwsROVNn3HrQ-39" value="f" style="ellipse;whiteSpace=wrap;html=1;aspect=fixed;fillColor=#dae8fc;strokeColor=#6c8ebf;" parent="1" vertex="1">
          <mxGeometry x="860" y="980" width="40" height="40" as="geometry" />
        </mxCell>
        <mxCell id="VyrQGjFrnwsROVNn3HrQ-40" style="rounded=0;orthogonalLoop=1;jettySize=auto;html=1;endArrow=none;endFill=0;" parent="1" source="VyrQGjFrnwsROVNn3HrQ-41" target="VyrQGjFrnwsROVNn3HrQ-39" edge="1">
          <mxGeometry relative="1" as="geometry">
            <mxPoint x="840" y="987.5" as="targetPoint" />
            <mxPoint x="830" y="1012.4999999999998" as="sourcePoint" />
          </mxGeometry>
        </mxCell>
        <mxCell id="VyrQGjFrnwsROVNn3HrQ-41" value="&lt;span style=&quot;color: rgb(0, 0, 0); font-family: Helvetica; font-size: 12px; font-style: normal; font-variant-ligatures: normal; font-variant-caps: normal; font-weight: 400; letter-spacing: normal; orphans: 2; text-align: center; text-indent: 0px; text-transform: none; widows: 2; word-spacing: 0px; -webkit-text-stroke-width: 0px; background-color: rgb(251, 251, 251); text-decoration-thickness: initial; text-decoration-style: initial; text-decoration-color: initial; float: none; display: inline !important;&quot;&gt;z&lt;/span&gt;&lt;sup style=&quot;border-color: var(--border-color); color: rgb(0, 0, 0); font-family: Helvetica; font-style: normal; font-variant-ligatures: normal; font-variant-caps: normal; font-weight: 400; letter-spacing: normal; orphans: 2; text-align: center; text-indent: 0px; text-transform: none; widows: 2; word-spacing: 0px; -webkit-text-stroke-width: 0px; background-color: rgb(251, 251, 251); text-decoration-thickness: initial; text-decoration-style: initial; text-decoration-color: initial;&quot;&gt;(3)&lt;/sup&gt;&lt;sub style=&quot;border-color: var(--border-color); color: rgb(0, 0, 0); font-family: Helvetica; font-style: normal; font-variant-ligatures: normal; font-variant-caps: normal; font-weight: 400; letter-spacing: normal; orphans: 2; text-align: center; text-indent: 0px; text-transform: none; widows: 2; word-spacing: 0px; -webkit-text-stroke-width: 0px; background-color: rgb(251, 251, 251); text-decoration-thickness: initial; text-decoration-style: initial; text-decoration-color: initial;&quot;&gt;1&lt;/sub&gt;&lt;br&gt;&lt;br&gt;" style="ellipse;whiteSpace=wrap;html=1;aspect=fixed;" parent="1" vertex="1">
          <mxGeometry x="840" y="995" width="10" height="10" as="geometry" />
        </mxCell>
        <mxCell id="VyrQGjFrnwsROVNn3HrQ-42" value="&lt;span style=&quot;color: rgb(0, 0, 0); font-family: Helvetica; font-size: 12px; font-style: normal; font-variant-ligatures: normal; font-variant-caps: normal; font-weight: 400; letter-spacing: normal; orphans: 2; text-align: center; text-indent: 0px; text-transform: none; widows: 2; word-spacing: 0px; -webkit-text-stroke-width: 0px; background-color: rgb(251, 251, 251); text-decoration-thickness: initial; text-decoration-style: initial; text-decoration-color: initial; float: none; display: inline !important;&quot;&gt;y&lt;/span&gt;&lt;sup style=&quot;border-color: var(--border-color); color: rgb(0, 0, 0); font-family: Helvetica; font-style: normal; font-variant-ligatures: normal; font-variant-caps: normal; font-weight: 400; letter-spacing: normal; orphans: 2; text-align: center; text-indent: 0px; text-transform: none; widows: 2; word-spacing: 0px; -webkit-text-stroke-width: 0px; background-color: rgb(251, 251, 251); text-decoration-thickness: initial; text-decoration-style: initial; text-decoration-color: initial;&quot;&gt;(3)&lt;/sup&gt;&lt;sub style=&quot;border-color: var(--border-color); color: rgb(0, 0, 0); font-family: Helvetica; font-style: normal; font-variant-ligatures: normal; font-variant-caps: normal; font-weight: 400; letter-spacing: normal; orphans: 2; text-align: center; text-indent: 0px; text-transform: none; widows: 2; word-spacing: 0px; -webkit-text-stroke-width: 0px; background-color: rgb(251, 251, 251); text-decoration-thickness: initial; text-decoration-style: initial; text-decoration-color: initial;&quot;&gt;1&lt;/sub&gt;&lt;br&gt;&lt;br&gt;" style="ellipse;whiteSpace=wrap;html=1;aspect=fixed;" parent="1" vertex="1">
          <mxGeometry x="910" y="995" width="10" height="10" as="geometry" />
        </mxCell>
        <mxCell id="VyrQGjFrnwsROVNn3HrQ-43" value="" style="endArrow=none;html=1;rounded=0;" parent="1" source="VyrQGjFrnwsROVNn3HrQ-39" target="VyrQGjFrnwsROVNn3HrQ-42" edge="1">
          <mxGeometry width="50" height="50" relative="1" as="geometry">
            <mxPoint x="820" y="1030" as="sourcePoint" />
            <mxPoint x="870" y="980" as="targetPoint" />
          </mxGeometry>
        </mxCell>
        <mxCell id="VyrQGjFrnwsROVNn3HrQ-48" value="register" style="rounded=0;whiteSpace=wrap;html=1;rotation=-90;fillColor=#fff2cc;strokeColor=#d6b656;opacity=50;" parent="1" vertex="1">
          <mxGeometry x="510" y="990" width="240" height="20" as="geometry" />
        </mxCell>
        <mxCell id="VyrQGjFrnwsROVNn3HrQ-50" style="edgeStyle=orthogonalEdgeStyle;rounded=0;orthogonalLoop=1;jettySize=auto;html=1;endArrow=none;endFill=0;" parent="1" source="VyrQGjFrnwsROVNn3HrQ-49" target="VyrQGjFrnwsROVNn3HrQ-7" edge="1">
          <mxGeometry relative="1" as="geometry" />
        </mxCell>
        <mxCell id="VyrQGjFrnwsROVNn3HrQ-55" style="rounded=0;orthogonalLoop=1;jettySize=auto;html=1;endArrow=none;endFill=0;" parent="1" source="VyrQGjFrnwsROVNn3HrQ-49" target="VyrQGjFrnwsROVNn3HrQ-14" edge="1">
          <mxGeometry relative="1" as="geometry" />
        </mxCell>
        <mxCell id="VyrQGjFrnwsROVNn3HrQ-60" style="rounded=0;orthogonalLoop=1;jettySize=auto;html=1;endArrow=none;endFill=0;" parent="1" source="VyrQGjFrnwsROVNn3HrQ-49" target="VyrQGjFrnwsROVNn3HrQ-19" edge="1">
          <mxGeometry relative="1" as="geometry" />
        </mxCell>
        <mxCell id="VyrQGjFrnwsROVNn3HrQ-49" value="x&lt;sub&gt;1&lt;br&gt;&lt;/sub&gt;" style="ellipse;whiteSpace=wrap;html=1;aspect=fixed;fillColor=#647687;fontColor=#ffffff;strokeColor=#314354;" parent="1" vertex="1">
          <mxGeometry x="430" y="910" width="20" height="20" as="geometry" />
        </mxCell>
        <mxCell id="VyrQGjFrnwsROVNn3HrQ-54" style="edgeStyle=orthogonalEdgeStyle;rounded=0;orthogonalLoop=1;jettySize=auto;html=1;endArrow=none;endFill=0;" parent="1" source="VyrQGjFrnwsROVNn3HrQ-51" target="VyrQGjFrnwsROVNn3HrQ-14" edge="1">
          <mxGeometry relative="1" as="geometry" />
        </mxCell>
        <mxCell id="VyrQGjFrnwsROVNn3HrQ-57" style="rounded=0;orthogonalLoop=1;jettySize=auto;html=1;endArrow=none;endFill=0;" parent="1" source="VyrQGjFrnwsROVNn3HrQ-51" target="VyrQGjFrnwsROVNn3HrQ-19" edge="1">
          <mxGeometry relative="1" as="geometry" />
        </mxCell>
        <mxCell id="VyrQGjFrnwsROVNn3HrQ-58" style="rounded=0;orthogonalLoop=1;jettySize=auto;html=1;endArrow=none;endFill=0;" parent="1" source="VyrQGjFrnwsROVNn3HrQ-51" target="VyrQGjFrnwsROVNn3HrQ-7" edge="1">
          <mxGeometry relative="1" as="geometry" />
        </mxCell>
        <mxCell id="VyrQGjFrnwsROVNn3HrQ-51" value="x&lt;sub&gt;2&lt;/sub&gt;" style="ellipse;whiteSpace=wrap;html=1;aspect=fixed;fillColor=#647687;fontColor=#ffffff;strokeColor=#314354;" parent="1" vertex="1">
          <mxGeometry x="430" y="990" width="20" height="20" as="geometry" />
        </mxCell>
        <mxCell id="VyrQGjFrnwsROVNn3HrQ-53" style="edgeStyle=orthogonalEdgeStyle;rounded=0;orthogonalLoop=1;jettySize=auto;html=1;endArrow=none;endFill=0;" parent="1" source="VyrQGjFrnwsROVNn3HrQ-52" target="VyrQGjFrnwsROVNn3HrQ-19" edge="1">
          <mxGeometry relative="1" as="geometry" />
        </mxCell>
        <mxCell id="VyrQGjFrnwsROVNn3HrQ-56" style="rounded=0;orthogonalLoop=1;jettySize=auto;html=1;endArrow=none;endFill=0;" parent="1" source="VyrQGjFrnwsROVNn3HrQ-52" target="VyrQGjFrnwsROVNn3HrQ-7" edge="1">
          <mxGeometry relative="1" as="geometry" />
        </mxCell>
        <mxCell id="VyrQGjFrnwsROVNn3HrQ-59" style="rounded=0;orthogonalLoop=1;jettySize=auto;html=1;endArrow=none;endFill=0;" parent="1" source="VyrQGjFrnwsROVNn3HrQ-52" target="VyrQGjFrnwsROVNn3HrQ-14" edge="1">
          <mxGeometry relative="1" as="geometry" />
        </mxCell>
        <mxCell id="VyrQGjFrnwsROVNn3HrQ-52" value="x&lt;sub&gt;3&lt;/sub&gt;" style="ellipse;whiteSpace=wrap;html=1;aspect=fixed;fillColor=#647687;fontColor=#ffffff;strokeColor=#314354;" parent="1" vertex="1">
          <mxGeometry x="430" y="1070" width="20" height="20" as="geometry" />
        </mxCell>
        <mxCell id="VyrQGjFrnwsROVNn3HrQ-61" value="" style="endArrow=classic;html=1;rounded=0;" parent="1" target="VyrQGjFrnwsROVNn3HrQ-49" edge="1">
          <mxGeometry width="50" height="50" relative="1" as="geometry">
            <mxPoint x="360" y="920" as="sourcePoint" />
            <mxPoint x="420" y="900" as="targetPoint" />
          </mxGeometry>
        </mxCell>
        <mxCell id="VyrQGjFrnwsROVNn3HrQ-62" value="" style="endArrow=classic;html=1;rounded=0;" parent="1" edge="1">
          <mxGeometry width="50" height="50" relative="1" as="geometry">
            <mxPoint x="360" y="1000" as="sourcePoint" />
            <mxPoint x="430" y="1000" as="targetPoint" />
          </mxGeometry>
        </mxCell>
        <mxCell id="VyrQGjFrnwsROVNn3HrQ-63" value="" style="endArrow=classic;html=1;rounded=0;" parent="1" edge="1">
          <mxGeometry width="50" height="50" relative="1" as="geometry">
            <mxPoint x="360" y="1080" as="sourcePoint" />
            <mxPoint x="430" y="1080" as="targetPoint" />
          </mxGeometry>
        </mxCell>
        <mxCell id="VyrQGjFrnwsROVNn3HrQ-64" value="register" style="rounded=0;whiteSpace=wrap;html=1;rotation=-90;fillColor=#fff2cc;strokeColor=#d6b656;" parent="1" vertex="1">
          <mxGeometry x="670" y="990" width="240" height="20" as="geometry" />
        </mxCell>
        <mxCell id="VyrQGjFrnwsROVNn3HrQ-66" value="" style="endArrow=classic;html=1;rounded=0;" parent="1" edge="1">
          <mxGeometry width="50" height="50" relative="1" as="geometry">
            <mxPoint x="920" y="1000" as="sourcePoint" />
            <mxPoint x="1000" y="1000" as="targetPoint" />
          </mxGeometry>
        </mxCell>
        <mxCell id="VyrQGjFrnwsROVNn3HrQ-65" value="register" style="rounded=0;whiteSpace=wrap;html=1;rotation=-90;fillColor=#fff2cc;strokeColor=#d6b656;" parent="1" vertex="1">
          <mxGeometry x="830" y="990" width="240" height="20" as="geometry" />
        </mxCell>
        <mxCell id="VyrQGjFrnwsROVNn3HrQ-68" value="w&lt;sup&gt;(2)&lt;/sup&gt;&lt;sub&gt;11&lt;/sub&gt;" style="text;html=1;strokeColor=none;fillColor=none;align=center;verticalAlign=middle;whiteSpace=wrap;rounded=0;" parent="1" vertex="1">
          <mxGeometry x="620" y="910" width="60" height="30" as="geometry" />
        </mxCell>
        <mxCell id="VyrQGjFrnwsROVNn3HrQ-69" value="w&lt;sup&gt;(2)&lt;/sup&gt;&lt;sub&gt;22&lt;/sub&gt;" style="text;html=1;strokeColor=none;fillColor=none;align=center;verticalAlign=middle;whiteSpace=wrap;rounded=0;" parent="1" vertex="1">
          <mxGeometry x="620" y="1030" width="60" height="30" as="geometry" />
        </mxCell>
        <mxCell id="VyrQGjFrnwsROVNn3HrQ-70" value="w&lt;sup&gt;(2)&lt;/sup&gt;&lt;sub&gt;31&lt;/sub&gt;" style="text;html=1;strokeColor=none;fillColor=none;align=center;verticalAlign=middle;whiteSpace=wrap;rounded=0;" parent="1" vertex="1">
          <mxGeometry x="620" y="970" width="60" height="30" as="geometry" />
        </mxCell>
        <mxCell id="VyrQGjFrnwsROVNn3HrQ-72" value="w&lt;sup&gt;(2)&lt;/sup&gt;&lt;sub&gt;32&lt;/sub&gt;" style="text;html=1;strokeColor=none;fillColor=none;align=center;verticalAlign=middle;whiteSpace=wrap;rounded=0;" parent="1" vertex="1">
          <mxGeometry x="620" y="1060" width="60" height="30" as="geometry" />
        </mxCell>
        <mxCell id="VyrQGjFrnwsROVNn3HrQ-73" value="w&lt;sup style=&quot;border-color: var(--border-color);&quot;&gt;(2)&lt;/sup&gt;&lt;sub style=&quot;border-color: var(--border-color);&quot;&gt;21&lt;/sub&gt;" style="text;html=1;strokeColor=none;fillColor=none;align=center;verticalAlign=middle;whiteSpace=wrap;rounded=0;" parent="1" vertex="1">
          <mxGeometry x="620" y="940" width="60" height="30" as="geometry" />
        </mxCell>
        <mxCell id="VyrQGjFrnwsROVNn3HrQ-74" value="w&lt;sup&gt;(2)&lt;/sup&gt;&lt;sub&gt;12&lt;/sub&gt;" style="text;html=1;strokeColor=none;fillColor=none;align=center;verticalAlign=middle;whiteSpace=wrap;rounded=0;" parent="1" vertex="1">
          <mxGeometry x="620" y="1000" width="60" height="30" as="geometry" />
        </mxCell>
        <mxCell id="VyrQGjFrnwsROVNn3HrQ-77" value="" style="rounded=0;whiteSpace=wrap;html=1;fillColor=#f5f5f5;strokeColor=#666666;opacity=50;fontColor=#333333;" parent="1" vertex="1">
          <mxGeometry x="640" y="880" width="140" height="240" as="geometry" />
        </mxCell>
        <mxCell id="VyrQGjFrnwsROVNn3HrQ-78" value="" style="rounded=0;whiteSpace=wrap;html=1;fillColor=#f5f5f5;strokeColor=#666666;opacity=50;fontColor=#333333;" parent="1" vertex="1">
          <mxGeometry x="480" y="880" width="140" height="240" as="geometry" />
        </mxCell>
        <mxCell id="VyrQGjFrnwsROVNn3HrQ-79" value="" style="rounded=0;whiteSpace=wrap;html=1;fillColor=#f5f5f5;strokeColor=#666666;opacity=50;fontColor=#333333;" parent="1" vertex="1">
          <mxGeometry x="800" y="880" width="140" height="240" as="geometry" />
        </mxCell>
        <mxCell id="z2SttC8pkeUnPTJP8_GX-2" value="reg of weights" style="rounded=0;whiteSpace=wrap;html=1;fillColor=#fff2cc;strokeColor=#d6b656;" parent="1" vertex="1">
          <mxGeometry x="480" y="80" width="80" height="120" as="geometry" />
        </mxCell>
        <mxCell id="z2SttC8pkeUnPTJP8_GX-15" value="enableMemory" style="rounded=0;orthogonalLoop=1;jettySize=auto;html=1;dashed=1;edgeStyle=orthogonalEdgeStyle;" parent="1" target="cXM49ELqJlq6IrReiL05-115" edge="1">
          <mxGeometry relative="1" as="geometry">
            <mxPoint x="-110" y="40" as="sourcePoint" />
            <mxPoint x="800" y="220.37" as="targetPoint" />
            <Array as="points">
              <mxPoint x="930" y="40" />
            </Array>
          </mxGeometry>
        </mxCell>
        <mxCell id="z2SttC8pkeUnPTJP8_GX-42" value="yPointerControllerStart" style="rounded=0;orthogonalLoop=1;jettySize=auto;html=1;dashed=1;" parent="1" edge="1">
          <mxGeometry relative="1" as="geometry">
            <mxPoint x="190" y="440" as="targetPoint" />
            <mxPoint x="-120" y="440" as="sourcePoint" />
          </mxGeometry>
        </mxCell>
        <mxCell id="ueNnbmR6eegOaz5hOX_r-92" value="weightPointerControllerStart" style="rounded=0;orthogonalLoop=1;jettySize=auto;html=1;dashed=1;" parent="1" edge="1">
          <mxGeometry relative="1" as="geometry">
            <mxPoint x="-120" y="120" as="sourcePoint" />
            <mxPoint x="190" y="120" as="targetPoint" />
          </mxGeometry>
        </mxCell>
        <mxCell id="qKlhIR7ZFw9CMBVbFgvy-2" value="cleanMemory" style="rounded=0;orthogonalLoop=1;jettySize=auto;html=1;dashed=1;edgeStyle=orthogonalEdgeStyle;" parent="1" target="cXM49ELqJlq6IrReiL05-115" edge="1">
          <mxGeometry relative="1" as="geometry">
            <Array as="points">
              <mxPoint x="940" y="60" />
            </Array>
            <mxPoint x="710" y="160" as="targetPoint" />
            <mxPoint x="-110" y="60" as="sourcePoint" />
          </mxGeometry>
        </mxCell>
        <mxCell id="z2SttC8pkeUnPTJP8_GX-3" value="control" style="rounded=0;whiteSpace=wrap;html=1;fillColor=#d5e8d4;strokeColor=#82b366;" parent="1" vertex="1">
          <mxGeometry x="-160" width="40" height="520" as="geometry" />
        </mxCell>
        <mxCell id="z2SttC8pkeUnPTJP8_GX-9" value="&lt;ul&gt;&lt;li&gt;every n cycles change the direction&lt;/li&gt;&lt;li&gt;need to somehow control de memory of the acumulator&lt;/li&gt;&lt;/ul&gt;" style="text;html=1;strokeColor=none;fillColor=none;align=left;verticalAlign=middle;whiteSpace=wrap;rounded=0;" parent="1" vertex="1">
          <mxGeometry x="910" y="130" width="170" height="30" as="geometry" />
        </mxCell>
        <mxCell id="z2SttC8pkeUnPTJP8_GX-12" value="" style="shape=curlyBracket;whiteSpace=wrap;html=1;rounded=1;labelPosition=left;verticalLabelPosition=middle;align=right;verticalAlign=middle;rotation=90;" parent="1" vertex="1">
          <mxGeometry x="550" y="780" width="20" height="160" as="geometry" />
        </mxCell>
        <mxCell id="z2SttC8pkeUnPTJP8_GX-13" value="" style="shape=curlyBracket;whiteSpace=wrap;html=1;rounded=1;labelPosition=left;verticalLabelPosition=middle;align=right;verticalAlign=middle;rotation=90;" parent="1" vertex="1">
          <mxGeometry x="710" y="780" width="20" height="160" as="geometry" />
        </mxCell>
        <mxCell id="z2SttC8pkeUnPTJP8_GX-14" value="" style="shape=curlyBracket;whiteSpace=wrap;html=1;rounded=1;labelPosition=left;verticalLabelPosition=middle;align=right;verticalAlign=middle;rotation=90;" parent="1" vertex="1">
          <mxGeometry x="870" y="780" width="20" height="160" as="geometry" />
        </mxCell>
        <mxCell id="z2SttC8pkeUnPTJP8_GX-20" value="getPreviousY" style="rounded=0;orthogonalLoop=1;jettySize=auto;html=1;" parent="1" source="ueNnbmR6eegOaz5hOX_r-89" target="cXM49ELqJlq6IrReiL05-42" edge="1">
          <mxGeometry relative="1" as="geometry">
            <mxPoint x="330" y="130.37" as="sourcePoint" />
          </mxGeometry>
        </mxCell>
        <mxCell id="z2SttC8pkeUnPTJP8_GX-33" value="control" style="rounded=0;whiteSpace=wrap;html=1;fillColor=#d5e8d4;strokeColor=#82b366;" parent="1" vertex="1">
          <mxGeometry x="480" y="1160" width="480" height="40" as="geometry" />
        </mxCell>
        <mxCell id="z2SttC8pkeUnPTJP8_GX-35" value="startFlag" style="endArrow=classic;html=1;rounded=0;dashed=1;" parent="1" edge="1">
          <mxGeometry width="50" height="50" relative="1" as="geometry">
            <mxPoint x="520" y="1160" as="sourcePoint" />
            <mxPoint x="520" y="1120" as="targetPoint" />
          </mxGeometry>
        </mxCell>
        <mxCell id="z2SttC8pkeUnPTJP8_GX-37" value="startFlag" style="endArrow=classic;html=1;rounded=0;dashed=1;" parent="1" edge="1">
          <mxGeometry width="50" height="50" relative="1" as="geometry">
            <mxPoint x="680" y="1160" as="sourcePoint" />
            <mxPoint x="680" y="1120" as="targetPoint" />
          </mxGeometry>
        </mxCell>
        <mxCell id="z2SttC8pkeUnPTJP8_GX-39" value="startFlag" style="endArrow=classic;html=1;rounded=0;dashed=1;" parent="1" edge="1">
          <mxGeometry width="50" height="50" relative="1" as="geometry">
            <mxPoint x="840" y="1160" as="sourcePoint" />
            <mxPoint x="840" y="1120" as="targetPoint" />
          </mxGeometry>
        </mxCell>
        <mxCell id="z2SttC8pkeUnPTJP8_GX-43" value="finishFlag" style="endArrow=classic;html=1;rounded=0;dashed=1;" parent="1" edge="1">
          <mxGeometry width="50" height="50" relative="1" as="geometry">
            <mxPoint x="600" y="1120" as="sourcePoint" />
            <mxPoint x="600" y="1160" as="targetPoint" />
          </mxGeometry>
        </mxCell>
        <mxCell id="z2SttC8pkeUnPTJP8_GX-44" value="finishFlag" style="endArrow=classic;html=1;rounded=0;dashed=1;" parent="1" edge="1">
          <mxGeometry width="50" height="50" relative="1" as="geometry">
            <mxPoint x="760" y="1120" as="sourcePoint" />
            <mxPoint x="760" y="1160" as="targetPoint" />
          </mxGeometry>
        </mxCell>
        <mxCell id="z2SttC8pkeUnPTJP8_GX-45" value="finishFlag" style="endArrow=classic;html=1;rounded=0;dashed=1;" parent="1" edge="1">
          <mxGeometry width="50" height="50" relative="1" as="geometry">
            <mxPoint x="920" y="1120" as="sourcePoint" />
            <mxPoint x="920" y="1160" as="targetPoint" />
          </mxGeometry>
        </mxCell>
        <mxCell id="z2SttC8pkeUnPTJP8_GX-46" value="finishFlag" style="endArrow=classic;html=1;rounded=0;dashed=1;exitX=0;exitY=0.75;exitDx=0;exitDy=0;" parent="1" edge="1">
          <mxGeometry width="50" height="50" relative="1" as="geometry">
            <mxPoint x="-160" y="279.71" as="sourcePoint" />
            <mxPoint x="-240" y="279.71" as="targetPoint" />
          </mxGeometry>
        </mxCell>
        <mxCell id="ueNnbmR6eegOaz5hOX_r-7" value="w&lt;sup&gt;(1)&lt;/sup&gt;&lt;sub&gt;11&lt;/sub&gt;" style="rounded=0;whiteSpace=wrap;html=1;fillColor=#f5f5f5;strokeColor=#666666;gradientColor=#b3b3b3;" parent="1" vertex="1">
          <mxGeometry x="40" y="1200" width="80" height="20" as="geometry" />
        </mxCell>
        <mxCell id="ueNnbmR6eegOaz5hOX_r-9" value="w&lt;sup&gt;(1)&lt;/sup&gt;&lt;sub&gt;21&lt;/sub&gt;" style="rounded=0;whiteSpace=wrap;html=1;" parent="1" vertex="1">
          <mxGeometry x="40" y="1220" width="80" height="20" as="geometry" />
        </mxCell>
        <mxCell id="ueNnbmR6eegOaz5hOX_r-10" value="w&lt;sup&gt;(1)&lt;/sup&gt;&lt;sub&gt;31&lt;/sub&gt;" style="rounded=0;whiteSpace=wrap;html=1;" parent="1" vertex="1">
          <mxGeometry x="40" y="1240" width="80" height="20" as="geometry" />
        </mxCell>
        <mxCell id="ueNnbmR6eegOaz5hOX_r-11" value="w&lt;sup&gt;(1)&lt;/sup&gt;&lt;sub&gt;12&lt;/sub&gt;" style="rounded=0;whiteSpace=wrap;html=1;" parent="1" vertex="1">
          <mxGeometry x="40" y="1260" width="80" height="20" as="geometry" />
        </mxCell>
        <mxCell id="ueNnbmR6eegOaz5hOX_r-12" value="w&lt;sup&gt;(1)&lt;/sup&gt;&lt;sub&gt;22&lt;/sub&gt;" style="rounded=0;whiteSpace=wrap;html=1;" parent="1" vertex="1">
          <mxGeometry x="40" y="1280" width="80" height="20" as="geometry" />
        </mxCell>
        <mxCell id="ueNnbmR6eegOaz5hOX_r-13" value="w&lt;sup&gt;(1)&lt;/sup&gt;&lt;sub&gt;32&lt;/sub&gt;" style="rounded=0;whiteSpace=wrap;html=1;" parent="1" vertex="1">
          <mxGeometry x="40" y="1300" width="80" height="20" as="geometry" />
        </mxCell>
        <mxCell id="ueNnbmR6eegOaz5hOX_r-16" value="y&lt;sup&gt;(1)&lt;/sup&gt;&lt;sub&gt;1&lt;/sub&gt;" style="rounded=0;whiteSpace=wrap;html=1;fillColor=#f5f5f5;strokeColor=#666666;gradientColor=#b3b3b3;" parent="1" vertex="1">
          <mxGeometry x="240" y="1340" width="80" height="20" as="geometry" />
        </mxCell>
        <mxCell id="ueNnbmR6eegOaz5hOX_r-17" value="y&lt;sup&gt;(1)&lt;/sup&gt;&lt;sub&gt;2&lt;/sub&gt;" style="rounded=0;whiteSpace=wrap;html=1;" parent="1" vertex="1">
          <mxGeometry x="240" y="1360" width="80" height="20" as="geometry" />
        </mxCell>
        <mxCell id="ueNnbmR6eegOaz5hOX_r-18" value="y&lt;sup&gt;(1)&lt;/sup&gt;&lt;sub&gt;3&lt;/sub&gt;" style="rounded=0;whiteSpace=wrap;html=1;" parent="1" vertex="1">
          <mxGeometry x="240" y="1380" width="80" height="20" as="geometry" />
        </mxCell>
        <mxCell id="ueNnbmR6eegOaz5hOX_r-19" value="y&lt;sup&gt;(2)&lt;/sup&gt;&lt;sub&gt;1&lt;/sub&gt;" style="rounded=0;whiteSpace=wrap;html=1;fillColor=#f5f5f5;strokeColor=#666666;gradientColor=#b3b3b3;" parent="1" vertex="1">
          <mxGeometry x="240" y="1400" width="80" height="20" as="geometry" />
        </mxCell>
        <mxCell id="ueNnbmR6eegOaz5hOX_r-20" value="y&lt;sup&gt;(2)&lt;/sup&gt;&lt;sub&gt;2&lt;/sub&gt;" style="rounded=0;whiteSpace=wrap;html=1;" parent="1" vertex="1">
          <mxGeometry x="240" y="1420" width="80" height="20" as="geometry" />
        </mxCell>
        <mxCell id="ueNnbmR6eegOaz5hOX_r-21" value="y&lt;sup&gt;(1)&lt;/sup&gt;&lt;sub&gt;1&lt;/sub&gt;" style="rounded=0;whiteSpace=wrap;html=1;" parent="1" vertex="1">
          <mxGeometry x="240" y="1440" width="80" height="20" as="geometry" />
        </mxCell>
        <mxCell id="ueNnbmR6eegOaz5hOX_r-22" value="w&lt;sup&gt;(1)&lt;/sup&gt;&lt;sub&gt;13&lt;/sub&gt;" style="rounded=0;whiteSpace=wrap;html=1;" parent="1" vertex="1">
          <mxGeometry x="40" y="1320" width="80" height="20" as="geometry" />
        </mxCell>
        <mxCell id="ueNnbmR6eegOaz5hOX_r-23" value="w&lt;sup&gt;(1)&lt;/sup&gt;&lt;sub&gt;23&lt;/sub&gt;" style="rounded=0;whiteSpace=wrap;html=1;" parent="1" vertex="1">
          <mxGeometry x="40" y="1340" width="80" height="20" as="geometry" />
        </mxCell>
        <mxCell id="ueNnbmR6eegOaz5hOX_r-24" value="w&lt;sup&gt;(1)&lt;/sup&gt;&lt;sub&gt;33&lt;/sub&gt;" style="rounded=0;whiteSpace=wrap;html=1;" parent="1" vertex="1">
          <mxGeometry x="40" y="1360" width="80" height="20" as="geometry" />
        </mxCell>
        <mxCell id="ueNnbmR6eegOaz5hOX_r-25" value="w&lt;sup&gt;(2)&lt;/sup&gt;&lt;sub&gt;11&lt;/sub&gt;" style="rounded=0;whiteSpace=wrap;html=1;fillColor=#f5f5f5;strokeColor=#666666;gradientColor=#b3b3b3;" parent="1" vertex="1">
          <mxGeometry x="40" y="1380" width="80" height="20" as="geometry" />
        </mxCell>
        <mxCell id="ueNnbmR6eegOaz5hOX_r-26" value="w&lt;sup&gt;(2)&lt;/sup&gt;&lt;sub&gt;21&lt;/sub&gt;" style="rounded=0;whiteSpace=wrap;html=1;" parent="1" vertex="1">
          <mxGeometry x="40" y="1400" width="80" height="20" as="geometry" />
        </mxCell>
        <mxCell id="ueNnbmR6eegOaz5hOX_r-27" value="w&lt;sup&gt;(2)&lt;/sup&gt;&lt;sub&gt;31&lt;/sub&gt;" style="rounded=0;whiteSpace=wrap;html=1;" parent="1" vertex="1">
          <mxGeometry x="40" y="1420" width="80" height="20" as="geometry" />
        </mxCell>
        <mxCell id="ueNnbmR6eegOaz5hOX_r-28" value="w&lt;sup&gt;(2)&lt;/sup&gt;&lt;sub&gt;12&lt;/sub&gt;" style="rounded=0;whiteSpace=wrap;html=1;" parent="1" vertex="1">
          <mxGeometry x="40" y="1440" width="80" height="20" as="geometry" />
        </mxCell>
        <mxCell id="ueNnbmR6eegOaz5hOX_r-29" value="w&lt;sup&gt;(2)&lt;/sup&gt;&lt;sub&gt;22&lt;/sub&gt;" style="rounded=0;whiteSpace=wrap;html=1;" parent="1" vertex="1">
          <mxGeometry x="40" y="1460" width="80" height="20" as="geometry" />
        </mxCell>
        <mxCell id="ueNnbmR6eegOaz5hOX_r-30" value="w&lt;sup&gt;(2)&lt;/sup&gt;&lt;sub&gt;32&lt;/sub&gt;" style="rounded=0;whiteSpace=wrap;html=1;" parent="1" vertex="1">
          <mxGeometry x="40" y="1480" width="80" height="20" as="geometry" />
        </mxCell>
        <mxCell id="ueNnbmR6eegOaz5hOX_r-31" value="w&lt;sup&gt;(3)&lt;/sup&gt;&lt;sub&gt;11&lt;/sub&gt;" style="rounded=0;whiteSpace=wrap;html=1;fillColor=#f5f5f5;strokeColor=#666666;gradientColor=#b3b3b3;" parent="1" vertex="1">
          <mxGeometry x="40" y="1500" width="80" height="20" as="geometry" />
        </mxCell>
        <mxCell id="ueNnbmR6eegOaz5hOX_r-32" value="w&lt;sup&gt;(3)&lt;/sup&gt;&lt;sub&gt;21&lt;/sub&gt;" style="rounded=0;whiteSpace=wrap;html=1;" parent="1" vertex="1">
          <mxGeometry x="40" y="1520" width="80" height="20" as="geometry" />
        </mxCell>
        <mxCell id="ueNnbmR6eegOaz5hOX_r-33" value="x&lt;sub&gt;3&lt;/sub&gt;" style="rounded=0;whiteSpace=wrap;html=1;" parent="1" vertex="1">
          <mxGeometry x="240" y="1320" width="80" height="20" as="geometry" />
        </mxCell>
        <mxCell id="ueNnbmR6eegOaz5hOX_r-34" value="x&lt;span style=&quot;font-size: 10px;&quot;&gt;2&lt;/span&gt;" style="rounded=0;whiteSpace=wrap;html=1;" parent="1" vertex="1">
          <mxGeometry x="240" y="1300" width="80" height="20" as="geometry" />
        </mxCell>
        <mxCell id="ueNnbmR6eegOaz5hOX_r-35" value="x&lt;sub&gt;1&lt;/sub&gt;" style="rounded=0;whiteSpace=wrap;html=1;fillColor=#f5f5f5;strokeColor=#666666;gradientColor=#b3b3b3;" parent="1" vertex="1">
          <mxGeometry x="240" y="1280" width="80" height="20" as="geometry" />
        </mxCell>
        <mxCell id="ueNnbmR6eegOaz5hOX_r-36" value="" style="endArrow=none;html=1;rounded=0;exitX=1;exitY=0.5;exitDx=0;exitDy=0;entryX=0;entryY=0.5;entryDx=0;entryDy=0;" parent="1" source="ueNnbmR6eegOaz5hOX_r-7" target="ueNnbmR6eegOaz5hOX_r-35" edge="1">
          <mxGeometry width="50" height="50" relative="1" as="geometry">
            <mxPoint x="360" y="1130" as="sourcePoint" />
            <mxPoint x="410" y="1080" as="targetPoint" />
          </mxGeometry>
        </mxCell>
        <mxCell id="ueNnbmR6eegOaz5hOX_r-37" value="" style="endArrow=none;html=1;rounded=0;exitX=1;exitY=0.5;exitDx=0;exitDy=0;entryX=0;entryY=0.5;entryDx=0;entryDy=0;" parent="1" source="ueNnbmR6eegOaz5hOX_r-9" target="ueNnbmR6eegOaz5hOX_r-34" edge="1">
          <mxGeometry width="50" height="50" relative="1" as="geometry">
            <mxPoint x="360" y="1130" as="sourcePoint" />
            <mxPoint x="410" y="1080" as="targetPoint" />
          </mxGeometry>
        </mxCell>
        <mxCell id="ueNnbmR6eegOaz5hOX_r-38" value="" style="endArrow=none;html=1;rounded=0;exitX=1;exitY=0.5;exitDx=0;exitDy=0;entryX=0;entryY=0.5;entryDx=0;entryDy=0;" parent="1" source="ueNnbmR6eegOaz5hOX_r-10" target="ueNnbmR6eegOaz5hOX_r-33" edge="1">
          <mxGeometry width="50" height="50" relative="1" as="geometry">
            <mxPoint x="360" y="1150" as="sourcePoint" />
            <mxPoint x="410" y="1100" as="targetPoint" />
          </mxGeometry>
        </mxCell>
        <mxCell id="ueNnbmR6eegOaz5hOX_r-39" value="" style="endArrow=none;html=1;rounded=0;exitX=1;exitY=0.5;exitDx=0;exitDy=0;entryX=0;entryY=0.5;entryDx=0;entryDy=0;" parent="1" source="ueNnbmR6eegOaz5hOX_r-11" target="ueNnbmR6eegOaz5hOX_r-35" edge="1">
          <mxGeometry width="50" height="50" relative="1" as="geometry">
            <mxPoint x="360" y="1150" as="sourcePoint" />
            <mxPoint x="410" y="1100" as="targetPoint" />
          </mxGeometry>
        </mxCell>
        <mxCell id="ueNnbmR6eegOaz5hOX_r-40" value="" style="endArrow=none;html=1;rounded=0;exitX=1;exitY=0.5;exitDx=0;exitDy=0;entryX=0;entryY=0.5;entryDx=0;entryDy=0;" parent="1" source="ueNnbmR6eegOaz5hOX_r-12" target="ueNnbmR6eegOaz5hOX_r-34" edge="1">
          <mxGeometry width="50" height="50" relative="1" as="geometry">
            <mxPoint x="360" y="1150" as="sourcePoint" />
            <mxPoint x="410" y="1100" as="targetPoint" />
          </mxGeometry>
        </mxCell>
        <mxCell id="ueNnbmR6eegOaz5hOX_r-41" value="" style="endArrow=none;html=1;rounded=0;exitX=1;exitY=0.5;exitDx=0;exitDy=0;" parent="1" source="ueNnbmR6eegOaz5hOX_r-13" edge="1">
          <mxGeometry width="50" height="50" relative="1" as="geometry">
            <mxPoint x="360" y="1150" as="sourcePoint" />
            <mxPoint x="240" y="1330" as="targetPoint" />
          </mxGeometry>
        </mxCell>
        <mxCell id="ueNnbmR6eegOaz5hOX_r-43" value="" style="endArrow=none;html=1;rounded=0;exitX=1;exitY=0.5;exitDx=0;exitDy=0;entryX=0;entryY=0.5;entryDx=0;entryDy=0;" parent="1" source="ueNnbmR6eegOaz5hOX_r-22" target="ueNnbmR6eegOaz5hOX_r-35" edge="1">
          <mxGeometry width="50" height="50" relative="1" as="geometry">
            <mxPoint x="190" y="1240" as="sourcePoint" />
            <mxPoint x="240" y="1190" as="targetPoint" />
          </mxGeometry>
        </mxCell>
        <mxCell id="ueNnbmR6eegOaz5hOX_r-44" value="" style="endArrow=none;html=1;rounded=0;exitX=1;exitY=0.5;exitDx=0;exitDy=0;entryX=0;entryY=0.5;entryDx=0;entryDy=0;" parent="1" source="ueNnbmR6eegOaz5hOX_r-23" target="ueNnbmR6eegOaz5hOX_r-34" edge="1">
          <mxGeometry width="50" height="50" relative="1" as="geometry">
            <mxPoint x="190" y="1240" as="sourcePoint" />
            <mxPoint x="240" y="1190" as="targetPoint" />
          </mxGeometry>
        </mxCell>
        <mxCell id="ueNnbmR6eegOaz5hOX_r-45" value="" style="endArrow=none;html=1;rounded=0;exitX=1;exitY=0.5;exitDx=0;exitDy=0;entryX=0;entryY=0.5;entryDx=0;entryDy=0;" parent="1" source="ueNnbmR6eegOaz5hOX_r-24" target="ueNnbmR6eegOaz5hOX_r-33" edge="1">
          <mxGeometry width="50" height="50" relative="1" as="geometry">
            <mxPoint x="190" y="1280" as="sourcePoint" />
            <mxPoint x="240" y="1230" as="targetPoint" />
          </mxGeometry>
        </mxCell>
        <mxCell id="ueNnbmR6eegOaz5hOX_r-46" value="" style="curved=1;endArrow=classic;html=1;rounded=0;entryX=1;entryY=0.5;entryDx=0;entryDy=0;" parent="1" source="ueNnbmR6eegOaz5hOX_r-70" target="ueNnbmR6eegOaz5hOX_r-16" edge="1">
          <mxGeometry width="50" height="50" relative="1" as="geometry">
            <mxPoint x="360" y="1360" as="sourcePoint" />
            <mxPoint x="370" y="1400" as="targetPoint" />
            <Array as="points">
              <mxPoint x="380" y="1340" />
            </Array>
          </mxGeometry>
        </mxCell>
        <mxCell id="ueNnbmR6eegOaz5hOX_r-50" value="" style="curved=1;endArrow=classic;html=1;rounded=0;entryX=1;entryY=0.5;entryDx=0;entryDy=0;" parent="1" source="ueNnbmR6eegOaz5hOX_r-70" target="ueNnbmR6eegOaz5hOX_r-17" edge="1">
          <mxGeometry width="50" height="50" relative="1" as="geometry">
            <mxPoint x="320" y="1208" as="sourcePoint" />
            <mxPoint x="290" y="1236" as="targetPoint" />
            <Array as="points">
              <mxPoint x="400" y="1350" />
            </Array>
          </mxGeometry>
        </mxCell>
        <mxCell id="ueNnbmR6eegOaz5hOX_r-51" value="" style="curved=1;endArrow=classic;html=1;rounded=0;entryX=1;entryY=0.5;entryDx=0;entryDy=0;" parent="1" source="ueNnbmR6eegOaz5hOX_r-70" target="ueNnbmR6eegOaz5hOX_r-18" edge="1">
          <mxGeometry width="50" height="50" relative="1" as="geometry">
            <mxPoint x="320" y="1208" as="sourcePoint" />
            <mxPoint x="290" y="1253" as="targetPoint" />
            <Array as="points">
              <mxPoint x="430" y="1360" />
            </Array>
          </mxGeometry>
        </mxCell>
        <mxCell id="ueNnbmR6eegOaz5hOX_r-52" value="" style="endArrow=none;html=1;rounded=0;exitX=1;exitY=0.5;exitDx=0;exitDy=0;entryX=0;entryY=0.5;entryDx=0;entryDy=0;" parent="1" source="ueNnbmR6eegOaz5hOX_r-27" target="ueNnbmR6eegOaz5hOX_r-18" edge="1">
          <mxGeometry width="50" height="50" relative="1" as="geometry">
            <mxPoint x="278" y="1460" as="sourcePoint" />
            <mxPoint x="382.5" y="1320" as="targetPoint" />
          </mxGeometry>
        </mxCell>
        <mxCell id="ueNnbmR6eegOaz5hOX_r-53" value="" style="endArrow=none;html=1;rounded=0;exitX=1;exitY=0.5;exitDx=0;exitDy=0;entryX=0;entryY=0.5;entryDx=0;entryDy=0;" parent="1" source="ueNnbmR6eegOaz5hOX_r-26" target="ueNnbmR6eegOaz5hOX_r-17" edge="1">
          <mxGeometry width="50" height="50" relative="1" as="geometry">
            <mxPoint x="227.5" y="1460" as="sourcePoint" />
            <mxPoint x="332.5" y="1320" as="targetPoint" />
          </mxGeometry>
        </mxCell>
        <mxCell id="ueNnbmR6eegOaz5hOX_r-54" value="" style="endArrow=none;html=1;rounded=0;exitX=1;exitY=0.5;exitDx=0;exitDy=0;entryX=0;entryY=0.5;entryDx=0;entryDy=0;" parent="1" source="ueNnbmR6eegOaz5hOX_r-25" target="ueNnbmR6eegOaz5hOX_r-16" edge="1">
          <mxGeometry width="50" height="50" relative="1" as="geometry">
            <mxPoint x="250" y="1410" as="sourcePoint" />
            <mxPoint x="350" y="1310" as="targetPoint" />
          </mxGeometry>
        </mxCell>
        <mxCell id="ueNnbmR6eegOaz5hOX_r-56" value="" style="curved=1;endArrow=classic;html=1;rounded=0;entryX=1;entryY=0.5;entryDx=0;entryDy=0;" parent="1" source="ueNnbmR6eegOaz5hOX_r-71" target="ueNnbmR6eegOaz5hOX_r-19" edge="1">
          <mxGeometry width="50" height="50" relative="1" as="geometry">
            <mxPoint x="360" y="1428" as="sourcePoint" />
            <mxPoint x="330" y="1456" as="targetPoint" />
            <Array as="points">
              <mxPoint x="380" y="1400" />
            </Array>
          </mxGeometry>
        </mxCell>
        <mxCell id="ueNnbmR6eegOaz5hOX_r-57" value="" style="endArrow=none;html=1;rounded=0;exitX=1;exitY=0.5;exitDx=0;exitDy=0;entryX=0;entryY=0.5;entryDx=0;entryDy=0;" parent="1" source="ueNnbmR6eegOaz5hOX_r-28" target="ueNnbmR6eegOaz5hOX_r-16" edge="1">
          <mxGeometry width="50" height="50" relative="1" as="geometry">
            <mxPoint x="250" y="1410" as="sourcePoint" />
            <mxPoint x="350" y="1310" as="targetPoint" />
          </mxGeometry>
        </mxCell>
        <mxCell id="ueNnbmR6eegOaz5hOX_r-58" value="" style="endArrow=none;html=1;rounded=0;exitX=1;exitY=0.5;exitDx=0;exitDy=0;entryX=0;entryY=0.5;entryDx=0;entryDy=0;" parent="1" source="ueNnbmR6eegOaz5hOX_r-29" target="ueNnbmR6eegOaz5hOX_r-17" edge="1">
          <mxGeometry width="50" height="50" relative="1" as="geometry">
            <mxPoint x="137" y="1410" as="sourcePoint" />
            <mxPoint x="243" y="1250" as="targetPoint" />
          </mxGeometry>
        </mxCell>
        <mxCell id="ueNnbmR6eegOaz5hOX_r-59" value="" style="endArrow=none;html=1;rounded=0;exitX=1;exitY=0.5;exitDx=0;exitDy=0;entryX=0;entryY=0.5;entryDx=0;entryDy=0;" parent="1" source="ueNnbmR6eegOaz5hOX_r-30" target="ueNnbmR6eegOaz5hOX_r-18" edge="1">
          <mxGeometry width="50" height="50" relative="1" as="geometry">
            <mxPoint x="137" y="1430" as="sourcePoint" />
            <mxPoint x="243" y="1270" as="targetPoint" />
          </mxGeometry>
        </mxCell>
        <mxCell id="ueNnbmR6eegOaz5hOX_r-60" value="" style="curved=1;endArrow=classic;html=1;rounded=0;entryX=1;entryY=0.5;entryDx=0;entryDy=0;" parent="1" source="ueNnbmR6eegOaz5hOX_r-71" target="ueNnbmR6eegOaz5hOX_r-20" edge="1">
          <mxGeometry width="50" height="50" relative="1" as="geometry">
            <mxPoint x="360" y="1388" as="sourcePoint" />
            <mxPoint x="330" y="1416" as="targetPoint" />
            <Array as="points">
              <mxPoint x="420" y="1400" />
            </Array>
          </mxGeometry>
        </mxCell>
        <mxCell id="ueNnbmR6eegOaz5hOX_r-62" value="" style="endArrow=none;html=1;rounded=0;exitX=1;exitY=0.5;exitDx=0;exitDy=0;entryX=0;entryY=0.5;entryDx=0;entryDy=0;" parent="1" source="ueNnbmR6eegOaz5hOX_r-31" target="ueNnbmR6eegOaz5hOX_r-19" edge="1">
          <mxGeometry width="50" height="50" relative="1" as="geometry">
            <mxPoint x="157" y="1520" as="sourcePoint" />
            <mxPoint x="263" y="1480" as="targetPoint" />
          </mxGeometry>
        </mxCell>
        <mxCell id="ueNnbmR6eegOaz5hOX_r-63" value="" style="endArrow=none;html=1;rounded=0;exitX=1;exitY=0.5;exitDx=0;exitDy=0;entryX=0;entryY=0.5;entryDx=0;entryDy=0;" parent="1" source="ueNnbmR6eegOaz5hOX_r-32" target="ueNnbmR6eegOaz5hOX_r-20" edge="1">
          <mxGeometry width="50" height="50" relative="1" as="geometry">
            <mxPoint x="157" y="1530" as="sourcePoint" />
            <mxPoint x="263" y="1490" as="targetPoint" />
          </mxGeometry>
        </mxCell>
        <mxCell id="ueNnbmR6eegOaz5hOX_r-64" value="" style="curved=1;endArrow=classic;html=1;rounded=0;" parent="1" source="ueNnbmR6eegOaz5hOX_r-72" target="ueNnbmR6eegOaz5hOX_r-21" edge="1">
          <mxGeometry width="50" height="50" relative="1" as="geometry">
            <mxPoint x="360" y="1458" as="sourcePoint" />
            <mxPoint x="330" y="1486" as="targetPoint" />
            <Array as="points">
              <mxPoint x="380" y="1450" />
            </Array>
          </mxGeometry>
        </mxCell>
        <mxCell id="ueNnbmR6eegOaz5hOX_r-65" value="y&lt;sup&gt;(i-1)&lt;/sup&gt; pointer" style="rounded=0;whiteSpace=wrap;html=1;" parent="1" vertex="1">
          <mxGeometry x="1040" y="920" width="80" height="20" as="geometry" />
        </mxCell>
        <mxCell id="ueNnbmR6eegOaz5hOX_r-67" value="3X3" style="labelPosition=right;align=left;strokeWidth=1;shape=mxgraph.mockup.markup.curlyBrace;html=1;shadow=0;dashed=0;strokeColor=#999999;direction=north;" parent="1" vertex="1">
          <mxGeometry x="-10" y="1200" width="20" height="180" as="geometry" />
        </mxCell>
        <mxCell id="ueNnbmR6eegOaz5hOX_r-68" value="3X2" style="labelPosition=right;align=left;strokeWidth=1;shape=mxgraph.mockup.markup.curlyBrace;html=1;shadow=0;dashed=0;strokeColor=#999999;direction=north;" parent="1" vertex="1">
          <mxGeometry x="-10" y="1380" width="20" height="120" as="geometry" />
        </mxCell>
        <mxCell id="ueNnbmR6eegOaz5hOX_r-69" value="2X1" style="labelPosition=right;align=left;strokeWidth=1;shape=mxgraph.mockup.markup.curlyBrace;html=1;shadow=0;dashed=0;strokeColor=#999999;direction=north;" parent="1" vertex="1">
          <mxGeometry x="-10" y="1500" width="20" height="40" as="geometry" />
        </mxCell>
        <mxCell id="ueNnbmR6eegOaz5hOX_r-70" value="" style="labelPosition=right;align=left;strokeWidth=1;shape=mxgraph.mockup.markup.curlyBrace;html=1;shadow=0;dashed=0;strokeColor=#999999;direction=north;rotation=-180;" parent="1" vertex="1">
          <mxGeometry x="330" y="1280" width="20" height="60" as="geometry" />
        </mxCell>
        <mxCell id="ueNnbmR6eegOaz5hOX_r-71" value="" style="labelPosition=right;align=left;strokeWidth=1;shape=mxgraph.mockup.markup.curlyBrace;html=1;shadow=0;dashed=0;strokeColor=#999999;direction=north;rotation=-180;" parent="1" vertex="1">
          <mxGeometry x="330" y="1340" width="20" height="60" as="geometry" />
        </mxCell>
        <mxCell id="ueNnbmR6eegOaz5hOX_r-72" value="" style="labelPosition=right;align=left;strokeWidth=1;shape=mxgraph.mockup.markup.curlyBrace;html=1;shadow=0;dashed=0;strokeColor=#999999;direction=north;rotation=-180;" parent="1" vertex="1">
          <mxGeometry x="330" y="1400" width="20" height="40" as="geometry" />
        </mxCell>
        <mxCell id="ueNnbmR6eegOaz5hOX_r-73" value="w&lt;sup&gt;(i)&lt;/sup&gt; p" style="shape=flexArrow;endArrow=classic;html=1;rounded=0;fillColor=#647687;strokeColor=#314354;" parent="1" edge="1">
          <mxGeometry width="50" height="50" relative="1" as="geometry">
            <mxPoint y="1210" as="sourcePoint" />
            <mxPoint x="40" y="1210" as="targetPoint" />
          </mxGeometry>
        </mxCell>
        <mxCell id="ueNnbmR6eegOaz5hOX_r-74" value="y&lt;sup&gt;(i-1)&lt;/sup&gt; p" style="shape=flexArrow;endArrow=classic;html=1;rounded=0;fillColor=#647687;strokeColor=#314354;" parent="1" edge="1">
          <mxGeometry width="50" height="50" relative="1" as="geometry">
            <mxPoint x="200" y="1289.89" as="sourcePoint" />
            <mxPoint x="240" y="1289.89" as="targetPoint" />
          </mxGeometry>
        </mxCell>
        <mxCell id="ueNnbmR6eegOaz5hOX_r-75" value="y&lt;sup&gt;(i)&lt;/sup&gt; p" style="shape=flexArrow;endArrow=classic;html=1;rounded=0;fillColor=#647687;strokeColor=#314354;" parent="1" edge="1">
          <mxGeometry width="50" height="50" relative="1" as="geometry">
            <mxPoint x="200" y="1349.89" as="sourcePoint" />
            <mxPoint x="240" y="1349.89" as="targetPoint" />
          </mxGeometry>
        </mxCell>
        <mxCell id="ueNnbmR6eegOaz5hOX_r-78" value="w&lt;sup&gt;(i)&lt;/sup&gt; pointer" style="rounded=0;whiteSpace=wrap;html=1;" parent="1" vertex="1">
          <mxGeometry x="1040" y="880" width="80" height="20" as="geometry" />
        </mxCell>
        <mxCell id="ueNnbmR6eegOaz5hOX_r-79" value="y&lt;sup&gt;(i)&lt;/sup&gt; pointer" style="rounded=0;whiteSpace=wrap;html=1;" parent="1" vertex="1">
          <mxGeometry x="1040" y="960" width="80" height="20" as="geometry" />
        </mxCell>
        <mxCell id="ueNnbmR6eegOaz5hOX_r-88" value="enableRead" style="rounded=0;orthogonalLoop=1;jettySize=auto;html=1;dashed=1;" parent="1" edge="1">
          <mxGeometry relative="1" as="geometry">
            <mxPoint x="470" y="280" as="targetPoint" />
            <mxPoint x="370" y="280" as="sourcePoint" />
          </mxGeometry>
        </mxCell>
        <mxCell id="ueNnbmR6eegOaz5hOX_r-83" value="enableRead" style="edgeStyle=orthogonalEdgeStyle;rounded=0;orthogonalLoop=1;jettySize=auto;html=1;dashed=1;" parent="1" edge="1">
          <mxGeometry relative="1" as="geometry">
            <mxPoint x="370" y="120" as="sourcePoint" />
            <mxPoint x="470" y="120" as="targetPoint" />
          </mxGeometry>
        </mxCell>
        <mxCell id="ueNnbmR6eegOaz5hOX_r-87" value="enableWrite" style="rounded=0;orthogonalLoop=1;jettySize=auto;html=1;dashed=1;" parent="1" edge="1">
          <mxGeometry relative="1" as="geometry">
            <mxPoint x="370" y="440" as="sourcePoint" />
            <mxPoint x="470" y="440" as="targetPoint" />
          </mxGeometry>
        </mxCell>
        <mxCell id="ueNnbmR6eegOaz5hOX_r-89" value="reg of y" style="rounded=0;whiteSpace=wrap;html=1;fillColor=#fff2cc;strokeColor=#d6b656;" parent="1" vertex="1">
          <mxGeometry x="480" y="240" width="80" height="280" as="geometry" />
        </mxCell>
        <mxCell id="qC4-J7t-1yfe6dGJMUkF-1" value="startFlag" style="endArrow=classic;html=1;rounded=0;dashed=1;entryX=0;entryY=0.25;entryDx=0;entryDy=0;" parent="1" edge="1">
          <mxGeometry width="50" height="50" relative="1" as="geometry">
            <mxPoint x="-240" y="259.43" as="sourcePoint" />
            <mxPoint x="-160" y="259.43" as="targetPoint" />
          </mxGeometry>
        </mxCell>
        <mxCell id="t8-O5Rs3jxAdFhY2lbRl-13" value="address" style="rounded=0;orthogonalLoop=1;jettySize=auto;html=1;exitX=1;exitY=0.5;exitDx=0;exitDy=0;" parent="1" source="NHjjjnDl3UXlkUb6KNAD-69" edge="1">
          <mxGeometry relative="1" as="geometry">
            <mxPoint x="470" y="320" as="targetPoint" />
            <mxPoint x="370" y="320" as="sourcePoint" />
          </mxGeometry>
        </mxCell>
        <mxCell id="t8-O5Rs3jxAdFhY2lbRl-14" value="address" style="rounded=0;orthogonalLoop=1;jettySize=auto;html=1;exitX=0.975;exitY=0.522;exitDx=0;exitDy=0;exitPerimeter=0;" parent="1" source="NHjjjnDl3UXlkUb6KNAD-71" edge="1">
          <mxGeometry relative="1" as="geometry">
            <mxPoint x="370" y="480" as="sourcePoint" />
            <mxPoint x="470" y="480" as="targetPoint" />
          </mxGeometry>
        </mxCell>
        <mxCell id="t8-O5Rs3jxAdFhY2lbRl-15" value="address&amp;nbsp;" style="edgeStyle=orthogonalEdgeStyle;rounded=0;orthogonalLoop=1;jettySize=auto;html=1;exitX=1;exitY=0.5;exitDx=0;exitDy=0;" parent="1" source="NHjjjnDl3UXlkUb6KNAD-68" edge="1">
          <mxGeometry relative="1" as="geometry">
            <mxPoint x="370" y="160" as="sourcePoint" />
            <mxPoint x="470" y="160" as="targetPoint" />
          </mxGeometry>
        </mxCell>
        <mxCell id="8xFIW8AcWVv0tGsdDjNo-1" value="previousYControllerStart" style="endArrow=classic;html=1;rounded=0;dashed=1;" parent="1" edge="1">
          <mxGeometry width="50" height="50" relative="1" as="geometry">
            <mxPoint x="-120" y="280" as="sourcePoint" />
            <mxPoint x="190" y="280" as="targetPoint" />
          </mxGeometry>
        </mxCell>
        <mxCell id="8xFIW8AcWVv0tGsdDjNo-2" value="endNeuron" style="endArrow=classic;html=1;rounded=0;dashed=1;" parent="1" edge="1">
          <mxGeometry width="50" height="50" relative="1" as="geometry">
            <mxPoint x="70" y="390" as="sourcePoint" />
            <mxPoint x="-110" y="390" as="targetPoint" />
          </mxGeometry>
        </mxCell>
        <mxCell id="8xFIW8AcWVv0tGsdDjNo-3" value="endLayer" style="endArrow=classic;html=1;rounded=0;dashed=1;" parent="1" edge="1">
          <mxGeometry width="50" height="50" relative="1" as="geometry">
            <mxPoint x="70" y="380" as="sourcePoint" />
            <mxPoint x="-110" y="380" as="targetPoint" />
          </mxGeometry>
        </mxCell>
        <mxCell id="8xFIW8AcWVv0tGsdDjNo-5" value="weightPointerControllerEnd" style="rounded=0;orthogonalLoop=1;jettySize=auto;html=1;dashed=1;" parent="1" edge="1">
          <mxGeometry relative="1" as="geometry">
            <mxPoint x="190" y="140" as="sourcePoint" />
            <mxPoint x="-120" y="140" as="targetPoint" />
          </mxGeometry>
        </mxCell>
        <mxCell id="8xFIW8AcWVv0tGsdDjNo-6" value="previousYControllerEnd" style="rounded=0;orthogonalLoop=1;jettySize=auto;html=1;dashed=1;" parent="1" edge="1">
          <mxGeometry relative="1" as="geometry">
            <mxPoint x="190" y="300" as="sourcePoint" />
            <mxPoint x="-120" y="300" as="targetPoint" />
          </mxGeometry>
        </mxCell>
        <mxCell id="8xFIW8AcWVv0tGsdDjNo-7" value="yPointerControllerEnd" style="rounded=0;orthogonalLoop=1;jettySize=auto;html=1;dashed=1;" parent="1" edge="1">
          <mxGeometry relative="1" as="geometry">
            <mxPoint x="190" y="460" as="sourcePoint" />
            <mxPoint x="-120" y="460" as="targetPoint" />
          </mxGeometry>
        </mxCell>
        <mxCell id="8xFIW8AcWVv0tGsdDjNo-9" value="firtPreviousYPointer (y&lt;sup&gt;(i-1)&lt;/sup&gt;&lt;sub&gt;1&lt;/sub&gt; pointer" style="endArrow=classic;html=1;rounded=0;" parent="1" edge="1">
          <mxGeometry width="50" height="50" relative="1" as="geometry">
            <mxPoint x="-40" y="480" as="sourcePoint" />
            <mxPoint x="190" y="480" as="targetPoint" />
          </mxGeometry>
        </mxCell>
        <mxCell id="8xFIW8AcWVv0tGsdDjNo-20" value="t" style="endArrow=classic;html=1;rounded=0;" parent="1" edge="1">
          <mxGeometry width="50" height="50" relative="1" as="geometry">
            <mxPoint x="1000" y="2000" as="sourcePoint" />
            <mxPoint x="1770" y="2000" as="targetPoint" />
            <mxPoint as="offset" />
          </mxGeometry>
        </mxCell>
        <mxCell id="8xFIW8AcWVv0tGsdDjNo-27" value="" style="endArrow=none;html=1;rounded=0;fillColor=#fff2cc;strokeColor=#d6b656;" parent="1" edge="1">
          <mxGeometry width="50" height="50" relative="1" as="geometry">
            <mxPoint x="1000" y="2000" as="sourcePoint" />
            <mxPoint x="1000" y="1440" as="targetPoint" />
          </mxGeometry>
        </mxCell>
        <mxCell id="8xFIW8AcWVv0tGsdDjNo-28" value="L1" style="rounded=0;whiteSpace=wrap;html=1;fillColor=#a0522d;strokeColor=#6D1F00;fontColor=#ffffff;" parent="1" vertex="1">
          <mxGeometry x="1000" y="1420" width="80" height="20" as="geometry" />
        </mxCell>
        <mxCell id="8xFIW8AcWVv0tGsdDjNo-34" value="L2" style="rounded=0;whiteSpace=wrap;html=1;fillColor=#a0522d;strokeColor=#6D1F00;fontColor=#ffffff;" parent="1" vertex="1">
          <mxGeometry x="1080" y="1420" width="40" height="20" as="geometry" />
        </mxCell>
        <mxCell id="8xFIW8AcWVv0tGsdDjNo-37" value="L3" style="rounded=0;whiteSpace=wrap;html=1;fillColor=#a0522d;strokeColor=#6D1F00;fontColor=#ffffff;" parent="1" vertex="1">
          <mxGeometry x="1120" y="1420" width="20" height="20" as="geometry" />
        </mxCell>
        <mxCell id="8xFIW8AcWVv0tGsdDjNo-43" value="data 1" style="text;html=1;strokeColor=none;fillColor=none;align=center;verticalAlign=middle;whiteSpace=wrap;rounded=0;" parent="1" vertex="1">
          <mxGeometry x="940" y="1420" width="60" height="30" as="geometry" />
        </mxCell>
        <mxCell id="8xFIW8AcWVv0tGsdDjNo-44" value="data 2" style="text;html=1;strokeColor=none;fillColor=none;align=center;verticalAlign=middle;whiteSpace=wrap;rounded=0;" parent="1" vertex="1">
          <mxGeometry x="940" y="1460" width="60" height="30" as="geometry" />
        </mxCell>
        <mxCell id="8xFIW8AcWVv0tGsdDjNo-45" value="data 3" style="text;html=1;strokeColor=none;fillColor=none;align=center;verticalAlign=middle;whiteSpace=wrap;rounded=0;" parent="1" vertex="1">
          <mxGeometry x="940" y="1500" width="60" height="30" as="geometry" />
        </mxCell>
        <mxCell id="8xFIW8AcWVv0tGsdDjNo-46" value="L1" style="rounded=0;whiteSpace=wrap;html=1;fillColor=#e3c800;strokeColor=#B09500;fontColor=#000000;" parent="1" vertex="1">
          <mxGeometry x="1120" y="1460" width="80" height="20" as="geometry" />
        </mxCell>
        <mxCell id="8xFIW8AcWVv0tGsdDjNo-47" value="L2" style="rounded=0;whiteSpace=wrap;html=1;fillColor=#e3c800;strokeColor=#B09500;fontColor=#000000;" parent="1" vertex="1">
          <mxGeometry x="1200" y="1460" width="40" height="20" as="geometry" />
        </mxCell>
        <mxCell id="8xFIW8AcWVv0tGsdDjNo-48" value="L3" style="rounded=0;whiteSpace=wrap;html=1;fillColor=#e3c800;strokeColor=#B09500;fontColor=#000000;" parent="1" vertex="1">
          <mxGeometry x="1240" y="1460" width="20" height="20" as="geometry" />
        </mxCell>
        <mxCell id="8xFIW8AcWVv0tGsdDjNo-49" value="L1" style="rounded=0;whiteSpace=wrap;html=1;fillColor=#6d8764;strokeColor=#3A5431;fontColor=#ffffff;" parent="1" vertex="1">
          <mxGeometry x="1240" y="1500" width="80" height="20" as="geometry" />
        </mxCell>
        <mxCell id="8xFIW8AcWVv0tGsdDjNo-50" value="L2" style="rounded=0;whiteSpace=wrap;html=1;fillColor=#6d8764;strokeColor=#3A5431;fontColor=#ffffff;" parent="1" vertex="1">
          <mxGeometry x="1320" y="1500" width="40" height="20" as="geometry" />
        </mxCell>
        <mxCell id="8xFIW8AcWVv0tGsdDjNo-51" value="L3" style="rounded=0;whiteSpace=wrap;html=1;fillColor=#6d8764;strokeColor=#3A5431;fontColor=#ffffff;" parent="1" vertex="1">
          <mxGeometry x="1360" y="1500" width="20" height="20" as="geometry" />
        </mxCell>
        <mxCell id="8xFIW8AcWVv0tGsdDjNo-54" value="L1" style="rounded=0;whiteSpace=wrap;html=1;fillColor=#a0522d;strokeColor=#6D1F00;fontColor=#ffffff;" parent="1" vertex="1">
          <mxGeometry x="1000" y="1620" width="40" height="20" as="geometry" />
        </mxCell>
        <mxCell id="8xFIW8AcWVv0tGsdDjNo-55" value="L2" style="rounded=0;whiteSpace=wrap;html=1;fillColor=#a0522d;strokeColor=#6D1F00;fontColor=#ffffff;" parent="1" vertex="1">
          <mxGeometry x="1040" y="1620" width="80" height="20" as="geometry" />
        </mxCell>
        <mxCell id="8xFIW8AcWVv0tGsdDjNo-56" value="L3" style="rounded=0;whiteSpace=wrap;html=1;fillColor=#a0522d;strokeColor=#6D1F00;fontColor=#ffffff;" parent="1" vertex="1">
          <mxGeometry x="1120" y="1620" width="20" height="20" as="geometry" />
        </mxCell>
        <mxCell id="8xFIW8AcWVv0tGsdDjNo-57" value="data 1" style="text;html=1;strokeColor=none;fillColor=none;align=center;verticalAlign=middle;whiteSpace=wrap;rounded=0;" parent="1" vertex="1">
          <mxGeometry x="940" y="1620" width="60" height="30" as="geometry" />
        </mxCell>
        <mxCell id="8xFIW8AcWVv0tGsdDjNo-58" value="data 2" style="text;html=1;strokeColor=none;fillColor=none;align=center;verticalAlign=middle;whiteSpace=wrap;rounded=0;" parent="1" vertex="1">
          <mxGeometry x="940" y="1660" width="60" height="30" as="geometry" />
        </mxCell>
        <mxCell id="8xFIW8AcWVv0tGsdDjNo-59" value="data 3" style="text;html=1;strokeColor=none;fillColor=none;align=center;verticalAlign=middle;whiteSpace=wrap;rounded=0;" parent="1" vertex="1">
          <mxGeometry x="940" y="1700" width="60" height="30" as="geometry" />
        </mxCell>
        <mxCell id="8xFIW8AcWVv0tGsdDjNo-66" value="L1" style="rounded=0;whiteSpace=wrap;html=1;fillColor=#e3c800;strokeColor=#B09500;fontColor=#000000;" parent="1" vertex="1">
          <mxGeometry x="1120" y="1660" width="40" height="20" as="geometry" />
        </mxCell>
        <mxCell id="8xFIW8AcWVv0tGsdDjNo-67" value="L2" style="rounded=0;whiteSpace=wrap;html=1;fillColor=#e3c800;strokeColor=#B09500;fontColor=#000000;" parent="1" vertex="1">
          <mxGeometry x="1160" y="1660" width="80" height="20" as="geometry" />
        </mxCell>
        <mxCell id="8xFIW8AcWVv0tGsdDjNo-68" value="L3" style="rounded=0;whiteSpace=wrap;html=1;fillColor=#e3c800;strokeColor=#B09500;fontColor=#000000;" parent="1" vertex="1">
          <mxGeometry x="1240" y="1660" width="20" height="20" as="geometry" />
        </mxCell>
        <mxCell id="8xFIW8AcWVv0tGsdDjNo-69" value="L1" style="rounded=0;whiteSpace=wrap;html=1;fillColor=#6d8764;strokeColor=#3A5431;fontColor=#ffffff;" parent="1" vertex="1">
          <mxGeometry x="1240" y="1700" width="40" height="20" as="geometry" />
        </mxCell>
        <mxCell id="8xFIW8AcWVv0tGsdDjNo-70" value="L2" style="rounded=0;whiteSpace=wrap;html=1;fillColor=#6d8764;strokeColor=#3A5431;fontColor=#ffffff;" parent="1" vertex="1">
          <mxGeometry x="1280" y="1700" width="80" height="20" as="geometry" />
        </mxCell>
        <mxCell id="8xFIW8AcWVv0tGsdDjNo-71" value="L3" style="rounded=0;whiteSpace=wrap;html=1;fillColor=#6d8764;strokeColor=#3A5431;fontColor=#ffffff;" parent="1" vertex="1">
          <mxGeometry x="1360" y="1700" width="20" height="20" as="geometry" />
        </mxCell>
        <mxCell id="8xFIW8AcWVv0tGsdDjNo-72" value="" style="endArrow=none;html=1;rounded=0;dashed=1;" parent="1" edge="1">
          <mxGeometry width="50" height="50" relative="1" as="geometry">
            <mxPoint x="1000" y="1600" as="sourcePoint" />
            <mxPoint x="1760" y="1600" as="targetPoint" />
          </mxGeometry>
        </mxCell>
        <mxCell id="-m2fKo13suog9TDN3Gj3-21" value="&lt;h1&gt;Pipeline&lt;/h1&gt;&lt;div&gt;the maximun time for each data to be completely procesed is the sum of&amp;nbsp;&lt;/div&gt;&lt;div&gt;&lt;ul&gt;&lt;li&gt;time complete the most complext (in time) layer&lt;/li&gt;&lt;li&gt;time complete the second most complext (in time) layer&lt;/li&gt;&lt;/ul&gt;&lt;/div&gt;" style="text;html=1;strokeColor=none;fillColor=none;spacing=5;spacingTop=-20;whiteSpace=wrap;overflow=hidden;rounded=0;" parent="1" vertex="1">
          <mxGeometry x="1520" y="1380" width="190" height="180" as="geometry" />
        </mxCell>
        <mxCell id="-m2fKo13suog9TDN3Gj3-23" value="&lt;h1&gt;Neural Network&lt;/h1&gt;" style="text;html=1;strokeColor=none;fillColor=none;spacing=5;spacingTop=-20;whiteSpace=wrap;overflow=hidden;rounded=0;" parent="1" vertex="1">
          <mxGeometry x="470" y="710" width="190" height="120" as="geometry" />
        </mxCell>
        <mxCell id="NHjjjnDl3UXlkUb6KNAD-85" style="rounded=0;orthogonalLoop=1;jettySize=auto;html=1;" parent="1" source="NHjjjnDl3UXlkUb6KNAD-79" target="NHjjjnDl3UXlkUb6KNAD-84" edge="1">
          <mxGeometry relative="1" as="geometry" />
        </mxCell>
        <mxCell id="-m2fKo13suog9TDN3Gj3-24" value="&lt;h1&gt;FPGA diagram of single layer&lt;/h1&gt;&lt;div&gt;&lt;ul&gt;&lt;li&gt;control signals are represented as dotted line&lt;/li&gt;&lt;/ul&gt;&lt;div&gt;info&lt;/div&gt;&lt;/div&gt;&lt;div&gt;&lt;ul style=&quot;border-color: var(--border-color);&quot;&gt;&lt;li style=&quot;border-color: var(--border-color);&quot;&gt;weight address size: 8 (deph: 256)&lt;/li&gt;&lt;li style=&quot;border-color: var(--border-color);&quot;&gt;weight word size: 16&lt;/li&gt;&lt;li style=&quot;border-color: var(--border-color);&quot;&gt;y address size: 4 (deph: 16)&lt;/li&gt;&lt;li style=&quot;border-color: var(--border-color);&quot;&gt;&lt;span style=&quot;border-color: var(--border-color); background-color: initial;&quot;&gt;y word size: 16&lt;/span&gt;&lt;/li&gt;&lt;/ul&gt;&lt;/div&gt;" style="text;html=1;strokeColor=none;fillColor=none;spacing=5;spacingTop=-20;whiteSpace=wrap;overflow=hidden;rounded=0;" parent="1" vertex="1">
          <mxGeometry x="-30" y="-160" width="380" height="190" as="geometry" />
        </mxCell>
        <mxCell id="-m2fKo13suog9TDN3Gj3-25" value="&lt;h1&gt;FSM of control unit&lt;/h1&gt;" style="text;html=1;strokeColor=none;fillColor=none;spacing=5;spacingTop=-20;whiteSpace=wrap;overflow=hidden;rounded=0;" parent="1" vertex="1">
          <mxGeometry x="1410" y="480" width="190" height="120" as="geometry" />
        </mxCell>
        <mxCell id="NHjjjnDl3UXlkUb6KNAD-9" value="" style="edgeStyle=orthogonalEdgeStyle;rounded=0;orthogonalLoop=1;jettySize=auto;html=1;curved=1;" parent="1" source="NHjjjnDl3UXlkUb6KNAD-6" target="NHjjjnDl3UXlkUb6KNAD-12" edge="1">
          <mxGeometry relative="1" as="geometry">
            <mxPoint x="1680" y="70" as="targetPoint" />
            <Array as="points">
              <mxPoint x="1420" y="250" />
            </Array>
          </mxGeometry>
        </mxCell>
        <mxCell id="ol625469mGtvV0Z9UcoN-5" value="" style="edgeStyle=orthogonalEdgeStyle;rounded=0;orthogonalLoop=1;jettySize=auto;html=1;curved=1;" parent="1" source="ol625469mGtvV0Z9UcoN-4" target="NHjjjnDl3UXlkUb6KNAD-10" edge="1">
          <mxGeometry relative="1" as="geometry">
            <Array as="points">
              <mxPoint x="1780" y="-10" />
            </Array>
          </mxGeometry>
        </mxCell>
        <mxCell id="NHjjjnDl3UXlkUb6KNAD-6" value="S5: add 1 to pointer&lt;br&gt;pointer = pointer + 1" style="ellipse;whiteSpace=wrap;html=1;" parent="1" vertex="1">
          <mxGeometry x="1560" y="160" width="120" height="100" as="geometry" />
        </mxCell>
        <mxCell id="NHjjjnDl3UXlkUb6KNAD-13" value="" style="edgeStyle=orthogonalEdgeStyle;rounded=0;orthogonalLoop=1;jettySize=auto;html=1;curved=1;" parent="1" source="NHjjjnDl3UXlkUb6KNAD-10" target="j_RhVMx-HsZgqAVWS6TV-5" edge="1">
          <mxGeometry relative="1" as="geometry">
            <Array as="points">
              <mxPoint x="1781" y="110" />
              <mxPoint x="1780" y="110" />
            </Array>
          </mxGeometry>
        </mxCell>
        <mxCell id="NHjjjnDl3UXlkUb6KNAD-10" value="S3: enable read&lt;br&gt;enableRead = 1" style="ellipse;whiteSpace=wrap;html=1;" parent="1" vertex="1">
          <mxGeometry x="1720" y="40" width="120" height="50" as="geometry" />
        </mxCell>
        <mxCell id="NHjjjnDl3UXlkUb6KNAD-14" style="edgeStyle=orthogonalEdgeStyle;rounded=0;orthogonalLoop=1;jettySize=auto;html=1;curved=1;" parent="1" source="NHjjjnDl3UXlkUb6KNAD-12" target="NHjjjnDl3UXlkUb6KNAD-15" edge="1">
          <mxGeometry relative="1" as="geometry">
            <Array as="points">
              <mxPoint x="1480" y="110" />
            </Array>
          </mxGeometry>
        </mxCell>
        <mxCell id="j_RhVMx-HsZgqAVWS6TV-6" value="" style="edgeStyle=orthogonalEdgeStyle;rounded=0;orthogonalLoop=1;jettySize=auto;html=1;curved=1;" parent="1" source="j_RhVMx-HsZgqAVWS6TV-5" target="NHjjjnDl3UXlkUb6KNAD-6" edge="1">
          <mxGeometry relative="1" as="geometry">
            <Array as="points">
              <mxPoint x="1780" y="210" />
            </Array>
            <mxPoint x="1780" y="170" as="sourcePoint" />
            <mxPoint x="1699.6284793999948" y="240" as="targetPoint" />
          </mxGeometry>
        </mxCell>
        <mxCell id="NHjjjnDl3UXlkUb6KNAD-12" value="S6: finish controller&lt;br&gt;xxxxControllerEnd = 1" style="ellipse;whiteSpace=wrap;html=1;" parent="1" vertex="1">
          <mxGeometry x="1360" y="150" width="160" height="60" as="geometry" />
        </mxCell>
        <mxCell id="NHjjjnDl3UXlkUb6KNAD-16" value="xxxxControllerStart&amp;nbsp;= 1" style="edgeStyle=orthogonalEdgeStyle;rounded=0;orthogonalLoop=1;jettySize=auto;html=1;curved=1;" parent="1" source="NHjjjnDl3UXlkUb6KNAD-15" target="ol625469mGtvV0Z9UcoN-4" edge="1">
          <mxGeometry relative="1" as="geometry">
            <Array as="points">
              <mxPoint x="1420" y="-10" />
            </Array>
          </mxGeometry>
        </mxCell>
        <mxCell id="NHjjjnDl3UXlkUb6KNAD-15" value="S1: waiting" style="ellipse;whiteSpace=wrap;html=1;" parent="1" vertex="1">
          <mxGeometry x="1360" y="10" width="120" height="50" as="geometry" />
        </mxCell>
        <mxCell id="NHjjjnDl3UXlkUb6KNAD-17" value="xxxxControllerStart&amp;nbsp;= 0" style="edgeStyle=orthogonalEdgeStyle;rounded=0;orthogonalLoop=1;jettySize=auto;html=1;curved=1;exitX=0.13;exitY=0.16;exitDx=0;exitDy=0;exitPerimeter=0;entryX=0.234;entryY=0.976;entryDx=0;entryDy=0;entryPerimeter=0;" parent="1" source="NHjjjnDl3UXlkUb6KNAD-15" target="NHjjjnDl3UXlkUb6KNAD-15" edge="1">
          <mxGeometry relative="1" as="geometry">
            <Array as="points">
              <mxPoint x="1376" y="10" />
              <mxPoint x="1280" y="10" />
              <mxPoint x="1280" y="77" />
              <mxPoint x="1388" y="77" />
            </Array>
            <mxPoint x="1330" y="50" as="sourcePoint" />
            <mxPoint x="1327.3226906546915" y="77.15193595329288" as="targetPoint" />
          </mxGeometry>
        </mxCell>
        <mxCell id="NHjjjnDl3UXlkUb6KNAD-18" value="start w pointer" style="rounded=0;whiteSpace=wrap;html=1;" parent="1" vertex="1">
          <mxGeometry x="-120" y="720" width="80" height="20" as="geometry" />
        </mxCell>
        <mxCell id="NHjjjnDl3UXlkUb6KNAD-19" value="m" style="rounded=0;whiteSpace=wrap;html=1;" parent="1" vertex="1">
          <mxGeometry x="-120" y="760" width="80" height="20" as="geometry" />
        </mxCell>
        <mxCell id="NHjjjnDl3UXlkUb6KNAD-20" value="" style="labelPosition=right;align=left;strokeWidth=1;shape=mxgraph.mockup.markup.curlyBrace;html=1;shadow=0;dashed=0;strokeColor=#999999;direction=north;" parent="1" vertex="1">
          <mxGeometry x="-160" y="720" width="20" height="80" as="geometry" />
        </mxCell>
        <mxCell id="NHjjjnDl3UXlkUb6KNAD-21" value="L1" style="text;html=1;strokeColor=none;fillColor=none;align=center;verticalAlign=middle;whiteSpace=wrap;rounded=0;" parent="1" vertex="1">
          <mxGeometry x="-220" y="740" width="60" height="30" as="geometry" />
        </mxCell>
        <mxCell id="NHjjjnDl3UXlkUb6KNAD-25" value="L2" style="text;html=1;strokeColor=none;fillColor=none;align=center;verticalAlign=middle;whiteSpace=wrap;rounded=0;" parent="1" vertex="1">
          <mxGeometry x="-220" y="820" width="60" height="30" as="geometry" />
        </mxCell>
        <mxCell id="NHjjjnDl3UXlkUb6KNAD-29" value="L3" style="text;html=1;strokeColor=none;fillColor=none;align=center;verticalAlign=middle;whiteSpace=wrap;rounded=0;" parent="1" vertex="1">
          <mxGeometry x="-220" y="900" width="60" height="30" as="geometry" />
        </mxCell>
        <mxCell id="NHjjjnDl3UXlkUb6KNAD-30" value="&lt;h1&gt;Calculate pointer&lt;/h1&gt;" style="text;html=1;strokeColor=none;fillColor=none;spacing=5;spacingTop=-20;whiteSpace=wrap;overflow=hidden;rounded=0;" parent="1" vertex="1">
          <mxGeometry x="1560" y="-150" width="190" height="120" as="geometry" />
        </mxCell>
        <mxCell id="NHjjjnDl3UXlkUb6KNAD-33" value="pre-charged data. For that reason, need to be a set of registers" style="text;html=1;strokeColor=none;fillColor=none;align=center;verticalAlign=middle;whiteSpace=wrap;rounded=0;" parent="1" vertex="1">
          <mxGeometry x="-130" y="580" width="140" height="30" as="geometry" />
        </mxCell>
        <mxCell id="NHjjjnDl3UXlkUb6KNAD-34" value="external to the layer" style="text;html=1;strokeColor=none;fillColor=none;align=center;verticalAlign=middle;whiteSpace=wrap;rounded=0;" parent="1" vertex="1">
          <mxGeometry x="490" y="570" width="60" height="30" as="geometry" />
        </mxCell>
        <mxCell id="NHjjjnDl3UXlkUb6KNAD-35" value="n" style="rounded=0;whiteSpace=wrap;html=1;" parent="1" vertex="1">
          <mxGeometry x="-120" y="780" width="80" height="20" as="geometry" />
        </mxCell>
        <mxCell id="NHjjjnDl3UXlkUb6KNAD-36" value="end pointer = start pointer + m*n" style="text;html=1;strokeColor=none;fillColor=none;align=center;verticalAlign=middle;whiteSpace=wrap;rounded=0;" parent="1" vertex="1">
          <mxGeometry x="-40" y="720" width="190" height="30" as="geometry" />
        </mxCell>
        <mxCell id="NHjjjnDl3UXlkUb6KNAD-45" value="start y pointer" style="rounded=0;whiteSpace=wrap;html=1;" parent="1" vertex="1">
          <mxGeometry x="-120" y="740" width="80" height="20" as="geometry" />
        </mxCell>
        <mxCell id="NHjjjnDl3UXlkUb6KNAD-46" value="start w pointer" style="rounded=0;whiteSpace=wrap;html=1;" parent="1" vertex="1">
          <mxGeometry x="-120" y="800" width="80" height="20" as="geometry" />
        </mxCell>
        <mxCell id="NHjjjnDl3UXlkUb6KNAD-47" value="m" style="rounded=0;whiteSpace=wrap;html=1;" parent="1" vertex="1">
          <mxGeometry x="-120" y="840" width="80" height="20" as="geometry" />
        </mxCell>
        <mxCell id="NHjjjnDl3UXlkUb6KNAD-48" value="n" style="rounded=0;whiteSpace=wrap;html=1;" parent="1" vertex="1">
          <mxGeometry x="-120" y="860" width="80" height="20" as="geometry" />
        </mxCell>
        <mxCell id="NHjjjnDl3UXlkUb6KNAD-49" value="start y pointer" style="rounded=0;whiteSpace=wrap;html=1;" parent="1" vertex="1">
          <mxGeometry x="-120" y="820" width="80" height="20" as="geometry" />
        </mxCell>
        <mxCell id="NHjjjnDl3UXlkUb6KNAD-50" value="start w pointer" style="rounded=0;whiteSpace=wrap;html=1;" parent="1" vertex="1">
          <mxGeometry x="-120" y="880" width="80" height="20" as="geometry" />
        </mxCell>
        <mxCell id="NHjjjnDl3UXlkUb6KNAD-51" value="m" style="rounded=0;whiteSpace=wrap;html=1;" parent="1" vertex="1">
          <mxGeometry x="-120" y="920" width="80" height="20" as="geometry" />
        </mxCell>
        <mxCell id="NHjjjnDl3UXlkUb6KNAD-52" value="n" style="rounded=0;whiteSpace=wrap;html=1;" parent="1" vertex="1">
          <mxGeometry x="-120" y="940" width="80" height="20" as="geometry" />
        </mxCell>
        <mxCell id="NHjjjnDl3UXlkUb6KNAD-53" value="start y pointer" style="rounded=0;whiteSpace=wrap;html=1;" parent="1" vertex="1">
          <mxGeometry x="-120" y="900" width="80" height="20" as="geometry" />
        </mxCell>
        <mxCell id="NHjjjnDl3UXlkUb6KNAD-58" value="" style="labelPosition=right;align=left;strokeWidth=1;shape=mxgraph.mockup.markup.curlyBrace;html=1;shadow=0;dashed=0;strokeColor=#999999;direction=north;" parent="1" vertex="1">
          <mxGeometry x="-160" y="800" width="20" height="80" as="geometry" />
        </mxCell>
        <mxCell id="NHjjjnDl3UXlkUb6KNAD-59" value="" style="labelPosition=right;align=left;strokeWidth=1;shape=mxgraph.mockup.markup.curlyBrace;html=1;shadow=0;dashed=0;strokeColor=#999999;direction=north;" parent="1" vertex="1">
          <mxGeometry x="-160" y="880" width="20" height="80" as="geometry" />
        </mxCell>
        <mxCell id="NHjjjnDl3UXlkUb6KNAD-61" value="firstPreviousYPointer (y&lt;sup style=&quot;border-color: var(--border-color); background-color: rgb(251, 251, 251);&quot;&gt;(i-1)&lt;/sup&gt;&lt;span style=&quot;border-color: var(--border-color); background-color: rgb(251, 251, 251);&quot;&gt;&lt;sub&gt;1&lt;/sub&gt;&lt;/span&gt;&amp;nbsp;pointer)" style="endArrow=classic;html=1;rounded=0;" parent="1" edge="1">
          <mxGeometry width="50" height="50" relative="1" as="geometry">
            <mxPoint x="-40" y="320" as="sourcePoint" />
            <mxPoint x="190" y="320" as="targetPoint" />
          </mxGeometry>
        </mxCell>
        <mxCell id="NHjjjnDl3UXlkUb6KNAD-62" value="firstWeightPointer (w&lt;sup style=&quot;border-color: var(--border-color); background-color: rgb(251, 251, 251);&quot;&gt;(i)&lt;/sup&gt;&lt;span style=&quot;border-color: var(--border-color); background-color: rgb(251, 251, 251);&quot;&gt;&lt;sub&gt;1&lt;/sub&gt;&lt;/span&gt;&amp;nbsp;pointer)" style="endArrow=classic;html=1;rounded=0;" parent="1" edge="1">
          <mxGeometry width="50" height="50" relative="1" as="geometry">
            <mxPoint x="-40" y="160" as="sourcePoint" />
            <mxPoint x="190" y="160" as="targetPoint" />
          </mxGeometry>
        </mxCell>
        <mxCell id="NHjjjnDl3UXlkUb6KNAD-63" value="m" style="endArrow=classic;html=1;rounded=0;" parent="1" edge="1">
          <mxGeometry width="50" height="50" relative="1" as="geometry">
            <mxPoint x="-30" y="360" as="sourcePoint" />
            <mxPoint x="70" y="360" as="targetPoint" />
          </mxGeometry>
        </mxCell>
        <mxCell id="NHjjjnDl3UXlkUb6KNAD-64" value="n" style="endArrow=classic;html=1;rounded=0;" parent="1" edge="1">
          <mxGeometry width="50" height="50" relative="1" as="geometry">
            <mxPoint x="-30" y="370" as="sourcePoint" />
            <mxPoint x="70" y="370" as="targetPoint" />
          </mxGeometry>
        </mxCell>
        <mxCell id="NHjjjnDl3UXlkUb6KNAD-66" value="base pointers" style="rounded=0;whiteSpace=wrap;html=1;fillColor=#f5f5f5;strokeColor=#666666;gradientColor=#b3b3b3;" parent="1" vertex="1">
          <mxGeometry x="40" y="1560" width="80" height="20" as="geometry" />
        </mxCell>
        <mxCell id="NHjjjnDl3UXlkUb6KNAD-68" value="int. w&lt;sup&gt;(i) &lt;/sup&gt;poin." style="rounded=0;whiteSpace=wrap;html=1;fillColor=#fff2cc;strokeColor=#d6b656;" parent="1" vertex="1">
          <mxGeometry x="240" y="140" width="80" height="40" as="geometry" />
        </mxCell>
        <mxCell id="NHjjjnDl3UXlkUb6KNAD-69" value="int. y&lt;sup style=&quot;border-color: var(--border-color);&quot;&gt;(i-1)&lt;/sup&gt;&lt;sup&gt;&amp;nbsp;&lt;/sup&gt;poin." style="rounded=0;whiteSpace=wrap;html=1;fillColor=#fff2cc;strokeColor=#d6b656;" parent="1" vertex="1">
          <mxGeometry x="240" y="300" width="80" height="40" as="geometry" />
        </mxCell>
        <mxCell id="NHjjjnDl3UXlkUb6KNAD-71" value="int. y&lt;sup style=&quot;border-color: var(--border-color);&quot;&gt;(i)&lt;/sup&gt;&lt;sup&gt;&amp;nbsp;&lt;/sup&gt;poin." style="rounded=0;whiteSpace=wrap;html=1;fillColor=#fff2cc;strokeColor=#d6b656;" parent="1" vertex="1">
          <mxGeometry x="240" y="460" width="80" height="40" as="geometry" />
        </mxCell>
        <mxCell id="8xFIW8AcWVv0tGsdDjNo-4" value="" style="line;strokeWidth=4;direction=south;html=1;perimeter=backbonePerimeter;points=[];outlineConnect=0;fillColor=#fff2cc;strokeColor=#d6b656;" parent="1" vertex="1">
          <mxGeometry x="-60" y="80" width="10" height="440" as="geometry" />
        </mxCell>
        <mxCell id="NHjjjnDl3UXlkUb6KNAD-76" style="edgeStyle=orthogonalEdgeStyle;rounded=0;orthogonalLoop=1;jettySize=auto;html=1;curved=1;exitX=0.5;exitY=1;exitDx=0;exitDy=0;" parent="1" source="NHjjjnDl3UXlkUb6KNAD-74" target="NHjjjnDl3UXlkUb6KNAD-15" edge="1">
          <mxGeometry relative="1" as="geometry">
            <Array as="points">
              <mxPoint x="1370" y="-40" />
              <mxPoint x="1370" y="-20" />
              <mxPoint x="1400" y="-20" />
            </Array>
          </mxGeometry>
        </mxCell>
        <mxCell id="NHjjjnDl3UXlkUb6KNAD-74" value="S0: set value of base pointer&lt;br&gt;pointer = basePointer&lt;br&gt;enableRead = 0&lt;br style=&quot;border-color: var(--border-color);&quot;&gt;xxxxControllerEnd = 0" style="ellipse;whiteSpace=wrap;html=1;" parent="1" vertex="1">
          <mxGeometry x="1240" y="-130" width="200" height="100" as="geometry" />
        </mxCell>
        <mxCell id="NHjjjnDl3UXlkUb6KNAD-78" value="reset" style="endArrow=classic;html=1;rounded=0;entryX=0;entryY=0.5;entryDx=0;entryDy=0;" parent="1" target="NHjjjnDl3UXlkUb6KNAD-74" edge="1">
          <mxGeometry width="50" height="50" relative="1" as="geometry">
            <mxPoint x="1200" y="-130" as="sourcePoint" />
            <mxPoint x="1390" y="-90" as="targetPoint" />
          </mxGeometry>
        </mxCell>
        <mxCell id="NHjjjnDl3UXlkUb6KNAD-81" style="rounded=0;orthogonalLoop=1;jettySize=auto;html=1;" parent="1" source="NHjjjnDl3UXlkUb6KNAD-79" target="NHjjjnDl3UXlkUb6KNAD-32" edge="1">
          <mxGeometry relative="1" as="geometry" />
        </mxCell>
        <mxCell id="NHjjjnDl3UXlkUb6KNAD-82" style="rounded=0;orthogonalLoop=1;jettySize=auto;html=1;" parent="1" source="NHjjjnDl3UXlkUb6KNAD-79" target="z2SttC8pkeUnPTJP8_GX-2" edge="1">
          <mxGeometry relative="1" as="geometry" />
        </mxCell>
        <mxCell id="NHjjjnDl3UXlkUb6KNAD-79" value="C program" style="sketch=0;outlineConnect=0;fontColor=#232F3E;gradientColor=none;fillColor=#3F8624;strokeColor=none;dashed=0;verticalLabelPosition=bottom;verticalAlign=top;align=center;html=1;fontSize=12;fontStyle=0;aspect=fixed;pointerEvents=1;shape=mxgraph.aws4.iot_thing_plc;" parent="1" vertex="1">
          <mxGeometry x="300" y="-70" width="78" height="78" as="geometry" />
        </mxCell>
        <mxCell id="NHjjjnDl3UXlkUb6KNAD-84" value="x" style="rounded=0;whiteSpace=wrap;html=1;fillColor=#fff2cc;strokeColor=#d6b656;" parent="1" vertex="1">
          <mxGeometry x="490" y="250" width="60" height="80" as="geometry" />
        </mxCell>
        <mxCell id="NHjjjnDl3UXlkUb6KNAD-86" value="" style="verticalLabelPosition=bottom;verticalAlign=top;html=1;shadow=0;dashed=0;strokeWidth=1;shape=mxgraph.ios.iPageControl;fillColor=#666666;strokeColor=#cccccc;sketch=0;" parent="1" vertex="1">
          <mxGeometry x="1130" y="1580" width="50" height="5" as="geometry" />
        </mxCell>
        <mxCell id="NHjjjnDl3UXlkUb6KNAD-87" value="" style="verticalLabelPosition=bottom;verticalAlign=top;html=1;shadow=0;dashed=0;strokeWidth=1;shape=mxgraph.ios.iPageControl;fillColor=#666666;strokeColor=#cccccc;sketch=0;" parent="1" vertex="1">
          <mxGeometry x="1130" y="1780" width="50" height="5" as="geometry" />
        </mxCell>
        <mxCell id="NHjjjnDl3UXlkUb6KNAD-88" value="L1" style="rounded=0;whiteSpace=wrap;html=1;fillColor=#a0522d;strokeColor=#6D1F00;fontColor=#ffffff;" parent="1" vertex="1">
          <mxGeometry x="1000" y="1820" width="80" height="20" as="geometry" />
        </mxCell>
        <mxCell id="NHjjjnDl3UXlkUb6KNAD-89" value="L2" style="rounded=0;whiteSpace=wrap;html=1;fillColor=#a0522d;strokeColor=#6D1F00;fontColor=#ffffff;" parent="1" vertex="1">
          <mxGeometry x="1080" y="1820" width="60" height="20" as="geometry" />
        </mxCell>
        <mxCell id="NHjjjnDl3UXlkUb6KNAD-90" value="L3" style="rounded=0;whiteSpace=wrap;html=1;fillColor=#a0522d;strokeColor=#6D1F00;fontColor=#ffffff;" parent="1" vertex="1">
          <mxGeometry x="1140" y="1820" width="40" height="20" as="geometry" />
        </mxCell>
        <mxCell id="NHjjjnDl3UXlkUb6KNAD-91" value="data 1" style="text;html=1;strokeColor=none;fillColor=none;align=center;verticalAlign=middle;whiteSpace=wrap;rounded=0;" parent="1" vertex="1">
          <mxGeometry x="940" y="1820" width="60" height="30" as="geometry" />
        </mxCell>
        <mxCell id="NHjjjnDl3UXlkUb6KNAD-92" value="data 2" style="text;html=1;strokeColor=none;fillColor=none;align=center;verticalAlign=middle;whiteSpace=wrap;rounded=0;" parent="1" vertex="1">
          <mxGeometry x="940" y="1860" width="60" height="30" as="geometry" />
        </mxCell>
        <mxCell id="NHjjjnDl3UXlkUb6KNAD-93" value="data 3" style="text;html=1;strokeColor=none;fillColor=none;align=center;verticalAlign=middle;whiteSpace=wrap;rounded=0;" parent="1" vertex="1">
          <mxGeometry x="940" y="1900" width="60" height="30" as="geometry" />
        </mxCell>
        <mxCell id="NHjjjnDl3UXlkUb6KNAD-100" value="" style="verticalLabelPosition=bottom;verticalAlign=top;html=1;shadow=0;dashed=0;strokeWidth=1;shape=mxgraph.ios.iPageControl;fillColor=#666666;strokeColor=#cccccc;sketch=0;" parent="1" vertex="1">
          <mxGeometry x="1130" y="1980" width="50" height="5" as="geometry" />
        </mxCell>
        <mxCell id="NHjjjnDl3UXlkUb6KNAD-101" value="L4" style="rounded=0;whiteSpace=wrap;html=1;fillColor=#a0522d;strokeColor=#6D1F00;fontColor=#ffffff;" parent="1" vertex="1">
          <mxGeometry x="1220" y="1820" width="20" height="20" as="geometry" />
        </mxCell>
        <mxCell id="NHjjjnDl3UXlkUb6KNAD-102" value="L5" style="rounded=0;whiteSpace=wrap;html=1;fillColor=#a0522d;strokeColor=#6D1F00;fontColor=#ffffff;" parent="1" vertex="1">
          <mxGeometry x="1280" y="1820" width="20" height="20" as="geometry" />
        </mxCell>
        <mxCell id="NHjjjnDl3UXlkUb6KNAD-103" value="data 4" style="text;html=1;strokeColor=none;fillColor=none;align=center;verticalAlign=middle;whiteSpace=wrap;rounded=0;" parent="1" vertex="1">
          <mxGeometry x="940" y="1940" width="60" height="30" as="geometry" />
        </mxCell>
        <mxCell id="NHjjjnDl3UXlkUb6KNAD-104" value="L1" style="rounded=0;whiteSpace=wrap;html=1;fillColor=#e3c800;strokeColor=#B09500;fontColor=#000000;" parent="1" vertex="1">
          <mxGeometry x="1140" y="1860" width="80" height="20" as="geometry" />
        </mxCell>
        <mxCell id="NHjjjnDl3UXlkUb6KNAD-105" value="L2" style="rounded=0;whiteSpace=wrap;html=1;fillColor=#e3c800;strokeColor=#B09500;fontColor=#000000;" parent="1" vertex="1">
          <mxGeometry x="1220" y="1860" width="60" height="20" as="geometry" />
        </mxCell>
        <mxCell id="NHjjjnDl3UXlkUb6KNAD-106" value="L3" style="rounded=0;whiteSpace=wrap;html=1;fillColor=#e3c800;strokeColor=#B09500;fontColor=#000000;" parent="1" vertex="1">
          <mxGeometry x="1280" y="1860" width="40" height="20" as="geometry" />
        </mxCell>
        <mxCell id="NHjjjnDl3UXlkUb6KNAD-107" value="L4" style="rounded=0;whiteSpace=wrap;html=1;fillColor=#e3c800;strokeColor=#B09500;fontColor=#000000;" parent="1" vertex="1">
          <mxGeometry x="1360" y="1860" width="20" height="20" as="geometry" />
        </mxCell>
        <mxCell id="NHjjjnDl3UXlkUb6KNAD-108" value="L5" style="rounded=0;whiteSpace=wrap;html=1;fillColor=#e3c800;strokeColor=#B09500;fontColor=#000000;" parent="1" vertex="1">
          <mxGeometry x="1420" y="1860" width="20" height="20" as="geometry" />
        </mxCell>
        <mxCell id="NHjjjnDl3UXlkUb6KNAD-109" value="L1" style="rounded=0;whiteSpace=wrap;html=1;fillColor=#6d8764;strokeColor=#3A5431;fontColor=#ffffff;" parent="1" vertex="1">
          <mxGeometry x="1280" y="1900" width="80" height="20" as="geometry" />
        </mxCell>
        <mxCell id="NHjjjnDl3UXlkUb6KNAD-110" value="L2" style="rounded=0;whiteSpace=wrap;html=1;fillColor=#6d8764;strokeColor=#3A5431;fontColor=#ffffff;" parent="1" vertex="1">
          <mxGeometry x="1360" y="1900" width="60" height="20" as="geometry" />
        </mxCell>
        <mxCell id="NHjjjnDl3UXlkUb6KNAD-111" value="L3" style="rounded=0;whiteSpace=wrap;html=1;fillColor=#6d8764;strokeColor=#3A5431;fontColor=#ffffff;" parent="1" vertex="1">
          <mxGeometry x="1420" y="1900" width="40" height="20" as="geometry" />
        </mxCell>
        <mxCell id="NHjjjnDl3UXlkUb6KNAD-112" value="L4" style="rounded=0;whiteSpace=wrap;html=1;fillColor=#6d8764;strokeColor=#3A5431;fontColor=#ffffff;" parent="1" vertex="1">
          <mxGeometry x="1500" y="1900" width="20" height="20" as="geometry" />
        </mxCell>
        <mxCell id="NHjjjnDl3UXlkUb6KNAD-113" value="L5" style="rounded=0;whiteSpace=wrap;html=1;fillColor=#6d8764;strokeColor=#3A5431;fontColor=#ffffff;" parent="1" vertex="1">
          <mxGeometry x="1560" y="1900" width="20" height="20" as="geometry" />
        </mxCell>
        <mxCell id="NHjjjnDl3UXlkUb6KNAD-114" value="L1" style="rounded=0;whiteSpace=wrap;html=1;fillColor=#f0a30a;strokeColor=#BD7000;fontColor=#000000;" parent="1" vertex="1">
          <mxGeometry x="1420" y="1940" width="80" height="20" as="geometry" />
        </mxCell>
        <mxCell id="NHjjjnDl3UXlkUb6KNAD-115" value="L2" style="rounded=0;whiteSpace=wrap;html=1;fillColor=#f0a30a;strokeColor=#BD7000;fontColor=#000000;" parent="1" vertex="1">
          <mxGeometry x="1500" y="1940" width="60" height="20" as="geometry" />
        </mxCell>
        <mxCell id="NHjjjnDl3UXlkUb6KNAD-116" value="L3" style="rounded=0;whiteSpace=wrap;html=1;fillColor=#f0a30a;strokeColor=#BD7000;fontColor=#000000;" parent="1" vertex="1">
          <mxGeometry x="1560" y="1940" width="40" height="20" as="geometry" />
        </mxCell>
        <mxCell id="NHjjjnDl3UXlkUb6KNAD-117" value="L4" style="rounded=0;whiteSpace=wrap;html=1;fillColor=#f0a30a;strokeColor=#BD7000;fontColor=#000000;" parent="1" vertex="1">
          <mxGeometry x="1640" y="1940" width="20" height="20" as="geometry" />
        </mxCell>
        <mxCell id="NHjjjnDl3UXlkUb6KNAD-118" value="L5" style="rounded=0;whiteSpace=wrap;html=1;fillColor=#f0a30a;strokeColor=#BD7000;fontColor=#000000;" parent="1" vertex="1">
          <mxGeometry x="1700" y="1940" width="20" height="20" as="geometry" />
        </mxCell>
        <mxCell id="NHjjjnDl3UXlkUb6KNAD-119" value="" style="endArrow=none;html=1;rounded=0;dashed=1;" parent="1" edge="1">
          <mxGeometry width="50" height="50" relative="1" as="geometry">
            <mxPoint x="1000" y="1800" as="sourcePoint" />
            <mxPoint x="1760" y="1800" as="targetPoint" />
          </mxGeometry>
        </mxCell>
        <mxCell id="NHjjjnDl3UXlkUb6KNAD-120" value="L1" style="rounded=0;whiteSpace=wrap;html=1;fillColor=#f0a30a;strokeColor=#BD7000;fontColor=#000000;" parent="1" vertex="1">
          <mxGeometry x="1360" y="1740" width="40" height="20" as="geometry" />
        </mxCell>
        <mxCell id="NHjjjnDl3UXlkUb6KNAD-121" value="L2" style="rounded=0;whiteSpace=wrap;html=1;fillColor=#f0a30a;strokeColor=#BD7000;fontColor=#000000;" parent="1" vertex="1">
          <mxGeometry x="1400" y="1740" width="80" height="20" as="geometry" />
        </mxCell>
        <mxCell id="NHjjjnDl3UXlkUb6KNAD-122" value="L3" style="rounded=0;whiteSpace=wrap;html=1;fillColor=#f0a30a;strokeColor=#BD7000;fontColor=#000000;" parent="1" vertex="1">
          <mxGeometry x="1480" y="1740" width="20" height="20" as="geometry" />
        </mxCell>
        <mxCell id="NHjjjnDl3UXlkUb6KNAD-123" value="" style="endArrow=none;html=1;rounded=0;dashed=1;" parent="1" edge="1">
          <mxGeometry width="50" height="50" relative="1" as="geometry">
            <mxPoint x="1040" y="1800" as="sourcePoint" />
            <mxPoint x="1040" y="1600" as="targetPoint" />
          </mxGeometry>
        </mxCell>
        <mxCell id="NHjjjnDl3UXlkUb6KNAD-124" value="" style="endArrow=none;html=1;rounded=0;dashed=1;" parent="1" edge="1">
          <mxGeometry width="50" height="50" relative="1" as="geometry">
            <mxPoint x="1120" y="1800" as="sourcePoint" />
            <mxPoint x="1120" y="1600" as="targetPoint" />
          </mxGeometry>
        </mxCell>
        <mxCell id="NHjjjnDl3UXlkUb6KNAD-125" value="" style="endArrow=none;html=1;rounded=0;dashed=1;" parent="1" edge="1">
          <mxGeometry width="50" height="50" relative="1" as="geometry">
            <mxPoint x="1160" y="1800" as="sourcePoint" />
            <mxPoint x="1160" y="1600" as="targetPoint" />
          </mxGeometry>
        </mxCell>
        <mxCell id="NHjjjnDl3UXlkUb6KNAD-126" value="" style="endArrow=none;html=1;rounded=0;dashed=1;" parent="1" edge="1">
          <mxGeometry width="50" height="50" relative="1" as="geometry">
            <mxPoint x="1240" y="1800" as="sourcePoint" />
            <mxPoint x="1240" y="1600" as="targetPoint" />
          </mxGeometry>
        </mxCell>
        <mxCell id="NHjjjnDl3UXlkUb6KNAD-127" value="" style="endArrow=none;html=1;rounded=0;dashed=1;" parent="1" edge="1">
          <mxGeometry width="50" height="50" relative="1" as="geometry">
            <mxPoint x="1280" y="1800" as="sourcePoint" />
            <mxPoint x="1280" y="1600" as="targetPoint" />
          </mxGeometry>
        </mxCell>
        <mxCell id="NHjjjnDl3UXlkUb6KNAD-128" value="" style="endArrow=none;html=1;rounded=0;dashed=1;" parent="1" edge="1">
          <mxGeometry width="50" height="50" relative="1" as="geometry">
            <mxPoint x="1080" y="2000" as="sourcePoint" />
            <mxPoint x="1080" y="1800" as="targetPoint" />
          </mxGeometry>
        </mxCell>
        <mxCell id="NHjjjnDl3UXlkUb6KNAD-129" value="" style="endArrow=none;html=1;rounded=0;dashed=1;" parent="1" edge="1">
          <mxGeometry width="50" height="50" relative="1" as="geometry">
            <mxPoint x="1140" y="2000" as="sourcePoint" />
            <mxPoint x="1140" y="1800" as="targetPoint" />
          </mxGeometry>
        </mxCell>
        <mxCell id="NHjjjnDl3UXlkUb6KNAD-130" value="" style="endArrow=none;html=1;rounded=0;dashed=1;" parent="1" edge="1">
          <mxGeometry width="50" height="50" relative="1" as="geometry">
            <mxPoint x="1220" y="2000" as="sourcePoint" />
            <mxPoint x="1220" y="1800" as="targetPoint" />
          </mxGeometry>
        </mxCell>
        <mxCell id="NHjjjnDl3UXlkUb6KNAD-131" value="" style="endArrow=none;html=1;rounded=0;dashed=1;" parent="1" edge="1">
          <mxGeometry width="50" height="50" relative="1" as="geometry">
            <mxPoint x="1280" y="2000" as="sourcePoint" />
            <mxPoint x="1280" y="1800" as="targetPoint" />
          </mxGeometry>
        </mxCell>
        <mxCell id="NHjjjnDl3UXlkUb6KNAD-132" value="" style="endArrow=none;html=1;rounded=0;dashed=1;" parent="1" edge="1">
          <mxGeometry width="50" height="50" relative="1" as="geometry">
            <mxPoint x="1360" y="2000" as="sourcePoint" />
            <mxPoint x="1360" y="1800" as="targetPoint" />
          </mxGeometry>
        </mxCell>
        <mxCell id="NHjjjnDl3UXlkUb6KNAD-133" value="" style="endArrow=none;html=1;rounded=0;dashed=1;" parent="1" edge="1">
          <mxGeometry width="50" height="50" relative="1" as="geometry">
            <mxPoint x="1420" y="2000" as="sourcePoint" />
            <mxPoint x="1420" y="1800" as="targetPoint" />
          </mxGeometry>
        </mxCell>
        <mxCell id="NHjjjnDl3UXlkUb6KNAD-134" value="" style="endArrow=none;html=1;rounded=0;dashed=1;" parent="1" edge="1">
          <mxGeometry width="50" height="50" relative="1" as="geometry">
            <mxPoint x="1500" y="2000" as="sourcePoint" />
            <mxPoint x="1500" y="1800" as="targetPoint" />
          </mxGeometry>
        </mxCell>
        <mxCell id="NHjjjnDl3UXlkUb6KNAD-135" value="data 4" style="text;html=1;strokeColor=none;fillColor=none;align=center;verticalAlign=middle;whiteSpace=wrap;rounded=0;" parent="1" vertex="1">
          <mxGeometry x="940" y="1740" width="60" height="30" as="geometry" />
        </mxCell>
        <mxCell id="NHjjjnDl3UXlkUb6KNAD-136" value="data 4" style="text;html=1;strokeColor=none;fillColor=none;align=center;verticalAlign=middle;whiteSpace=wrap;rounded=0;" parent="1" vertex="1">
          <mxGeometry x="940" y="1540" width="60" height="30" as="geometry" />
        </mxCell>
        <mxCell id="NHjjjnDl3UXlkUb6KNAD-137" value="L1" style="rounded=0;whiteSpace=wrap;html=1;fillColor=#f0a30a;strokeColor=#BD7000;fontColor=#000000;" parent="1" vertex="1">
          <mxGeometry x="1360" y="1540" width="80" height="20" as="geometry" />
        </mxCell>
        <mxCell id="NHjjjnDl3UXlkUb6KNAD-138" value="L2" style="rounded=0;whiteSpace=wrap;html=1;fillColor=#f0a30a;strokeColor=#BD7000;fontColor=#000000;" parent="1" vertex="1">
          <mxGeometry x="1440" y="1540" width="40" height="20" as="geometry" />
        </mxCell>
        <mxCell id="NHjjjnDl3UXlkUb6KNAD-139" value="L3" style="rounded=0;whiteSpace=wrap;html=1;fillColor=#f0a30a;strokeColor=#BD7000;fontColor=#000000;" parent="1" vertex="1">
          <mxGeometry x="1480" y="1540" width="20" height="20" as="geometry" />
        </mxCell>
        <mxCell id="NHjjjnDl3UXlkUb6KNAD-140" value="" style="endArrow=none;html=1;rounded=0;dashed=1;" parent="1" edge="1">
          <mxGeometry width="50" height="50" relative="1" as="geometry">
            <mxPoint x="1080" y="1600" as="sourcePoint" />
            <mxPoint x="1080" y="1400" as="targetPoint" />
          </mxGeometry>
        </mxCell>
        <mxCell id="NHjjjnDl3UXlkUb6KNAD-141" value="" style="endArrow=none;html=1;rounded=0;dashed=1;" parent="1" edge="1">
          <mxGeometry width="50" height="50" relative="1" as="geometry">
            <mxPoint x="1120" y="1600" as="sourcePoint" />
            <mxPoint x="1120" y="1400" as="targetPoint" />
          </mxGeometry>
        </mxCell>
        <mxCell id="NHjjjnDl3UXlkUb6KNAD-142" value="" style="endArrow=none;html=1;rounded=0;dashed=1;" parent="1" edge="1">
          <mxGeometry width="50" height="50" relative="1" as="geometry">
            <mxPoint x="1200" y="1600" as="sourcePoint" />
            <mxPoint x="1200" y="1400" as="targetPoint" />
          </mxGeometry>
        </mxCell>
        <mxCell id="NHjjjnDl3UXlkUb6KNAD-143" value="" style="endArrow=none;html=1;rounded=0;dashed=1;" parent="1" edge="1">
          <mxGeometry width="50" height="50" relative="1" as="geometry">
            <mxPoint x="1240" y="1600" as="sourcePoint" />
            <mxPoint x="1240" y="1400" as="targetPoint" />
          </mxGeometry>
        </mxCell>
        <mxCell id="NHjjjnDl3UXlkUb6KNAD-144" value="" style="endArrow=none;html=1;rounded=0;dashed=1;" parent="1" edge="1">
          <mxGeometry width="50" height="50" relative="1" as="geometry">
            <mxPoint x="1320" y="1600" as="sourcePoint" />
            <mxPoint x="1320" y="1400" as="targetPoint" />
          </mxGeometry>
        </mxCell>
        <mxCell id="skVlUIX4g7myS5e7Ys-l-52" value="" style="endArrow=none;html=1;rounded=0;dashed=1;" parent="1" edge="1">
          <mxGeometry width="50" height="50" relative="1" as="geometry">
            <mxPoint x="1360" y="1800" as="sourcePoint" />
            <mxPoint x="1360" y="1600" as="targetPoint" />
          </mxGeometry>
        </mxCell>
        <mxCell id="skVlUIX4g7myS5e7Ys-l-53" value="" style="endArrow=none;html=1;rounded=0;dashed=1;" parent="1" edge="1">
          <mxGeometry width="50" height="50" relative="1" as="geometry">
            <mxPoint x="1560" y="2000" as="sourcePoint" />
            <mxPoint x="1560" y="1800" as="targetPoint" />
          </mxGeometry>
        </mxCell>
        <mxCell id="skVlUIX4g7myS5e7Ys-l-54" value="" style="endArrow=none;html=1;rounded=0;dashed=1;" parent="1" edge="1">
          <mxGeometry width="50" height="50" relative="1" as="geometry">
            <mxPoint x="1640" y="2000" as="sourcePoint" />
            <mxPoint x="1640" y="1800" as="targetPoint" />
          </mxGeometry>
        </mxCell>
        <mxCell id="skVlUIX4g7myS5e7Ys-l-55" value="2t" style="text;html=1;strokeColor=none;fillColor=none;align=center;verticalAlign=middle;whiteSpace=wrap;rounded=0;" parent="1" vertex="1">
          <mxGeometry x="1010" y="2040" width="60" height="30" as="geometry" />
        </mxCell>
        <mxCell id="skVlUIX4g7myS5e7Ys-l-56" value="4t" style="text;html=1;strokeColor=none;fillColor=none;align=center;verticalAlign=middle;whiteSpace=wrap;rounded=0;" parent="1" vertex="1">
          <mxGeometry x="1050" y="2040" width="60" height="30" as="geometry" />
        </mxCell>
        <mxCell id="skVlUIX4g7myS5e7Ys-l-57" value="6t" style="text;html=1;strokeColor=none;fillColor=none;align=center;verticalAlign=middle;whiteSpace=wrap;rounded=0;" parent="1" vertex="1">
          <mxGeometry x="1090" y="2040" width="60" height="30" as="geometry" />
        </mxCell>
        <mxCell id="skVlUIX4g7myS5e7Ys-l-58" value="8t" style="text;html=1;strokeColor=none;fillColor=none;align=center;verticalAlign=middle;whiteSpace=wrap;rounded=0;" parent="1" vertex="1">
          <mxGeometry x="1130" y="2040" width="60" height="30" as="geometry" />
        </mxCell>
        <mxCell id="skVlUIX4g7myS5e7Ys-l-59" value="10t" style="text;html=1;strokeColor=none;fillColor=none;align=center;verticalAlign=middle;whiteSpace=wrap;rounded=0;" parent="1" vertex="1">
          <mxGeometry x="1170" y="2040" width="60" height="30" as="geometry" />
        </mxCell>
        <mxCell id="skVlUIX4g7myS5e7Ys-l-60" value="12t" style="text;html=1;strokeColor=none;fillColor=none;align=center;verticalAlign=middle;whiteSpace=wrap;rounded=0;" parent="1" vertex="1">
          <mxGeometry x="1210" y="2040" width="60" height="30" as="geometry" />
        </mxCell>
        <mxCell id="skVlUIX4g7myS5e7Ys-l-61" value="14t" style="text;html=1;strokeColor=none;fillColor=none;align=center;verticalAlign=middle;whiteSpace=wrap;rounded=0;" parent="1" vertex="1">
          <mxGeometry x="1250" y="2040" width="60" height="30" as="geometry" />
        </mxCell>
        <mxCell id="skVlUIX4g7myS5e7Ys-l-62" value="16t" style="text;html=1;strokeColor=none;fillColor=none;align=center;verticalAlign=middle;whiteSpace=wrap;rounded=0;" parent="1" vertex="1">
          <mxGeometry x="1290" y="2040" width="60" height="30" as="geometry" />
        </mxCell>
        <mxCell id="skVlUIX4g7myS5e7Ys-l-63" value="1t" style="text;html=1;strokeColor=none;fillColor=none;align=center;verticalAlign=middle;whiteSpace=wrap;rounded=0;" parent="1" vertex="1">
          <mxGeometry x="990" y="2010" width="60" height="30" as="geometry" />
        </mxCell>
        <mxCell id="skVlUIX4g7myS5e7Ys-l-64" value="3t" style="text;html=1;strokeColor=none;fillColor=none;align=center;verticalAlign=middle;whiteSpace=wrap;rounded=0;" parent="1" vertex="1">
          <mxGeometry x="1030" y="2010" width="60" height="30" as="geometry" />
        </mxCell>
        <mxCell id="skVlUIX4g7myS5e7Ys-l-65" value="5t" style="text;html=1;strokeColor=none;fillColor=none;align=center;verticalAlign=middle;whiteSpace=wrap;rounded=0;" parent="1" vertex="1">
          <mxGeometry x="1070" y="2010" width="60" height="30" as="geometry" />
        </mxCell>
        <mxCell id="skVlUIX4g7myS5e7Ys-l-66" value="7t" style="text;html=1;strokeColor=none;fillColor=none;align=center;verticalAlign=middle;whiteSpace=wrap;rounded=0;" parent="1" vertex="1">
          <mxGeometry x="1110" y="2010" width="60" height="30" as="geometry" />
        </mxCell>
        <mxCell id="skVlUIX4g7myS5e7Ys-l-67" value="9t" style="text;html=1;strokeColor=none;fillColor=none;align=center;verticalAlign=middle;whiteSpace=wrap;rounded=0;" parent="1" vertex="1">
          <mxGeometry x="1150" y="2010" width="60" height="30" as="geometry" />
        </mxCell>
        <mxCell id="skVlUIX4g7myS5e7Ys-l-68" value="11t" style="text;html=1;strokeColor=none;fillColor=none;align=center;verticalAlign=middle;whiteSpace=wrap;rounded=0;" parent="1" vertex="1">
          <mxGeometry x="1190" y="2010" width="60" height="30" as="geometry" />
        </mxCell>
        <mxCell id="skVlUIX4g7myS5e7Ys-l-69" value="13t" style="text;html=1;strokeColor=none;fillColor=none;align=center;verticalAlign=middle;whiteSpace=wrap;rounded=0;" parent="1" vertex="1">
          <mxGeometry x="1230" y="2010" width="60" height="30" as="geometry" />
        </mxCell>
        <mxCell id="skVlUIX4g7myS5e7Ys-l-70" value="15t" style="text;html=1;strokeColor=none;fillColor=none;align=center;verticalAlign=middle;whiteSpace=wrap;rounded=0;" parent="1" vertex="1">
          <mxGeometry x="1270" y="2010" width="60" height="30" as="geometry" />
        </mxCell>
        <mxCell id="skVlUIX4g7myS5e7Ys-l-71" value="" style="endArrow=none;html=1;rounded=0;dashed=1;" parent="1" edge="1">
          <mxGeometry width="50" height="50" relative="1" as="geometry">
            <mxPoint x="1360" y="1600" as="sourcePoint" />
            <mxPoint x="1360" y="1400" as="targetPoint" />
          </mxGeometry>
        </mxCell>
        <mxCell id="skVlUIX4g7myS5e7Ys-l-72" value="" style="endArrow=none;html=1;rounded=0;dashed=1;" parent="1" edge="1">
          <mxGeometry width="50" height="50" relative="1" as="geometry">
            <mxPoint x="1440" y="1600" as="sourcePoint" />
            <mxPoint x="1440" y="1400" as="targetPoint" />
          </mxGeometry>
        </mxCell>
        <mxCell id="skVlUIX4g7myS5e7Ys-l-73" value="" style="endArrow=none;html=1;rounded=0;dashed=1;" parent="1" edge="1">
          <mxGeometry width="50" height="50" relative="1" as="geometry">
            <mxPoint x="1480" y="1600" as="sourcePoint" />
            <mxPoint x="1480" y="1400" as="targetPoint" />
          </mxGeometry>
        </mxCell>
        <mxCell id="skVlUIX4g7myS5e7Ys-l-74" value="" style="endArrow=none;html=1;rounded=0;dashed=1;" parent="1" edge="1">
          <mxGeometry width="50" height="50" relative="1" as="geometry">
            <mxPoint x="1700" y="2000" as="sourcePoint" />
            <mxPoint x="1700" y="1800" as="targetPoint" />
          </mxGeometry>
        </mxCell>
        <mxCell id="j_RhVMx-HsZgqAVWS6TV-5" value="S4: disable read&lt;br&gt;enableRead = 0" style="ellipse;whiteSpace=wrap;html=1;" parent="1" vertex="1">
          <mxGeometry x="1720" y="130" width="120" height="60" as="geometry" />
        </mxCell>
        <mxCell id="j_RhVMx-HsZgqAVWS6TV-22" value="" style="edgeStyle=orthogonalEdgeStyle;rounded=0;orthogonalLoop=1;jettySize=auto;html=1;curved=1;" parent="1" source="j_RhVMx-HsZgqAVWS6TV-20" target="j_RhVMx-HsZgqAVWS6TV-21" edge="1">
          <mxGeometry relative="1" as="geometry">
            <Array as="points" />
          </mxGeometry>
        </mxCell>
        <mxCell id="j_RhVMx-HsZgqAVWS6TV-20" value="S2: reset output flags&lt;br&gt;endLayer = 0&lt;br&gt;endNeuron = 0&lt;br&gt;mxnControllerEnd = 0" style="ellipse;whiteSpace=wrap;html=1;" parent="1" vertex="1">
          <mxGeometry x="1480" y="-550" width="160" height="80" as="geometry" />
        </mxCell>
        <mxCell id="j_RhVMx-HsZgqAVWS6TV-24" value="previusYCount = m" style="edgeStyle=orthogonalEdgeStyle;rounded=0;orthogonalLoop=1;jettySize=auto;html=1;curved=1;" parent="1" source="j_RhVMx-HsZgqAVWS6TV-21" target="j_RhVMx-HsZgqAVWS6TV-23" edge="1">
          <mxGeometry relative="1" as="geometry">
            <Array as="points">
              <mxPoint x="1930" y="-400" />
            </Array>
          </mxGeometry>
        </mxCell>
        <mxCell id="j_RhVMx-HsZgqAVWS6TV-34" value="previusYCount != m" style="edgeStyle=orthogonalEdgeStyle;rounded=0;orthogonalLoop=1;jettySize=auto;html=1;curved=1;exitX=0;exitY=0;exitDx=0;exitDy=0;entryX=1;entryY=0;entryDx=0;entryDy=0;" parent="1" source="j_RhVMx-HsZgqAVWS6TV-21" target="j_RhVMx-HsZgqAVWS6TV-35" edge="1">
          <mxGeometry relative="1" as="geometry">
            <Array as="points">
              <mxPoint x="1755" y="-610" />
              <mxPoint x="1302" y="-610" />
            </Array>
          </mxGeometry>
        </mxCell>
        <mxCell id="j_RhVMx-HsZgqAVWS6TV-21" value="S3: add&lt;br&gt;previousYCount = previousYCount&amp;nbsp;+ 1" style="ellipse;whiteSpace=wrap;html=1;" parent="1" vertex="1">
          <mxGeometry x="1720" y="-550" width="240" height="80" as="geometry" />
        </mxCell>
        <mxCell id="j_RhVMx-HsZgqAVWS6TV-26" value="yCount = n" style="edgeStyle=orthogonalEdgeStyle;rounded=0;orthogonalLoop=1;jettySize=auto;html=1;curved=1;entryX=0.655;entryY=-0.015;entryDx=0;entryDy=0;entryPerimeter=0;" parent="1" source="j_RhVMx-HsZgqAVWS6TV-29" target="ol625469mGtvV0Z9UcoN-45" edge="1">
          <mxGeometry relative="1" as="geometry" />
        </mxCell>
        <mxCell id="j_RhVMx-HsZgqAVWS6TV-30" value="yCount != n" style="edgeStyle=orthogonalEdgeStyle;rounded=0;orthogonalLoop=1;jettySize=auto;html=1;curved=1;" parent="1" source="j_RhVMx-HsZgqAVWS6TV-42" target="ol625469mGtvV0Z9UcoN-45" edge="1">
          <mxGeometry relative="1" as="geometry">
            <Array as="points">
              <mxPoint x="1730" y="-210" />
              <mxPoint x="1460" y="-210" />
            </Array>
          </mxGeometry>
        </mxCell>
        <mxCell id="j_RhVMx-HsZgqAVWS6TV-43" value="" style="edgeStyle=orthogonalEdgeStyle;rounded=0;orthogonalLoop=1;jettySize=auto;html=1;curved=1;" parent="1" source="j_RhVMx-HsZgqAVWS6TV-23" target="j_RhVMx-HsZgqAVWS6TV-42" edge="1">
          <mxGeometry relative="1" as="geometry">
            <Array as="points">
              <mxPoint x="1860" y="-260" />
            </Array>
          </mxGeometry>
        </mxCell>
        <mxCell id="j_RhVMx-HsZgqAVWS6TV-23" value="S4: endNeuron&lt;br&gt;endNeuron = 1&lt;br&gt;previousYCount = 0" style="ellipse;whiteSpace=wrap;html=1;" parent="1" vertex="1">
          <mxGeometry x="1800" y="-410" width="120" height="80" as="geometry" />
        </mxCell>
        <mxCell id="j_RhVMx-HsZgqAVWS6TV-25" value="m = totalPreviusY = inputLayer&lt;br&gt;n = totalY = outputLayer" style="text;html=1;strokeColor=none;fillColor=none;align=center;verticalAlign=middle;whiteSpace=wrap;rounded=0;" parent="1" vertex="1">
          <mxGeometry x="160" y="1500" width="200" height="30" as="geometry" />
        </mxCell>
        <mxCell id="j_RhVMx-HsZgqAVWS6TV-27" value="reset" style="endArrow=classic;html=1;rounded=0;" parent="1" target="j_RhVMx-HsZgqAVWS6TV-39" edge="1">
          <mxGeometry width="50" height="50" relative="1" as="geometry">
            <mxPoint x="1339.99" y="-750" as="sourcePoint" />
            <mxPoint x="1317.5635931288218" y="-668.2842712474525" as="targetPoint" />
          </mxGeometry>
        </mxCell>
        <mxCell id="j_RhVMx-HsZgqAVWS6TV-29" value="S6: end layer&lt;br&gt;endLayer = 1" style="ellipse;whiteSpace=wrap;html=1;" parent="1" vertex="1">
          <mxGeometry x="1560" y="-440" width="120" height="80" as="geometry" />
        </mxCell>
        <mxCell id="j_RhVMx-HsZgqAVWS6TV-38" value="mxnControllerStart&amp;nbsp;= 1" style="edgeStyle=orthogonalEdgeStyle;rounded=0;orthogonalLoop=1;jettySize=auto;html=1;curved=1;" parent="1" source="j_RhVMx-HsZgqAVWS6TV-35" target="j_RhVMx-HsZgqAVWS6TV-20" edge="1">
          <mxGeometry relative="1" as="geometry" />
        </mxCell>
        <mxCell id="j_RhVMx-HsZgqAVWS6TV-35" value="S1: waiting" style="ellipse;whiteSpace=wrap;html=1;" parent="1" vertex="1">
          <mxGeometry x="1200" y="-550" width="120" height="80" as="geometry" />
        </mxCell>
        <mxCell id="j_RhVMx-HsZgqAVWS6TV-40" style="edgeStyle=orthogonalEdgeStyle;rounded=0;orthogonalLoop=1;jettySize=auto;html=1;curved=1;entryX=0.5;entryY=0;entryDx=0;entryDy=0;" parent="1" source="j_RhVMx-HsZgqAVWS6TV-39" target="j_RhVMx-HsZgqAVWS6TV-35" edge="1">
          <mxGeometry relative="1" as="geometry">
            <Array as="points">
              <mxPoint x="1240" y="-600" />
              <mxPoint x="1260" y="-600" />
            </Array>
          </mxGeometry>
        </mxCell>
        <mxCell id="j_RhVMx-HsZgqAVWS6TV-39" value="S0: begin&lt;br&gt;endLayer = 0&lt;br&gt;endNeuron = 0&lt;br&gt;previousYCount&amp;nbsp; = 0&lt;br&gt;yCount = 0&lt;br&gt;mxnControllerEnd = 0" style="ellipse;whiteSpace=wrap;html=1;" parent="1" vertex="1">
          <mxGeometry x="1120" y="-730" width="160.01" height="120" as="geometry" />
        </mxCell>
        <mxCell id="j_RhVMx-HsZgqAVWS6TV-41" value="mxnControllerStart&amp;nbsp;= 0" style="edgeStyle=orthogonalEdgeStyle;rounded=0;orthogonalLoop=1;jettySize=auto;html=1;curved=1;entryX=0;entryY=1;entryDx=0;entryDy=0;exitX=0;exitY=0;exitDx=0;exitDy=0;" parent="1" source="j_RhVMx-HsZgqAVWS6TV-35" target="j_RhVMx-HsZgqAVWS6TV-35" edge="1">
          <mxGeometry relative="1" as="geometry">
            <Array as="points">
              <mxPoint x="1218" y="-550" />
              <mxPoint x="1140" y="-550" />
              <mxPoint x="1140" y="-462" />
              <mxPoint x="1218" y="-462" />
            </Array>
          </mxGeometry>
        </mxCell>
        <mxCell id="j_RhVMx-HsZgqAVWS6TV-44" value="yCount = n" style="edgeStyle=orthogonalEdgeStyle;rounded=0;orthogonalLoop=1;jettySize=auto;html=1;curved=1;" parent="1" source="j_RhVMx-HsZgqAVWS6TV-42" target="j_RhVMx-HsZgqAVWS6TV-29" edge="1">
          <mxGeometry relative="1" as="geometry" />
        </mxCell>
        <mxCell id="j_RhVMx-HsZgqAVWS6TV-42" value="S5: add&lt;br style=&quot;border-color: var(--border-color);&quot;&gt;yCount = yCount&amp;nbsp;+ 1" style="ellipse;whiteSpace=wrap;html=1;" parent="1" vertex="1">
          <mxGeometry x="1680" y="-300" width="120" height="80" as="geometry" />
        </mxCell>
        <mxCell id="j_RhVMx-HsZgqAVWS6TV-45" value="&lt;h1&gt;mxn&lt;/h1&gt;" style="text;html=1;strokeColor=none;fillColor=none;spacing=5;spacingTop=-20;whiteSpace=wrap;overflow=hidden;rounded=0;" parent="1" vertex="1">
          <mxGeometry x="1449.99" y="-680" width="190" height="120" as="geometry" />
        </mxCell>
        <mxCell id="j_RhVMx-HsZgqAVWS6TV-47" value="mxn controller" style="rounded=0;whiteSpace=wrap;html=1;fillColor=#d5e8d4;strokeColor=#82b366;" parent="1" vertex="1">
          <mxGeometry x="80" y="340" width="80" height="80" as="geometry" />
        </mxCell>
        <mxCell id="ol625469mGtvV0Z9UcoN-4" value="S2: reset flag&lt;br&gt;xxxxControllerEnd = 0" style="ellipse;whiteSpace=wrap;html=1;" parent="1" vertex="1">
          <mxGeometry x="1560" y="-30" width="160" height="50" as="geometry" />
        </mxCell>
        <mxCell id="ol625469mGtvV0Z9UcoN-6" value="mxnControllerStart" style="endArrow=classic;html=1;rounded=0;dashed=1;" parent="1" edge="1">
          <mxGeometry width="50" height="50" relative="1" as="geometry">
            <mxPoint x="-110" y="400" as="sourcePoint" />
            <mxPoint x="70" y="400" as="targetPoint" />
          </mxGeometry>
        </mxCell>
        <mxCell id="ol625469mGtvV0Z9UcoN-19" value="mxnControllerEnd = 1&lt;br&gt;endNeuron = 1" style="edgeStyle=orthogonalEdgeStyle;rounded=0;orthogonalLoop=1;jettySize=auto;html=1;curved=1;" parent="1" source="ol625469mGtvV0Z9UcoN-35" target="ol625469mGtvV0Z9UcoN-20" edge="1">
          <mxGeometry relative="1" as="geometry">
            <mxPoint x="1990.0200000000007" y="795.3589838486223" as="sourcePoint" />
            <mxPoint x="1872.022698124664" y="740.0476190476188" as="targetPoint" />
            <Array as="points">
              <mxPoint x="2300" y="980" />
            </Array>
          </mxGeometry>
        </mxCell>
        <mxCell id="ol625469mGtvV0Z9UcoN-36" value="" style="edgeStyle=orthogonalEdgeStyle;rounded=0;orthogonalLoop=1;jettySize=auto;html=1;curved=1;" parent="1" source="ol625469mGtvV0Z9UcoN-8" target="U7OZezu96vLxZYOazE27-1" edge="1">
          <mxGeometry relative="1" as="geometry">
            <Array as="points">
              <mxPoint x="2010" y="600" />
            </Array>
          </mxGeometry>
        </mxCell>
        <mxCell id="ol625469mGtvV0Z9UcoN-8" value="S1: start mxn controller&lt;br&gt;enableMemory = 0&lt;br&gt;mxnControllerStart = 1" style="ellipse;whiteSpace=wrap;html=1;" parent="1" vertex="1">
          <mxGeometry x="1680.02" y="580" width="159.98" height="80" as="geometry" />
        </mxCell>
        <mxCell id="ol625469mGtvV0Z9UcoN-13" value="mxnControllerEnd&amp;nbsp;= 1&lt;br&gt;endNeuron = 0" style="edgeStyle=orthogonalEdgeStyle;rounded=0;orthogonalLoop=1;jettySize=auto;html=1;curved=1;" parent="1" source="ol625469mGtvV0Z9UcoN-35" target="ol625469mGtvV0Z9UcoN-12" edge="1">
          <mxGeometry relative="1" as="geometry">
            <mxPoint x="1977.5935931288075" y="858.2842712474621" as="sourcePoint" />
            <Array as="points">
              <mxPoint x="2380" y="810" />
            </Array>
          </mxGeometry>
        </mxCell>
        <mxCell id="ol625469mGtvV0Z9UcoN-17" value="weightPointerControllerEnd = 1 and&lt;br style=&quot;border-color: var(--border-color);&quot;&gt;previousYControllerEnd = 1" style="rounded=0;orthogonalLoop=1;jettySize=auto;html=1;" parent="1" source="ol625469mGtvV0Z9UcoN-38" target="ol625469mGtvV0Z9UcoN-16" edge="1">
          <mxGeometry x="-0.0025" relative="1" as="geometry">
            <mxPoint x="1760.0200000000007" y="892.9999999999995" as="sourcePoint" />
            <mxPoint x="1560.0200000000002" y="902.9999999999995" as="targetPoint" />
            <mxPoint as="offset" />
          </mxGeometry>
        </mxCell>
        <mxCell id="ol625469mGtvV0Z9UcoN-39" style="edgeStyle=orthogonalEdgeStyle;rounded=0;orthogonalLoop=1;jettySize=auto;html=1;curved=1;" parent="1" source="U7OZezu96vLxZYOazE27-9" target="ol625469mGtvV0Z9UcoN-38" edge="1">
          <mxGeometry relative="1" as="geometry">
            <Array as="points" />
          </mxGeometry>
        </mxCell>
        <mxCell id="U7OZezu96vLxZYOazE27-10" style="edgeStyle=orthogonalEdgeStyle;rounded=0;orthogonalLoop=1;jettySize=auto;html=1;" parent="1" source="ol625469mGtvV0Z9UcoN-12" target="U7OZezu96vLxZYOazE27-9" edge="1">
          <mxGeometry relative="1" as="geometry" />
        </mxCell>
        <mxCell id="ol625469mGtvV0Z9UcoN-12" value="S4: start weight and previous y controller&lt;br&gt;weightPointerControllerStart = 1&lt;br style=&quot;border-color: var(--border-color);&quot;&gt;previousYControllerStart = 1" style="ellipse;whiteSpace=wrap;html=1;" parent="1" vertex="1">
          <mxGeometry x="2040" y="780" width="200" height="100" as="geometry" />
        </mxCell>
        <mxCell id="ol625469mGtvV0Z9UcoN-29" style="edgeStyle=orthogonalEdgeStyle;rounded=0;orthogonalLoop=1;jettySize=auto;html=1;curved=1;" parent="1" source="ol625469mGtvV0Z9UcoN-16" target="ol625469mGtvV0Z9UcoN-8" edge="1">
          <mxGeometry relative="1" as="geometry">
            <Array as="points">
              <mxPoint x="1430" y="640" />
            </Array>
          </mxGeometry>
        </mxCell>
        <mxCell id="ol625469mGtvV0Z9UcoN-16" value="S7: Enable memory&lt;br&gt;enableMemory = 1" style="ellipse;whiteSpace=wrap;html=1;" parent="1" vertex="1">
          <mxGeometry x="1320.0000000000002" y="790" width="120" height="80" as="geometry" />
        </mxCell>
        <mxCell id="ol625469mGtvV0Z9UcoN-23" value="yPointerControllerEnd = 1" style="edgeStyle=orthogonalEdgeStyle;rounded=0;orthogonalLoop=1;jettySize=auto;html=1;curved=1;" parent="1" source="ol625469mGtvV0Z9UcoN-41" target="ol625469mGtvV0Z9UcoN-22" edge="1">
          <mxGeometry relative="1" as="geometry" />
        </mxCell>
        <mxCell id="ol625469mGtvV0Z9UcoN-40" style="edgeStyle=orthogonalEdgeStyle;rounded=0;orthogonalLoop=1;jettySize=auto;html=1;curved=1;" parent="1" source="U7OZezu96vLxZYOazE27-7" target="ol625469mGtvV0Z9UcoN-41" edge="1">
          <mxGeometry relative="1" as="geometry">
            <mxPoint x="1680.0200000000002" y="880" as="targetPoint" />
          </mxGeometry>
        </mxCell>
        <mxCell id="ol625469mGtvV0Z9UcoN-20" value="S8: start y pointer controller&lt;br&gt;yPointerControllerStart&amp;nbsp;= 1" style="ellipse;whiteSpace=wrap;html=1;" parent="1" vertex="1">
          <mxGeometry x="2040" y="960" width="160" height="80" as="geometry" />
        </mxCell>
        <mxCell id="ol625469mGtvV0Z9UcoN-30" style="edgeStyle=orthogonalEdgeStyle;rounded=0;orthogonalLoop=1;jettySize=auto;html=1;curved=1;" parent="1" source="ol625469mGtvV0Z9UcoN-22" target="ol625469mGtvV0Z9UcoN-8" edge="1">
          <mxGeometry relative="1" as="geometry">
            <Array as="points">
              <mxPoint x="1290" y="960" />
              <mxPoint x="1290" y="610" />
            </Array>
          </mxGeometry>
        </mxCell>
        <mxCell id="ol625469mGtvV0Z9UcoN-22" value="S11: reset previous y controller&amp;nbsp;" style="ellipse;whiteSpace=wrap;html=1;" parent="1" vertex="1">
          <mxGeometry x="1320.0000000000002" y="960" width="120" height="80" as="geometry" />
        </mxCell>
        <mxCell id="ol625469mGtvV0Z9UcoN-24" value="&lt;h1&gt;Heading&lt;/h1&gt;&lt;p&gt;endNeuron&lt;span style=&quot;white-space: pre;&quot;&gt;&#x9;&lt;/span&gt;endLayer&lt;/p&gt;&lt;p&gt;0&lt;span style=&quot;white-space: pre;&quot;&gt;&#x9;&lt;/span&gt;&lt;span style=&quot;white-space: pre;&quot;&gt;&#x9;&lt;/span&gt;&lt;span style=&quot;white-space: pre;&quot;&gt;&#x9;&lt;/span&gt;0&lt;span style=&quot;white-space: pre;&quot;&gt;&#x9;&lt;/span&gt;&lt;span style=&quot;white-space: pre;&quot;&gt;&#x9;&lt;span style=&quot;white-space: pre;&quot;&gt;&#x9;&lt;/span&gt;e&lt;/span&gt;nable eight and y previus&lt;/p&gt;&lt;p&gt;0&lt;span style=&quot;white-space: pre;&quot;&gt;&#x9;&lt;/span&gt;&lt;span style=&quot;white-space: pre;&quot;&gt;&#x9;&lt;/span&gt;&lt;span style=&quot;white-space: pre;&quot;&gt;&#x9;&lt;/span&gt;1&lt;span style=&quot;white-space: pre;&quot;&gt;&#x9;&lt;/span&gt;&lt;span style=&quot;white-space: pre;&quot;&gt;&#x9;&lt;/span&gt;&lt;span style=&quot;white-space: pre;&quot;&gt;&#x9;&lt;/span&gt;&lt;/p&gt;&lt;p&gt;1&lt;span style=&quot;white-space: pre;&quot;&gt;&#x9;&lt;/span&gt;&lt;span style=&quot;white-space: pre;&quot;&gt;&#x9;&lt;/span&gt;&lt;span style=&quot;white-space: pre;&quot;&gt;&#x9;&lt;/span&gt;0&lt;/p&gt;&lt;p&gt;1&lt;span style=&quot;white-space: pre;&quot;&gt;&#x9;&lt;/span&gt;&lt;span style=&quot;white-space: pre;&quot;&gt;&#x9;&lt;/span&gt;&lt;span style=&quot;white-space: pre;&quot;&gt;&#x9;&lt;/span&gt;1&lt;/p&gt;" style="text;html=1;strokeColor=none;fillColor=none;spacing=5;spacingTop=-20;whiteSpace=wrap;overflow=hidden;rounded=0;" parent="1" vertex="1">
          <mxGeometry x="1440.0000000000002" y="1080" width="430" height="190" as="geometry" />
        </mxCell>
        <mxCell id="ol625469mGtvV0Z9UcoN-25" value="yPointerControllerEnd = 0" style="rounded=0;orthogonalLoop=1;jettySize=auto;html=1;edgeStyle=orthogonalEdgeStyle;curved=1;" parent="1" source="ol625469mGtvV0Z9UcoN-41" target="ol625469mGtvV0Z9UcoN-41" edge="1">
          <mxGeometry relative="1" as="geometry">
            <Array as="points">
              <mxPoint x="1720" y="930" />
            </Array>
          </mxGeometry>
        </mxCell>
        <mxCell id="ol625469mGtvV0Z9UcoN-26" value="mxnControllerEnd" style="endArrow=classic;html=1;rounded=0;dashed=1;" parent="1" edge="1">
          <mxGeometry width="50" height="50" relative="1" as="geometry">
            <mxPoint x="70" y="410" as="sourcePoint" />
            <mxPoint x="-110" y="410" as="targetPoint" />
          </mxGeometry>
        </mxCell>
        <mxCell id="ol625469mGtvV0Z9UcoN-28" value="weightPointerControllerEnd = 0 or&lt;br&gt;previousYControllerEnd = 0" style="rounded=0;orthogonalLoop=1;jettySize=auto;html=1;edgeStyle=orthogonalEdgeStyle;curved=1;" parent="1" source="ol625469mGtvV0Z9UcoN-38" target="ol625469mGtvV0Z9UcoN-38" edge="1">
          <mxGeometry y="20" relative="1" as="geometry">
            <Array as="points">
              <mxPoint x="1730" y="760" />
            </Array>
            <mxPoint as="offset" />
          </mxGeometry>
        </mxCell>
        <mxCell id="ol625469mGtvV0Z9UcoN-31" value="mxnControllerEnd&amp;nbsp;= 0" style="rounded=0;orthogonalLoop=1;jettySize=auto;html=1;exitX=0.944;exitY=0.229;exitDx=0;exitDy=0;exitPerimeter=0;entryX=0.961;entryY=0.762;entryDx=0;entryDy=0;entryPerimeter=0;edgeStyle=orthogonalEdgeStyle;curved=1;" parent="1" source="ol625469mGtvV0Z9UcoN-35" target="ol625469mGtvV0Z9UcoN-35" edge="1">
          <mxGeometry relative="1" as="geometry">
            <Array as="points">
              <mxPoint x="2433" y="880" />
              <mxPoint x="2530" y="880" />
              <mxPoint x="2530" y="941" />
            </Array>
          </mxGeometry>
        </mxCell>
        <mxCell id="ol625469mGtvV0Z9UcoN-32" value="reset" style="endArrow=classic;html=1;rounded=0;" parent="1" target="ol625469mGtvV0Z9UcoN-33" edge="1">
          <mxGeometry width="50" height="50" relative="1" as="geometry">
            <mxPoint x="1670.0200000000002" y="380" as="sourcePoint" />
            <mxPoint x="1650.0200000000002" y="530" as="targetPoint" />
          </mxGeometry>
        </mxCell>
        <mxCell id="ol625469mGtvV0Z9UcoN-34" style="rounded=0;orthogonalLoop=1;jettySize=auto;html=1;" parent="1" source="ol625469mGtvV0Z9UcoN-33" target="ol625469mGtvV0Z9UcoN-8" edge="1">
          <mxGeometry relative="1" as="geometry" />
        </mxCell>
        <mxCell id="ol625469mGtvV0Z9UcoN-33" value="S0: reset&lt;br&gt;finishFlag = 0&lt;br&gt;weightPointerControllerStart = 0&lt;br&gt;previousYControllerStart = 0&lt;br&gt;yPointerControllerStart = 0&lt;br&gt;mxnControllerStart = 0" style="ellipse;whiteSpace=wrap;html=1;" parent="1" vertex="1">
          <mxGeometry x="1640.02" y="430" width="200" height="100" as="geometry" />
        </mxCell>
        <mxCell id="ol625469mGtvV0Z9UcoN-44" value="mxnControllerEnd&amp;nbsp;= 1&lt;br style=&quot;border-color: var(--border-color);&quot;&gt;endLayer= 1" style="rounded=0;orthogonalLoop=1;jettySize=auto;html=1;" parent="1" source="ol625469mGtvV0Z9UcoN-35" target="ol625469mGtvV0Z9UcoN-43" edge="1">
          <mxGeometry relative="1" as="geometry" />
        </mxCell>
        <mxCell id="ol625469mGtvV0Z9UcoN-35" value="S3: wait" style="ellipse;whiteSpace=wrap;html=1;" parent="1" vertex="1">
          <mxGeometry x="2320" y="880" width="120" height="80" as="geometry" />
        </mxCell>
        <mxCell id="ol625469mGtvV0Z9UcoN-38" value="S6: wait" style="ellipse;whiteSpace=wrap;html=1;" parent="1" vertex="1">
          <mxGeometry x="1640.0000000000002" y="790" width="120" height="80" as="geometry" />
        </mxCell>
        <mxCell id="ol625469mGtvV0Z9UcoN-41" value="S10: wait" style="ellipse;whiteSpace=wrap;html=1;" parent="1" vertex="1">
          <mxGeometry x="1640.0000000000002" y="960" width="120" height="80" as="geometry" />
        </mxCell>
        <mxCell id="ol625469mGtvV0Z9UcoN-43" value="S12: finish layer&lt;br&gt;finishFlag = 1" style="ellipse;whiteSpace=wrap;html=1;" parent="1" vertex="1">
          <mxGeometry x="2440" y="1070" width="120" height="80" as="geometry" />
        </mxCell>
        <mxCell id="ol625469mGtvV0Z9UcoN-46" style="edgeStyle=orthogonalEdgeStyle;rounded=0;orthogonalLoop=1;jettySize=auto;html=1;curved=1;" parent="1" source="ol625469mGtvV0Z9UcoN-45" target="j_RhVMx-HsZgqAVWS6TV-35" edge="1">
          <mxGeometry relative="1" as="geometry" />
        </mxCell>
        <mxCell id="ol625469mGtvV0Z9UcoN-45" value="S7: finish controller&lt;br&gt;mxnControllerEnd = 1" style="ellipse;whiteSpace=wrap;html=1;" parent="1" vertex="1">
          <mxGeometry x="1380" y="-320" width="120" height="80" as="geometry" />
        </mxCell>
        <mxCell id="U7OZezu96vLxZYOazE27-2" style="edgeStyle=orthogonalEdgeStyle;rounded=0;orthogonalLoop=1;jettySize=auto;html=1;curved=1;entryX=0.676;entryY=0.054;entryDx=0;entryDy=0;entryPerimeter=0;" parent="1" source="U7OZezu96vLxZYOazE27-1" edge="1" target="ol625469mGtvV0Z9UcoN-35">
          <mxGeometry relative="1" as="geometry">
            <mxPoint x="2078.0947501931114" y="650" as="sourcePoint" />
            <mxPoint x="2407.7200000000003" y="865.9200000000001" as="targetPoint" />
            <Array as="points">
              <mxPoint x="2401" y="650" />
            </Array>
          </mxGeometry>
        </mxCell>
        <mxCell id="U7OZezu96vLxZYOazE27-1" value="S2: wait for flag resets&lt;br&gt;mxnControllerStart = 0" style="ellipse;whiteSpace=wrap;html=1;" parent="1" vertex="1">
          <mxGeometry x="1960" y="640" width="160" height="80" as="geometry" />
        </mxCell>
        <mxCell id="U7OZezu96vLxZYOazE27-8" style="edgeStyle=orthogonalEdgeStyle;rounded=0;orthogonalLoop=1;jettySize=auto;html=1;" parent="1" source="ol625469mGtvV0Z9UcoN-20" target="U7OZezu96vLxZYOazE27-7" edge="1">
          <mxGeometry relative="1" as="geometry" />
        </mxCell>
        <mxCell id="U7OZezu96vLxZYOazE27-7" value="S9: wait for flag resets&lt;br&gt;yPointerControllerStart&amp;nbsp;= 0" style="ellipse;whiteSpace=wrap;html=1;" parent="1" vertex="1">
          <mxGeometry x="1800" y="960" width="160" height="80" as="geometry" />
        </mxCell>
        <mxCell id="U7OZezu96vLxZYOazE27-9" value="S5: wait for flag resets&lt;br&gt;weightPointerControllerStart = 0&lt;br style=&quot;border-color: var(--border-color);&quot;&gt;previousYControllerStart = 0" style="ellipse;whiteSpace=wrap;html=1;" parent="1" vertex="1">
          <mxGeometry x="1800" y="790" width="200" height="80" as="geometry" />
        </mxCell>
      </root>
    </mxGraphModel>
  </diagram>
</mxfile>
